<svg xmlns="http://www.w3.org/2000/svg" xmlns:xlink="http://www.w3.org/1999/xlink" width="29.717" height="29.716" viewBox="0 0 29.717 29.716">
  <defs>
    <radialGradient id="radial-gradient" cx="0.159" cy="1" r="1.113" gradientTransform="matrix(0.306, -0.952, 0.992, 0.319, -0.882, 0.832)" gradientUnits="objectBoundingBox">
      <stop offset="0" stop-color="#ffda6d"/>
      <stop offset="0.361" stop-color="#ff6e05"/>
      <stop offset="0.632" stop-color="#d21893"/>
      <stop offset="1" stop-color="#4a61d9"/>
    </radialGradient>
  </defs>
  <g id="Grupo_5" data-name="Grupo 5" transform="translate(-0.001)">
    <path id="Trazado_7101" data-name="Trazado 7101" d="M6.191,0H23.525a6.191,6.191,0,0,1,6.191,6.191V23.525a6.191,6.191,0,0,1-6.191,6.191H6.191A6.191,6.191,0,0,1,0,23.525V6.191A6.191,6.191,0,0,1,6.191,0Z" transform="translate(0 0)" fill="url(#radial-gradient)"/>
    <g id="Grupo_9044" data-name="Grupo 9044" transform="translate(3.714 3.714)">
      <path id="Trazado_7097" data-name="Trazado 7097" d="M15.222,6.087c2.975,0,3.328.011,4.5.065a6.168,6.168,0,0,1,2.069.384A3.69,3.69,0,0,1,23.909,8.65a6.168,6.168,0,0,1,.384,2.069c.054,1.175.065,1.527.065,4.5s-.011,3.328-.065,4.5a6.168,6.168,0,0,1-.384,2.069,3.69,3.69,0,0,1-2.115,2.115,6.168,6.168,0,0,1-2.069.384c-1.175.054-1.527.065-4.5.065s-3.328-.011-4.5-.065a6.168,6.168,0,0,1-2.069-.384,3.69,3.69,0,0,1-2.115-2.115,6.168,6.168,0,0,1-.384-2.069c-.054-1.175-.065-1.527-.065-4.5s.011-3.328.065-4.5A6.168,6.168,0,0,1,6.535,8.65,3.69,3.69,0,0,1,8.65,6.535a6.168,6.168,0,0,1,2.069-.384c1.175-.054,1.527-.065,4.5-.065m0-2.008c-3.026,0-3.406.013-4.594.067a8.179,8.179,0,0,0-2.7.518A5.7,5.7,0,0,0,4.664,7.923a8.179,8.179,0,0,0-.518,2.7c-.054,1.189-.067,1.568-.067,4.594s.013,3.406.067,4.594a8.179,8.179,0,0,0,.518,2.7,5.7,5.7,0,0,0,3.259,3.259,8.18,8.18,0,0,0,2.7.518c1.189.054,1.568.067,4.594.067s3.406-.013,4.594-.067a8.18,8.18,0,0,0,2.7-.518,5.7,5.7,0,0,0,3.259-3.259,8.18,8.18,0,0,0,.518-2.7c.054-1.189.067-1.568.067-4.594s-.013-3.406-.067-4.594a8.18,8.18,0,0,0-.518-2.7,5.7,5.7,0,0,0-3.259-3.259,8.179,8.179,0,0,0-2.7-.518c-1.189-.054-1.568-.067-4.594-.067Z" transform="translate(-4.079 -4.079)" fill="#fff"/>
      <path id="Trazado_7098" data-name="Trazado 7098" d="M132.357,126.635a5.722,5.722,0,1,0,5.722,5.722A5.722,5.722,0,0,0,132.357,126.635Zm0,9.437a3.714,3.714,0,1,1,3.715-3.714A3.715,3.715,0,0,1,132.357,136.072Z" transform="translate(-121.214 -121.214)" fill="#fff"/>
      <circle id="Elipse_64" data-name="Elipse 64" cx="1.337" cy="1.337" r="1.337" transform="translate(15.755 3.858)" fill="#fff"/>
    </g>
  </g>
</svg>
