<svg xmlns="http://www.w3.org/2000/svg" width="29.715" height="32" viewBox="0 0 29.715 32">
  <path id="Trazado_9229" data-name="Trazado 9229" d="M-695.517-492.2h2.34a14.174,14.174,0,0,1,10.644,6.464,14.105,14.105,0,0,1-1.164,16.688,2.488,2.488,0,0,1-4.068-.6c-1.124-2.452-2.012-5.008-3.068-7.488-1,2.4-1.888,4.844-2.924,7.228a2.491,2.491,0,0,1-3.256,1.5,3.562,3.562,0,0,1-1.78-2.232c-1.424-3.588-2.884-7.164-4.328-10.748,1.168,0,2.336,0,3.508,0,1.168,2.884,2.328,5.776,3.5,8.656.88-2.164,1.74-4.336,2.6-6.508a3.583,3.583,0,0,1,1.988-2.4,2.457,2.457,0,0,1,2.964,1.516c1.156,2.616,2.12,5.316,3.244,7.944a11.538,11.538,0,0,0,1.728-6.416,10.874,10.874,0,0,0-9.1-10.216,12.664,12.664,0,0,0-13.552,8.78,12.825,12.825,0,0,0,4.428,13.984,12.2,12.2,0,0,0,10.944,2.148c0,1.116-.008,2.232,0,3.344-.7.124-1.4.256-2.1.364h-2.392a16.174,16.174,0,0,1-10.6-5.28,16.679,16.679,0,0,1-4.1-9.512v-2.292a16.585,16.585,0,0,1,4.1-9.644A16.3,16.3,0,0,1-695.517-492.2Z" transform="translate(710.057 492.196)" fill="#373e4c"/>
</svg>
