<svg xmlns="http://www.w3.org/2000/svg" width="42.486" height="29.716" viewBox="0 0 42.486 29.716">
  <g id="Grupo_8902" data-name="Grupo 8902" transform="translate(0.001)">
    <path id="Trazado_3432" data-name="Trazado 3432" d="M41.6,4.643A5.324,5.324,0,0,0,37.83.888C34.516,0,21.235,0,21.235,0S7.95,0,4.643.888A5.317,5.317,0,0,0,.888,4.643C0,7.953,0,14.865,0,14.865s0,6.912.888,10.222a5.317,5.317,0,0,0,3.755,3.755c3.311.874,16.592.874,16.592.874s13.285,0,16.6-.888A5.324,5.324,0,0,0,41.6,25.087c.884-3.311.884-10.222.884-10.222S42.469,7.953,41.6,4.643Z" fill="red"/>
    <path id="Trazado_3433" data-name="Trazado 3433" d="M48.59,37.039l11.037-6.37L48.59,24.3Z" transform="translate(-31.603 -15.805)" fill="#fff"/>
  </g>
</svg>
