<svg xmlns="http://www.w3.org/2000/svg" width="681.568" height="80.104" viewBox="0 0 681.568 80.104">
  <g id="Grupo_9643" data-name="Grupo 9643" transform="translate(0 80.104) rotate(-90)" opacity="0.322">
    <path id="Trazado_8786" data-name="Trazado 8786" d="M0,1.423A1.422,1.422,0,1,1,1.421,2.843,1.421,1.421,0,0,1,0,1.423Z" transform="translate(77.261 677.942)" fill="#fff"/>
    <path id="Trazado_8787" data-name="Trazado 8787" d="M0,1.137A1.137,1.137,0,1,1,1.137,2.275,1.137,1.137,0,0,1,0,1.137Z" transform="translate(77.544 665.409)" fill="#fff"/>
    <ellipse id="Elipse_306" data-name="Elipse 306" cx="1.137" cy="1.137" rx="1.137" ry="1.137" transform="translate(77.544 652.592)" fill="#fff"/>
    <ellipse id="Elipse_307" data-name="Elipse 307" cx="1.137" cy="1.137" rx="1.137" ry="1.137" transform="translate(77.544 639.774)" fill="#fff"/>
    <ellipse id="Elipse_308" data-name="Elipse 308" cx="1.137" cy="1.137" rx="1.137" ry="1.137" transform="translate(77.544 626.957)" fill="#fff"/>
    <ellipse id="Elipse_309" data-name="Elipse 309" cx="1.137" cy="1.137" rx="1.137" ry="1.137" transform="translate(77.544 614.14)" fill="#fff"/>
    <path id="Trazado_8788" data-name="Trazado 8788" d="M0,1.137A1.137,1.137,0,1,1,1.137,2.275,1.137,1.137,0,0,1,0,1.137Z" transform="translate(77.544 601.322)" fill="#fff"/>
    <ellipse id="Elipse_310" data-name="Elipse 310" cx="1.137" cy="1.137" rx="1.137" ry="1.137" transform="translate(77.544 588.504)" fill="#fff"/>
    <ellipse id="Elipse_311" data-name="Elipse 311" cx="1.137" cy="1.137" rx="1.137" ry="1.137" transform="translate(77.544 575.688)" fill="#fff"/>
    <ellipse id="Elipse_312" data-name="Elipse 312" cx="1.137" cy="1.137" rx="1.137" ry="1.137" transform="translate(77.544 562.87)" fill="#fff"/>
    <path id="Trazado_8789" data-name="Trazado 8789" d="M0,1.172A1.172,1.172,0,1,1,1.172,2.345,1.171,1.171,0,0,1,0,1.172Z" transform="translate(77.509 550.017)" fill="#fff"/>
    <path id="Trazado_8790" data-name="Trazado 8790" d="M0,1.172A1.172,1.172,0,1,1,1.172,2.346,1.172,1.172,0,0,1,0,1.172Z" transform="translate(77.509 537.199)" fill="#fff"/>
    <path id="Trazado_8791" data-name="Trazado 8791" d="M0,1.172A1.172,1.172,0,1,1,1.172,2.346,1.172,1.172,0,0,1,0,1.172Z" transform="translate(77.509 524.381)" fill="#fff"/>
    <path id="Trazado_8792" data-name="Trazado 8792" d="M0,1.174A1.172,1.172,0,1,1,1.172,2.346,1.172,1.172,0,0,1,0,1.174Z" transform="translate(77.509 511.564)" fill="#fff"/>
    <ellipse id="Elipse_313" data-name="Elipse 313" cx="1.172" cy="1.172" rx="1.172" ry="1.172" transform="translate(77.509 498.747)" fill="#fff"/>
    <path id="Trazado_8793" data-name="Trazado 8793" d="M0,1.172A1.172,1.172,0,1,1,1.172,2.346,1.171,1.171,0,0,1,0,1.172Z" transform="translate(77.509 485.929)" fill="#fff"/>
    <path id="Trazado_8794" data-name="Trazado 8794" d="M0,1.172A1.172,1.172,0,1,1,1.172,2.346,1.172,1.172,0,0,1,0,1.172Z" transform="translate(77.509 473.111)" fill="#fff"/>
    <path id="Trazado_8795" data-name="Trazado 8795" d="M0,1.174A1.172,1.172,0,1,1,1.172,2.346,1.173,1.173,0,0,1,0,1.174Z" transform="translate(77.509 460.293)" fill="#fff"/>
    <path id="Trazado_8796" data-name="Trazado 8796" d="M0,1.174A1.172,1.172,0,1,1,1.172,2.346,1.172,1.172,0,0,1,0,1.174Z" transform="translate(77.509 447.476)" fill="#fff"/>
    <path id="Trazado_8797" data-name="Trazado 8797" d="M0,1.172A1.172,1.172,0,1,1,1.172,2.346,1.171,1.171,0,0,1,0,1.172Z" transform="translate(77.509 434.659)" fill="#fff"/>
    <path id="Trazado_8798" data-name="Trazado 8798" d="M0,1.172A1.172,1.172,0,1,1,1.172,2.346,1.172,1.172,0,0,1,0,1.172Z" transform="translate(77.509 421.841)" fill="#fff"/>
    <path id="Trazado_8799" data-name="Trazado 8799" d="M0,1.174A1.172,1.172,0,1,1,1.172,2.346,1.173,1.173,0,0,1,0,1.174Z" transform="translate(77.509 409.024)" fill="#fff"/>
    <path id="Trazado_8800" data-name="Trazado 8800" d="M0,1.174A1.172,1.172,0,1,1,1.172,2.346,1.173,1.173,0,0,1,0,1.174Z" transform="translate(77.509 396.206)" fill="#fff"/>
    <path id="Trazado_8801" data-name="Trazado 8801" d="M0,1.172A1.172,1.172,0,1,1,1.172,2.345,1.171,1.171,0,0,1,0,1.172Z" transform="translate(77.509 383.389)" fill="#fff"/>
    <path id="Trazado_8802" data-name="Trazado 8802" d="M0,1.172A1.172,1.172,0,1,1,1.172,2.346,1.172,1.172,0,0,1,0,1.172Z" transform="translate(77.509 370.572)" fill="#fff"/>
    <path id="Trazado_8803" data-name="Trazado 8803" d="M0,1.172A1.172,1.172,0,1,1,1.172,2.346,1.172,1.172,0,0,1,0,1.172Z" transform="translate(77.509 357.754)" fill="#fff"/>
    <path id="Trazado_8804" data-name="Trazado 8804" d="M0,1.174A1.172,1.172,0,1,1,1.172,2.346,1.172,1.172,0,0,1,0,1.174Z" transform="translate(77.509 344.936)" fill="#fff"/>
    <path id="Trazado_8805" data-name="Trazado 8805" d="M0,1.174A1.172,1.172,0,1,1,1.172,2.346,1.173,1.173,0,0,1,0,1.174Z" transform="translate(77.509 332.118)" fill="#fff"/>
    <path id="Trazado_8806" data-name="Trazado 8806" d="M0,1.172A1.172,1.172,0,1,1,1.172,2.346,1.171,1.171,0,0,1,0,1.172Z" transform="translate(77.509 319.302)" fill="#fff"/>
    <path id="Trazado_8807" data-name="Trazado 8807" d="M0,1.172A1.172,1.172,0,1,1,1.172,2.346,1.172,1.172,0,0,1,0,1.172Z" transform="translate(77.509 306.484)" fill="#fff"/>
    <path id="Trazado_8808" data-name="Trazado 8808" d="M0,1.174A1.172,1.172,0,1,1,1.172,2.346,1.172,1.172,0,0,1,0,1.174Z" transform="translate(77.509 293.666)" fill="#fff"/>
    <path id="Trazado_8809" data-name="Trazado 8809" d="M0,1.174A1.172,1.172,0,1,1,1.172,2.346,1.172,1.172,0,0,1,0,1.174Z" transform="translate(77.509 280.848)" fill="#fff"/>
    <path id="Trazado_8810" data-name="Trazado 8810" d="M0,1.172A1.172,1.172,0,1,1,1.172,2.344,1.171,1.171,0,0,1,0,1.172Z" transform="translate(77.509 268.032)" fill="#fff"/>
    <path id="Trazado_8811" data-name="Trazado 8811" d="M0,1.172A1.172,1.172,0,1,1,1.172,2.346,1.172,1.172,0,0,1,0,1.172Z" transform="translate(77.509 255.214)" fill="#fff"/>
    <path id="Trazado_8812" data-name="Trazado 8812" d="M0,1.172A1.172,1.172,0,1,1,1.172,2.346,1.172,1.172,0,0,1,0,1.172Z" transform="translate(77.509 242.396)" fill="#fff"/>
    <path id="Trazado_8813" data-name="Trazado 8813" d="M0,1.174A1.172,1.172,0,1,1,1.172,2.346,1.173,1.173,0,0,1,0,1.174Z" transform="translate(77.509 229.578)" fill="#fff"/>
    <ellipse id="Elipse_314" data-name="Elipse 314" cx="1.137" cy="1.137" rx="1.137" ry="1.137" transform="translate(77.544 216.797)" fill="#fff"/>
    <ellipse id="Elipse_315" data-name="Elipse 315" cx="1.066" cy="1.066" rx="1.066" ry="1.066" transform="translate(77.615 204.05)" fill="#fff"/>
    <path id="Trazado_8814" data-name="Trazado 8814" d="M0,1.03A1.031,1.031,0,1,1,1.031,2.061,1.031,1.031,0,0,1,0,1.03Z" transform="translate(77.65 191.269)" fill="#fff"/>
    <path id="Trazado_8815" data-name="Trazado 8815" d="M0,.925a.923.923,0,1,1,.924.923A.924.924,0,0,1,0,.925Z" transform="translate(77.758 178.557)" fill="#fff"/>
    <path id="Trazado_8816" data-name="Trazado 8816" d="M0,.889a.889.889,0,1,1,.889.888A.889.889,0,0,1,0,.889Z" transform="translate(77.793 165.776)" fill="#fff"/>
    <path id="Trazado_8817" data-name="Trazado 8817" d="M0,.818a.817.817,0,1,1,.817.818A.818.818,0,0,1,0,.818Z" transform="translate(77.864 153.029)" fill="#fff"/>
    <ellipse id="Elipse_316" data-name="Elipse 316" cx="0.746" cy="0.746" rx="0.746" ry="0.746" transform="translate(77.935 140.283)" fill="#fff"/>
    <path id="Trazado_8818" data-name="Trazado 8818" d="M0,.676a.675.675,0,1,1,.675.675A.676.676,0,0,1,0,.676Z" transform="translate(78.007 127.536)" fill="#fff"/>
    <path id="Trazado_8819" data-name="Trazado 8819" d="M0,.6a.6.6,0,1,1,.6.6A.6.6,0,0,1,0,.6Z" transform="translate(78.078 114.79)" fill="#fff"/>
    <path id="Trazado_8820" data-name="Trazado 8820" d="M0,.534a.534.534,0,1,1,.534.534A.534.534,0,0,1,0,.534Z" transform="translate(78.148 102.043)" fill="#fff"/>
    <path id="Trazado_8821" data-name="Trazado 8821" d="M0,.461A.463.463,0,1,1,.463.924.461.461,0,0,1,0,.461Z" transform="translate(78.219 89.298)" fill="#fff"/>
    <ellipse id="Elipse_317" data-name="Elipse 317" cx="0.32" cy="0.32" rx="0.32" ry="0.32" transform="translate(78.361 63.805)" fill="#fff"/>
    <path id="Trazado_8822" data-name="Trazado 8822" d="M0,.285A.284.284,0,1,1,.283.569.284.284,0,0,1,0,.285Z" transform="translate(78.398 51.021)" fill="#fff"/>
    <ellipse id="Elipse_318" data-name="Elipse 318" cx="0.214" cy="0.214" rx="0.214" ry="0.214" transform="translate(78.468 38.275)" fill="#fff"/>
    <path id="Trazado_8823" data-name="Trazado 8823" d="M0,.141A.143.143,0,1,1,.143.284.143.143,0,0,1,0,.141Z" transform="translate(78.539 25.53)" fill="#fff"/>
    <path id="Trazado_8824" data-name="Trazado 8824" d="M0,.071A.071.071,0,0,1,.071,0a.07.07,0,1,1,0,.141A.07.07,0,0,1,0,.071Z" transform="translate(78.61 12.784)" fill="#fff"/>
    <ellipse id="Elipse_319" data-name="Elipse 319" cx="2.203" cy="2.203" rx="2.203" ry="2.203" transform="translate(63.66 677.161)" fill="#fff"/>
    <path id="Trazado_8825" data-name="Trazado 8825" d="M0,1.741A1.742,1.742,0,1,1,1.741,3.482,1.741,1.741,0,0,1,0,1.741Z" transform="translate(64.123 664.806)" fill="#fff"/>
    <path id="Trazado_8826" data-name="Trazado 8826" d="M0,1.741A1.742,1.742,0,1,1,1.741,3.483,1.741,1.741,0,0,1,0,1.741Z" transform="translate(64.123 651.988)" fill="#fff"/>
    <path id="Trazado_8827" data-name="Trazado 8827" d="M0,1.741A1.742,1.742,0,1,1,1.741,3.483,1.741,1.741,0,0,1,0,1.741Z" transform="translate(64.123 639.17)" fill="#fff"/>
    <path id="Trazado_8828" data-name="Trazado 8828" d="M0,1.743A1.742,1.742,0,1,1,1.741,3.483,1.742,1.742,0,0,1,0,1.743Z" transform="translate(64.123 626.352)" fill="#fff"/>
    <path id="Trazado_8829" data-name="Trazado 8829" d="M0,1.743A1.742,1.742,0,1,1,1.741,3.484,1.742,1.742,0,0,1,0,1.743Z" transform="translate(64.123 613.534)" fill="#fff"/>
    <path id="Trazado_8830" data-name="Trazado 8830" d="M0,1.741A1.742,1.742,0,1,1,1.741,3.484,1.741,1.741,0,0,1,0,1.741Z" transform="translate(64.123 600.718)" fill="#fff"/>
    <path id="Trazado_8831" data-name="Trazado 8831" d="M0,1.741A1.742,1.742,0,1,1,1.741,3.483,1.741,1.741,0,0,1,0,1.741Z" transform="translate(64.123 587.9)" fill="#fff"/>
    <path id="Trazado_8832" data-name="Trazado 8832" d="M0,1.743A1.742,1.742,0,1,1,1.741,3.483,1.741,1.741,0,0,1,0,1.743Z" transform="translate(64.123 575.083)" fill="#fff"/>
    <path id="Trazado_8833" data-name="Trazado 8833" d="M0,1.743A1.742,1.742,0,1,1,1.741,3.484,1.742,1.742,0,0,1,0,1.743Z" transform="translate(64.123 562.264)" fill="#fff"/>
    <ellipse id="Elipse_320" data-name="Elipse 320" cx="1.777" cy="1.777" rx="1.777" ry="1.777" transform="translate(64.086 549.412)" fill="#fff"/>
    <ellipse id="Elipse_321" data-name="Elipse 321" cx="1.777" cy="1.777" rx="1.777" ry="1.777" transform="translate(64.086 536.594)" fill="#fff"/>
    <path id="Trazado_8834" data-name="Trazado 8834" d="M0,1.776A1.777,1.777,0,1,1,1.777,3.553,1.777,1.777,0,0,1,0,1.776Z" transform="translate(64.086 523.778)" fill="#fff"/>
    <ellipse id="Elipse_322" data-name="Elipse 322" cx="1.777" cy="1.777" rx="1.777" ry="1.777" transform="translate(64.086 510.96)" fill="#fff"/>
    <ellipse id="Elipse_323" data-name="Elipse 323" cx="1.777" cy="1.777" rx="1.777" ry="1.777" transform="translate(64.086 498.142)" fill="#fff"/>
    <ellipse id="Elipse_324" data-name="Elipse 324" cx="1.777" cy="1.777" rx="1.777" ry="1.777" transform="translate(64.086 485.324)" fill="#fff"/>
    <path id="Trazado_8835" data-name="Trazado 8835" d="M0,1.776A1.777,1.777,0,1,1,1.777,3.553,1.776,1.776,0,0,1,0,1.776Z" transform="translate(64.086 472.508)" fill="#fff"/>
    <path id="Trazado_8836" data-name="Trazado 8836" d="M0,1.778A1.777,1.777,0,1,1,1.777,3.553,1.777,1.777,0,0,1,0,1.778Z" transform="translate(64.086 459.69)" fill="#fff"/>
    <ellipse id="Elipse_325" data-name="Elipse 325" cx="1.777" cy="1.777" rx="1.777" ry="1.777" transform="translate(64.086 446.872)" fill="#fff"/>
    <path id="Trazado_8837" data-name="Trazado 8837" d="M0,1.777A1.777,1.777,0,1,1,1.777,3.555,1.777,1.777,0,0,1,0,1.777Z" transform="translate(64.086 434.054)" fill="#fff"/>
    <ellipse id="Elipse_326" data-name="Elipse 326" cx="1.777" cy="1.777" rx="1.777" ry="1.777" transform="translate(64.086 421.236)" fill="#fff"/>
    <path id="Trazado_8838" data-name="Trazado 8838" d="M0,1.777A1.777,1.777,0,1,1,1.777,3.553,1.777,1.777,0,0,1,0,1.777Z" transform="translate(64.086 408.42)" fill="#fff"/>
    <path id="Trazado_8839" data-name="Trazado 8839" d="M0,1.777A1.777,1.777,0,1,1,1.777,3.555,1.777,1.777,0,0,1,0,1.777Z" transform="translate(64.086 395.602)" fill="#fff"/>
    <ellipse id="Elipse_327" data-name="Elipse 327" cx="1.777" cy="1.777" rx="1.777" ry="1.777" transform="translate(64.086 382.784)" fill="#fff"/>
    <ellipse id="Elipse_328" data-name="Elipse 328" cx="1.777" cy="1.777" rx="1.777" ry="1.777" transform="translate(64.086 369.967)" fill="#fff"/>
    <path id="Trazado_8840" data-name="Trazado 8840" d="M0,1.776A1.777,1.777,0,1,1,1.777,3.553,1.776,1.776,0,0,1,0,1.776Z" transform="translate(64.086 357.15)" fill="#fff"/>
    <ellipse id="Elipse_329" data-name="Elipse 329" cx="1.777" cy="1.777" rx="1.777" ry="1.777" transform="translate(64.086 344.332)" fill="#fff"/>
    <path id="Trazado_8841" data-name="Trazado 8841" d="M0,1.812A1.813,1.813,0,1,1,1.812,3.625,1.811,1.811,0,0,1,0,1.812Z" transform="translate(64.051 331.48)" fill="#fff"/>
    <path id="Trazado_8842" data-name="Trazado 8842" d="M0,1.812A1.813,1.813,0,1,1,1.812,3.625,1.812,1.812,0,0,1,0,1.812Z" transform="translate(64.051 318.662)" fill="#fff"/>
    <path id="Trazado_8843" data-name="Trazado 8843" d="M0,1.812A1.813,1.813,0,1,1,1.812,3.626,1.812,1.812,0,0,1,0,1.812Z" transform="translate(64.051 305.844)" fill="#fff"/>
    <path id="Trazado_8844" data-name="Trazado 8844" d="M0,1.813A1.813,1.813,0,1,1,1.812,3.626,1.813,1.813,0,0,1,0,1.813Z" transform="translate(64.051 293.026)" fill="#fff"/>
    <path id="Trazado_8845" data-name="Trazado 8845" d="M0,1.812A1.813,1.813,0,1,1,1.812,3.624,1.811,1.811,0,0,1,0,1.812Z" transform="translate(64.051 280.21)" fill="#fff"/>
    <path id="Trazado_8846" data-name="Trazado 8846" d="M0,1.812A1.813,1.813,0,1,1,1.812,3.624,1.811,1.811,0,0,1,0,1.812Z" transform="translate(64.051 267.392)" fill="#fff"/>
    <path id="Trazado_8847" data-name="Trazado 8847" d="M0,1.812A1.813,1.813,0,1,1,1.812,3.626,1.811,1.811,0,0,1,0,1.812Z" transform="translate(64.051 254.574)" fill="#fff"/>
    <path id="Trazado_8848" data-name="Trazado 8848" d="M0,1.812A1.813,1.813,0,1,1,1.812,3.626,1.813,1.813,0,0,1,0,1.812Z" transform="translate(64.051 241.756)" fill="#fff"/>
    <path id="Trazado_8849" data-name="Trazado 8849" d="M0,1.814A1.813,1.813,0,1,1,1.812,3.626,1.813,1.813,0,0,1,0,1.814Z" transform="translate(64.051 228.938)" fill="#fff"/>
    <path id="Trazado_8850" data-name="Trazado 8850" d="M0,1.741A1.742,1.742,0,1,1,1.741,3.482,1.741,1.741,0,0,1,0,1.741Z" transform="translate(64.123 216.193)" fill="#fff"/>
    <path id="Trazado_8851" data-name="Trazado 8851" d="M0,1.635A1.635,1.635,0,1,1,1.635,3.27,1.636,1.636,0,0,1,0,1.635Z" transform="translate(64.229 203.481)" fill="#fff"/>
    <path id="Trazado_8852" data-name="Trazado 8852" d="M0,1.563A1.564,1.564,0,1,1,1.564,3.129,1.563,1.563,0,0,1,0,1.563Z" transform="translate(64.3 190.735)" fill="#fff"/>
    <ellipse id="Elipse_330" data-name="Elipse 330" cx="1.457" cy="1.457" rx="1.457" ry="1.457" transform="translate(64.406 178.025)" fill="#fff"/>
    <path id="Trazado_8853" data-name="Trazado 8853" d="M0,1.351A1.35,1.35,0,1,1,1.35,2.7,1.35,1.35,0,0,1,0,1.351Z" transform="translate(64.514 165.313)" fill="#fff"/>
    <path id="Trazado_8854" data-name="Trazado 8854" d="M0,1.243A1.244,1.244,0,1,1,1.244,2.487,1.244,1.244,0,0,1,0,1.243Z" transform="translate(64.62 152.603)" fill="#fff"/>
    <ellipse id="Elipse_331" data-name="Elipse 331" cx="1.137" cy="1.137" rx="1.137" ry="1.137" transform="translate(64.726 139.891)" fill="#fff"/>
    <path id="Trazado_8855" data-name="Trazado 8855" d="M0,1.031a1.03,1.03,0,1,1,1.03,1.03A1.03,1.03,0,0,1,0,1.031Z" transform="translate(64.834 127.181)" fill="#fff"/>
    <path id="Trazado_8856" data-name="Trazado 8856" d="M0,.817a.817.817,0,1,1,.818.818A.818.818,0,0,1,0,.817Z" transform="translate(65.046 101.759)" fill="#fff"/>
    <path id="Trazado_8857" data-name="Trazado 8857" d="M0,.712a.71.71,0,1,1,.71.711A.71.71,0,0,1,0,.712Z" transform="translate(65.154 89.047)" fill="#fff"/>
    <path id="Trazado_8858" data-name="Trazado 8858" d="M0,.638a.64.64,0,1,1,.64.64A.639.639,0,0,1,0,.638Z" transform="translate(65.223 76.303)" fill="#fff"/>
    <path id="Trazado_8859" data-name="Trazado 8859" d="M0,.534a.533.533,0,1,1,.532.532A.533.533,0,0,1,0,.534Z" transform="translate(65.331 63.591)" fill="#fff"/>
    <path id="Trazado_8860" data-name="Trazado 8860" d="M0,.427A.426.426,0,1,1,.426.853.426.426,0,0,1,0,.427Z" transform="translate(65.437 50.88)" fill="#fff"/>
    <ellipse id="Elipse_332" data-name="Elipse 332" cx="0.32" cy="0.32" rx="0.32" ry="0.32" transform="translate(65.544 38.169)" fill="#fff"/>
    <path id="Trazado_8861" data-name="Trazado 8861" d="M0,.212a.213.213,0,0,1,.426,0A.213.213,0,1,1,0,.212Z" transform="translate(65.651 25.459)" fill="#fff"/>
    <path id="Trazado_8862" data-name="Trazado 8862" d="M0,.143A.142.142,0,0,1,.143,0a.141.141,0,1,1,0,.283A.142.142,0,0,1,0,.143Z" transform="translate(65.721 12.713)" fill="#fff"/>
    <path id="Trazado_8863" data-name="Trazado 8863" d="M0,.037A.035.035,0,0,1,.035,0,.037.037,0,0,1,.071.037.036.036,0,0,1,.035.072.034.034,0,0,1,0,.037Z" transform="translate(65.829 0)" fill="#fff"/>
    <path id="Trazado_8864" data-name="Trazado 8864" d="M0,2.2a2.2,2.2,0,1,1,2.2,2.2A2.2,2.2,0,0,1,0,2.2Z" transform="translate(50.842 677.161)" fill="#fff"/>
    <path id="Trazado_8865" data-name="Trazado 8865" d="M0,1.741A1.742,1.742,0,1,1,1.741,3.482,1.741,1.741,0,0,1,0,1.741Z" transform="translate(51.305 664.806)" fill="#fff"/>
    <path id="Trazado_8866" data-name="Trazado 8866" d="M0,1.741A1.742,1.742,0,1,1,1.741,3.483,1.741,1.741,0,0,1,0,1.741Z" transform="translate(51.305 651.988)" fill="#fff"/>
    <path id="Trazado_8867" data-name="Trazado 8867" d="M0,1.741A1.742,1.742,0,1,1,1.741,3.483,1.741,1.741,0,0,1,0,1.741Z" transform="translate(51.305 639.17)" fill="#fff"/>
    <path id="Trazado_8868" data-name="Trazado 8868" d="M0,1.743A1.742,1.742,0,1,1,1.741,3.483,1.742,1.742,0,0,1,0,1.743Z" transform="translate(51.305 626.352)" fill="#fff"/>
    <path id="Trazado_8869" data-name="Trazado 8869" d="M0,1.743A1.742,1.742,0,1,1,1.741,3.484,1.743,1.743,0,0,1,0,1.743Z" transform="translate(51.305 613.534)" fill="#fff"/>
    <path id="Trazado_8870" data-name="Trazado 8870" d="M0,1.741A1.742,1.742,0,1,1,1.741,3.484,1.741,1.741,0,0,1,0,1.741Z" transform="translate(51.305 600.718)" fill="#fff"/>
    <path id="Trazado_8871" data-name="Trazado 8871" d="M0,1.741A1.742,1.742,0,1,1,1.741,3.483,1.741,1.741,0,0,1,0,1.741Z" transform="translate(51.305 587.9)" fill="#fff"/>
    <path id="Trazado_8872" data-name="Trazado 8872" d="M0,1.743A1.742,1.742,0,1,1,1.741,3.483,1.741,1.741,0,0,1,0,1.743Z" transform="translate(51.305 575.083)" fill="#fff"/>
    <path id="Trazado_8873" data-name="Trazado 8873" d="M0,1.743A1.742,1.742,0,1,1,1.741,3.484,1.742,1.742,0,0,1,0,1.743Z" transform="translate(51.305 562.264)" fill="#fff"/>
    <path id="Trazado_8874" data-name="Trazado 8874" d="M0,1.777A1.777,1.777,0,1,1,1.776,3.555,1.777,1.777,0,0,1,0,1.777Z" transform="translate(51.27 549.412)" fill="#fff"/>
    <path id="Trazado_8875" data-name="Trazado 8875" d="M0,1.777A1.777,1.777,0,1,1,1.776,3.555,1.777,1.777,0,0,1,0,1.777Z" transform="translate(51.27 536.594)" fill="#fff"/>
    <path id="Trazado_8876" data-name="Trazado 8876" d="M0,1.776A1.777,1.777,0,1,1,1.776,3.553,1.777,1.777,0,0,1,0,1.776Z" transform="translate(51.27 523.778)" fill="#fff"/>
    <path id="Trazado_8877" data-name="Trazado 8877" d="M0,1.777A1.777,1.777,0,1,1,1.776,3.555,1.777,1.777,0,0,1,0,1.777Z" transform="translate(51.27 510.96)" fill="#fff"/>
    <path id="Trazado_8878" data-name="Trazado 8878" d="M0,1.777A1.777,1.777,0,1,1,1.776,3.555,1.777,1.777,0,0,1,0,1.777Z" transform="translate(51.27 498.142)" fill="#fff"/>
    <path id="Trazado_8879" data-name="Trazado 8879" d="M0,1.777A1.777,1.777,0,1,1,1.776,3.555,1.777,1.777,0,0,1,0,1.777Z" transform="translate(51.27 485.324)" fill="#fff"/>
    <path id="Trazado_8880" data-name="Trazado 8880" d="M0,1.776A1.777,1.777,0,1,1,1.776,3.553,1.775,1.775,0,0,1,0,1.776Z" transform="translate(51.27 472.508)" fill="#fff"/>
    <path id="Trazado_8881" data-name="Trazado 8881" d="M0,1.778A1.777,1.777,0,1,1,1.776,3.553,1.777,1.777,0,0,1,0,1.778Z" transform="translate(51.27 459.69)" fill="#fff"/>
    <path id="Trazado_8882" data-name="Trazado 8882" d="M0,1.777A1.777,1.777,0,1,1,1.776,3.555,1.777,1.777,0,0,1,0,1.777Z" transform="translate(51.27 446.872)" fill="#fff"/>
    <path id="Trazado_8883" data-name="Trazado 8883" d="M0,1.777A1.777,1.777,0,1,1,1.776,3.555,1.777,1.777,0,0,1,0,1.777Z" transform="translate(51.27 434.054)" fill="#fff"/>
    <path id="Trazado_8884" data-name="Trazado 8884" d="M0,1.778A1.777,1.777,0,1,1,1.776,3.555,1.777,1.777,0,0,1,0,1.778Z" transform="translate(51.27 421.236)" fill="#fff"/>
    <path id="Trazado_8885" data-name="Trazado 8885" d="M0,1.777A1.777,1.777,0,1,1,1.776,3.553,1.777,1.777,0,0,1,0,1.777Z" transform="translate(51.27 408.42)" fill="#fff"/>
    <path id="Trazado_8886" data-name="Trazado 8886" d="M0,1.777A1.777,1.777,0,1,1,1.776,3.555,1.777,1.777,0,0,1,0,1.777Z" transform="translate(51.27 395.602)" fill="#fff"/>
    <path id="Trazado_8887" data-name="Trazado 8887" d="M0,1.777A1.777,1.777,0,1,1,1.776,3.554,1.777,1.777,0,0,1,0,1.777Z" transform="translate(51.27 382.785)" fill="#fff"/>
    <path id="Trazado_8888" data-name="Trazado 8888" d="M0,1.777A1.777,1.777,0,1,1,1.776,3.555,1.777,1.777,0,0,1,0,1.777Z" transform="translate(51.27 369.966)" fill="#fff"/>
    <path id="Trazado_8889" data-name="Trazado 8889" d="M0,1.776A1.777,1.777,0,1,1,1.776,3.553,1.776,1.776,0,0,1,0,1.776Z" transform="translate(51.27 357.15)" fill="#fff"/>
    <path id="Trazado_8890" data-name="Trazado 8890" d="M0,1.778A1.777,1.777,0,1,1,1.776,3.555,1.777,1.777,0,0,1,0,1.778Z" transform="translate(51.27 344.332)" fill="#fff"/>
    <path id="Trazado_8891" data-name="Trazado 8891" d="M0,1.812A1.813,1.813,0,1,1,1.812,3.625,1.812,1.812,0,0,1,0,1.812Z" transform="translate(51.233 331.48)" fill="#fff"/>
    <path id="Trazado_8892" data-name="Trazado 8892" d="M0,1.812A1.813,1.813,0,1,1,1.812,3.625,1.813,1.813,0,0,1,0,1.812Z" transform="translate(51.233 318.662)" fill="#fff"/>
    <path id="Trazado_8893" data-name="Trazado 8893" d="M0,1.812A1.813,1.813,0,1,1,1.812,3.626,1.813,1.813,0,0,1,0,1.812Z" transform="translate(51.233 305.844)" fill="#fff"/>
    <path id="Trazado_8894" data-name="Trazado 8894" d="M0,1.813A1.813,1.813,0,1,1,1.812,3.626,1.814,1.814,0,0,1,0,1.813Z" transform="translate(51.233 293.026)" fill="#fff"/>
    <path id="Trazado_8895" data-name="Trazado 8895" d="M0,1.812A1.813,1.813,0,1,1,1.812,3.624,1.812,1.812,0,0,1,0,1.812Z" transform="translate(51.233 280.21)" fill="#fff"/>
    <path id="Trazado_8896" data-name="Trazado 8896" d="M0,1.812A1.813,1.813,0,1,1,1.812,3.624,1.812,1.812,0,0,1,0,1.812Z" transform="translate(51.233 267.392)" fill="#fff"/>
    <path id="Trazado_8897" data-name="Trazado 8897" d="M0,1.812A1.813,1.813,0,1,1,1.812,3.626,1.812,1.812,0,0,1,0,1.812Z" transform="translate(51.233 254.574)" fill="#fff"/>
    <path id="Trazado_8898" data-name="Trazado 8898" d="M0,1.812A1.813,1.813,0,1,1,1.812,3.626,1.814,1.814,0,0,1,0,1.812Z" transform="translate(51.233 241.756)" fill="#fff"/>
    <path id="Trazado_8899" data-name="Trazado 8899" d="M0,1.814A1.813,1.813,0,1,1,1.812,3.626,1.814,1.814,0,0,1,0,1.814Z" transform="translate(51.233 228.938)" fill="#fff"/>
    <path id="Trazado_8900" data-name="Trazado 8900" d="M0,1.741A1.742,1.742,0,1,1,1.741,3.482,1.741,1.741,0,0,1,0,1.741Z" transform="translate(51.305 216.193)" fill="#fff"/>
    <path id="Trazado_8901" data-name="Trazado 8901" d="M0,1.635A1.636,1.636,0,1,1,1.635,3.27,1.636,1.636,0,0,1,0,1.635Z" transform="translate(51.411 203.481)" fill="#fff"/>
    <path id="Trazado_8902" data-name="Trazado 8902" d="M0,1.563A1.564,1.564,0,1,1,1.563,3.129,1.564,1.564,0,0,1,0,1.563Z" transform="translate(51.482 190.735)" fill="#fff"/>
    <path id="Trazado_8903" data-name="Trazado 8903" d="M0,1.458A1.457,1.457,0,1,1,1.456,2.915,1.456,1.456,0,0,1,0,1.458Z" transform="translate(51.59 178.025)" fill="#fff"/>
    <path id="Trazado_8904" data-name="Trazado 8904" d="M0,1.351A1.35,1.35,0,1,1,1.349,2.7,1.351,1.351,0,0,1,0,1.351Z" transform="translate(51.696 165.313)" fill="#fff"/>
    <path id="Trazado_8905" data-name="Trazado 8905" d="M0,1.243A1.244,1.244,0,1,1,1.244,2.487,1.244,1.244,0,0,1,0,1.243Z" transform="translate(51.802 152.603)" fill="#fff"/>
    <path id="Trazado_9075" data-name="Trazado 9075" d="M0,1.243A1.244,1.244,0,1,1,1.244,2.487,1.244,1.244,0,0,1,0,1.243Z" transform="translate(38.802 152.603)" fill="#fff"/>
    <ellipse id="Elipse_333" data-name="Elipse 333" cx="1.137" cy="1.137" rx="1.137" ry="1.137" transform="translate(51.908 139.891)" fill="#fff"/>
    <path id="Trazado_8906" data-name="Trazado 8906" d="M0,1.031a1.03,1.03,0,1,1,1.03,1.03A1.03,1.03,0,0,1,0,1.031Z" transform="translate(52.016 127.181)" fill="#fff"/>
    <path id="Trazado_8907" data-name="Trazado 8907" d="M0,.925a.924.924,0,1,1,.923.923A.925.925,0,0,1,0,.925Z" transform="translate(52.122 114.469)" fill="#fff"/>
    <path id="Trazado_8908" data-name="Trazado 8908" d="M0,.817a.818.818,0,1,1,.818.818A.818.818,0,0,1,0,.817Z" transform="translate(52.228 101.759)" fill="#fff"/>
    <path id="Trazado_8909" data-name="Trazado 8909" d="M0,.712a.71.71,0,1,1,.71.711A.711.711,0,0,1,0,.712Z" transform="translate(52.336 89.047)" fill="#fff"/>
    <path id="Trazado_8910" data-name="Trazado 8910" d="M0,.638a.639.639,0,1,1,.638.64A.638.638,0,0,1,0,.638Z" transform="translate(52.407 76.303)" fill="#fff"/>
    <path id="Trazado_8911" data-name="Trazado 8911" d="M0,.534a.533.533,0,1,1,.532.532A.533.533,0,0,1,0,.534Z" transform="translate(52.513 63.591)" fill="#fff"/>
    <path id="Trazado_8912" data-name="Trazado 8912" d="M0,.427A.427.427,0,1,1,.426.853.426.426,0,0,1,0,.427Z" transform="translate(52.62 50.88)" fill="#fff"/>
    <path id="Trazado_8913" data-name="Trazado 8913" d="M0,.32A.319.319,0,1,1,.318.64.319.319,0,0,1,0,.32Z" transform="translate(52.727 38.169)" fill="#fff"/>
    <path id="Trazado_8914" data-name="Trazado 8914" d="M0,.212A.211.211,0,0,1,.212,0,.213.213,0,1,1,0,.212Z" transform="translate(52.833 25.459)" fill="#fff"/>
    <path id="Trazado_8915" data-name="Trazado 8915" d="M0,.143A.141.141,0,0,1,.141,0a.141.141,0,1,1,0,.283A.14.14,0,0,1,0,.143Z" transform="translate(52.905 12.713)" fill="#fff"/>
    <path id="Trazado_8916" data-name="Trazado 8916" d="M0,.037A.037.037,0,0,1,.035,0,.037.037,0,0,1,.071.037.035.035,0,0,1,.035.072.035.035,0,0,1,0,.037Z" transform="translate(53.011 0)" fill="#fff"/>
    <ellipse id="Elipse_334" data-name="Elipse 334" cx="2.203" cy="2.203" rx="2.203" ry="2.203" transform="translate(38.026 677.161)" fill="#fff"/>
    <path id="Trazado_8917" data-name="Trazado 8917" d="M0,1.741A1.742,1.742,0,1,1,1.742,3.482,1.742,1.742,0,0,1,0,1.741Z" transform="translate(38.487 664.806)" fill="#fff"/>
    <path id="Trazado_8918" data-name="Trazado 8918" d="M0,1.741A1.742,1.742,0,1,1,1.742,3.483,1.742,1.742,0,0,1,0,1.741Z" transform="translate(38.487 651.988)" fill="#fff"/>
    <path id="Trazado_8919" data-name="Trazado 8919" d="M0,1.741A1.742,1.742,0,1,1,1.742,3.483,1.742,1.742,0,0,1,0,1.741Z" transform="translate(38.487 639.17)" fill="#fff"/>
    <path id="Trazado_8920" data-name="Trazado 8920" d="M0,1.743A1.742,1.742,0,1,1,1.742,3.483,1.744,1.744,0,0,1,0,1.743Z" transform="translate(38.487 626.352)" fill="#fff"/>
    <path id="Trazado_8921" data-name="Trazado 8921" d="M0,1.743A1.742,1.742,0,1,1,1.742,3.484,1.744,1.744,0,0,1,0,1.743Z" transform="translate(38.487 613.534)" fill="#fff"/>
    <path id="Trazado_8922" data-name="Trazado 8922" d="M0,1.741A1.742,1.742,0,1,1,1.742,3.484,1.742,1.742,0,0,1,0,1.741Z" transform="translate(38.487 600.718)" fill="#fff"/>
    <path id="Trazado_8923" data-name="Trazado 8923" d="M0,1.741A1.742,1.742,0,1,1,1.742,3.483,1.742,1.742,0,0,1,0,1.741Z" transform="translate(38.487 587.9)" fill="#fff"/>
    <path id="Trazado_8924" data-name="Trazado 8924" d="M0,1.743A1.742,1.742,0,1,1,1.742,3.483,1.742,1.742,0,0,1,0,1.743Z" transform="translate(38.487 575.083)" fill="#fff"/>
    <path id="Trazado_8925" data-name="Trazado 8925" d="M0,1.743A1.742,1.742,0,1,1,1.742,3.484,1.744,1.744,0,0,1,0,1.743Z" transform="translate(38.487 562.264)" fill="#fff"/>
    <ellipse id="Elipse_335" data-name="Elipse 335" cx="1.777" cy="1.777" rx="1.777" ry="1.777" transform="translate(38.452 549.412)" fill="#fff"/>
    <ellipse id="Elipse_336" data-name="Elipse 336" cx="1.777" cy="1.777" rx="1.777" ry="1.777" transform="translate(38.452 536.594)" fill="#fff"/>
    <path id="Trazado_8926" data-name="Trazado 8926" d="M0,1.776A1.777,1.777,0,1,1,1.777,3.553,1.777,1.777,0,0,1,0,1.776Z" transform="translate(38.452 523.778)" fill="#fff"/>
    <ellipse id="Elipse_337" data-name="Elipse 337" cx="1.777" cy="1.777" rx="1.777" ry="1.777" transform="translate(38.452 510.96)" fill="#fff"/>
    <ellipse id="Elipse_338" data-name="Elipse 338" cx="1.777" cy="1.777" rx="1.777" ry="1.777" transform="translate(38.452 498.142)" fill="#fff"/>
    <ellipse id="Elipse_339" data-name="Elipse 339" cx="1.777" cy="1.777" rx="1.777" ry="1.777" transform="translate(38.452 485.324)" fill="#fff"/>
    <path id="Trazado_8927" data-name="Trazado 8927" d="M0,1.776A1.777,1.777,0,1,1,1.777,3.553,1.776,1.776,0,0,1,0,1.776Z" transform="translate(38.452 472.508)" fill="#fff"/>
    <path id="Trazado_8928" data-name="Trazado 8928" d="M0,1.778A1.777,1.777,0,1,1,1.777,3.553,1.777,1.777,0,0,1,0,1.778Z" transform="translate(38.452 459.69)" fill="#fff"/>
    <ellipse id="Elipse_340" data-name="Elipse 340" cx="1.777" cy="1.777" rx="1.777" ry="1.777" transform="translate(38.452 446.872)" fill="#fff"/>
    <path id="Trazado_8929" data-name="Trazado 8929" d="M0,1.777A1.777,1.777,0,1,1,1.777,3.555,1.777,1.777,0,0,1,0,1.777Z" transform="translate(38.452 434.054)" fill="#fff"/>
    <ellipse id="Elipse_341" data-name="Elipse 341" cx="1.777" cy="1.777" rx="1.777" ry="1.777" transform="translate(38.452 421.236)" fill="#fff"/>
    <path id="Trazado_8930" data-name="Trazado 8930" d="M0,1.777A1.777,1.777,0,1,1,1.777,3.553,1.777,1.777,0,0,1,0,1.777Z" transform="translate(38.452 408.42)" fill="#fff"/>
    <path id="Trazado_8931" data-name="Trazado 8931" d="M0,1.777A1.777,1.777,0,1,1,1.777,3.555,1.777,1.777,0,0,1,0,1.777Z" transform="translate(38.452 395.602)" fill="#fff"/>
    <ellipse id="Elipse_342" data-name="Elipse 342" cx="1.777" cy="1.777" rx="1.777" ry="1.777" transform="translate(38.452 382.784)" fill="#fff"/>
    <ellipse id="Elipse_343" data-name="Elipse 343" cx="1.777" cy="1.777" rx="1.777" ry="1.777" transform="translate(38.452 369.967)" fill="#fff"/>
    <path id="Trazado_8932" data-name="Trazado 8932" d="M0,1.776A1.777,1.777,0,1,1,1.777,3.553,1.776,1.776,0,0,1,0,1.776Z" transform="translate(38.452 357.15)" fill="#fff"/>
    <ellipse id="Elipse_344" data-name="Elipse 344" cx="1.777" cy="1.777" rx="1.777" ry="1.777" transform="translate(38.452 344.332)" fill="#fff"/>
    <path id="Trazado_8933" data-name="Trazado 8933" d="M0,1.812A1.813,1.813,0,1,1,1.814,3.625,1.813,1.813,0,0,1,0,1.812Z" transform="translate(38.416 331.48)" fill="#fff"/>
    <path id="Trazado_8934" data-name="Trazado 8934" d="M0,1.812A1.813,1.813,0,1,1,1.814,3.625,1.813,1.813,0,0,1,0,1.812Z" transform="translate(38.416 318.662)" fill="#fff"/>
    <path id="Trazado_8935" data-name="Trazado 8935" d="M0,1.812A1.813,1.813,0,1,1,1.814,3.626,1.814,1.814,0,0,1,0,1.812Z" transform="translate(38.416 305.844)" fill="#fff"/>
    <path id="Trazado_8936" data-name="Trazado 8936" d="M0,1.813A1.813,1.813,0,1,1,1.814,3.626,1.814,1.814,0,0,1,0,1.813Z" transform="translate(38.416 293.026)" fill="#fff"/>
    <path id="Trazado_8937" data-name="Trazado 8937" d="M0,1.812A1.813,1.813,0,1,1,1.814,3.624,1.813,1.813,0,0,1,0,1.812Z" transform="translate(38.416 280.21)" fill="#fff"/>
    <path id="Trazado_8938" data-name="Trazado 8938" d="M0,1.812A1.813,1.813,0,1,1,1.814,3.624,1.813,1.813,0,0,1,0,1.812Z" transform="translate(38.416 267.392)" fill="#fff"/>
    <path id="Trazado_8939" data-name="Trazado 8939" d="M0,1.812A1.813,1.813,0,1,1,1.814,3.626,1.813,1.813,0,0,1,0,1.812Z" transform="translate(38.416 254.574)" fill="#fff"/>
    <path id="Trazado_8940" data-name="Trazado 8940" d="M0,1.812A1.813,1.813,0,1,1,1.814,3.626,1.814,1.814,0,0,1,0,1.812Z" transform="translate(38.416 241.756)" fill="#fff"/>
    <path id="Trazado_8941" data-name="Trazado 8941" d="M0,1.814A1.813,1.813,0,1,1,1.814,3.626,1.814,1.814,0,0,1,0,1.814Z" transform="translate(38.416 228.938)" fill="#fff"/>
    <path id="Trazado_8942" data-name="Trazado 8942" d="M0,1.741A1.742,1.742,0,1,1,1.742,3.482,1.742,1.742,0,0,1,0,1.741Z" transform="translate(38.487 216.193)" fill="#fff"/>
    <path id="Trazado_8943" data-name="Trazado 8943" d="M0,1.635A1.635,1.635,0,1,1,1.635,3.27,1.635,1.635,0,0,1,0,1.635Z" transform="translate(38.595 203.481)" fill="#fff"/>
    <path id="Trazado_8944" data-name="Trazado 8944" d="M0,1.563A1.564,1.564,0,1,1,1.565,3.129,1.565,1.565,0,0,1,0,1.563Z" transform="translate(38.664 190.735)" fill="#fff"/>
    <ellipse id="Elipse_345" data-name="Elipse 345" cx="1.457" cy="1.457" rx="1.457" ry="1.457" transform="translate(38.772 178.025)" fill="#fff"/>
    <path id="Trazado_8945" data-name="Trazado 8945" d="M0,1.351A1.35,1.35,0,1,1,1.351,2.7,1.352,1.352,0,0,1,0,1.351Z" transform="translate(38.878 165.313)" fill="#fff"/>
    <ellipse id="Elipse_346" data-name="Elipse 346" cx="1.137" cy="1.137" rx="1.137" ry="1.137" transform="translate(39.092 139.891)" fill="#fff"/>
    <path id="Trazado_8946" data-name="Trazado 8946" d="M0,1.031a1.03,1.03,0,1,1,1.031,1.03A1.03,1.03,0,0,1,0,1.031Z" transform="translate(39.198 127.181)" fill="#fff"/>
    <path id="Trazado_8947" data-name="Trazado 8947" d="M0,.925a.924.924,0,1,1,.925.923A.925.925,0,0,1,0,.925Z" transform="translate(39.304 114.469)" fill="#fff"/>
    <path id="Trazado_8948" data-name="Trazado 8948" d="M0,.817a.817.817,0,1,1,.817.818A.817.817,0,0,1,0,.817Z" transform="translate(39.412 101.759)" fill="#fff"/>
    <path id="Trazado_8949" data-name="Trazado 8949" d="M0,.712a.711.711,0,1,1,.711.711A.712.712,0,0,1,0,.712Z" transform="translate(39.518 89.047)" fill="#fff"/>
    <path id="Trazado_8950" data-name="Trazado 8950" d="M0,.638a.64.64,0,1,1,.64.64A.639.639,0,0,1,0,.638Z" transform="translate(39.589 76.303)" fill="#fff"/>
    <path id="Trazado_8951" data-name="Trazado 8951" d="M0,.534a.533.533,0,1,1,.534.532A.533.533,0,0,1,0,.534Z" transform="translate(39.695 63.591)" fill="#fff"/>
    <path id="Trazado_8952" data-name="Trazado 8952" d="M0,.427A.427.427,0,1,1,.428.853.428.428,0,0,1,0,.427Z" transform="translate(39.802 50.88)" fill="#fff"/>
    <ellipse id="Elipse_347" data-name="Elipse 347" cx="0.32" cy="0.32" rx="0.32" ry="0.32" transform="translate(39.909 38.169)" fill="#fff"/>
    <path id="Trazado_8953" data-name="Trazado 8953" d="M0,.212A.213.213,0,1,1,.214.426.213.213,0,0,1,0,.212Z" transform="translate(40.015 25.459)" fill="#fff"/>
    <path id="Trazado_8954" data-name="Trazado 8954" d="M0,.143A.141.141,0,0,1,.143,0,.141.141,0,0,1,.284.143a.14.14,0,0,1-.141.14A.141.141,0,0,1,0,.143Z" transform="translate(40.087 12.713)" fill="#fff"/>
    <path id="Trazado_8955" data-name="Trazado 8955" d="M0,.037A.037.037,0,0,1,.036,0,.035.035,0,0,1,.071.037.034.034,0,0,1,.036.072.036.036,0,0,1,0,.037Z" transform="translate(40.193 0)" fill="#fff"/>
    <ellipse id="Elipse_348" data-name="Elipse 348" cx="2.203" cy="2.203" rx="2.203" ry="2.203" transform="translate(25.208 677.161)" fill="#fff"/>
    <ellipse id="Elipse_349" data-name="Elipse 349" cx="1.741" cy="1.741" rx="1.741" ry="1.741" transform="translate(25.671 664.806)" fill="#fff"/>
    <path id="Trazado_8956" data-name="Trazado 8956" d="M0,1.741A1.741,1.741,0,1,1,1.741,3.483,1.741,1.741,0,0,1,0,1.741Z" transform="translate(25.671 651.988)" fill="#fff"/>
    <path id="Trazado_8957" data-name="Trazado 8957" d="M0,1.741A1.741,1.741,0,1,1,1.741,3.483,1.741,1.741,0,0,1,0,1.741Z" transform="translate(25.671 639.17)" fill="#fff"/>
    <path id="Trazado_8958" data-name="Trazado 8958" d="M0,1.743A1.741,1.741,0,1,1,1.741,3.483,1.742,1.742,0,0,1,0,1.743Z" transform="translate(25.671 626.352)" fill="#fff"/>
    <path id="Trazado_8959" data-name="Trazado 8959" d="M0,1.743A1.741,1.741,0,1,1,1.741,3.484,1.742,1.742,0,0,1,0,1.743Z" transform="translate(25.671 613.534)" fill="#fff"/>
    <path id="Trazado_8960" data-name="Trazado 8960" d="M0,1.741A1.741,1.741,0,1,1,1.741,3.484,1.741,1.741,0,0,1,0,1.741Z" transform="translate(25.671 600.718)" fill="#fff"/>
    <path id="Trazado_8961" data-name="Trazado 8961" d="M0,1.741A1.741,1.741,0,1,1,1.741,3.483,1.741,1.741,0,0,1,0,1.741Z" transform="translate(25.671 587.9)" fill="#fff"/>
    <path id="Trazado_8962" data-name="Trazado 8962" d="M0,1.743A1.741,1.741,0,1,1,1.741,3.483,1.741,1.741,0,0,1,0,1.743Z" transform="translate(25.671 575.083)" fill="#fff"/>
    <path id="Trazado_8963" data-name="Trazado 8963" d="M0,1.743A1.741,1.741,0,1,1,1.741,3.484,1.742,1.742,0,0,1,0,1.743Z" transform="translate(25.671 562.264)" fill="#fff"/>
    <ellipse id="Elipse_350" data-name="Elipse 350" cx="1.777" cy="1.777" rx="1.777" ry="1.777" transform="translate(25.634 549.412)" fill="#fff"/>
    <ellipse id="Elipse_351" data-name="Elipse 351" cx="1.777" cy="1.777" rx="1.777" ry="1.777" transform="translate(25.634 536.594)" fill="#fff"/>
    <path id="Trazado_8964" data-name="Trazado 8964" d="M0,1.776A1.777,1.777,0,1,1,1.777,3.553,1.777,1.777,0,0,1,0,1.776Z" transform="translate(25.634 523.778)" fill="#fff"/>
    <ellipse id="Elipse_352" data-name="Elipse 352" cx="1.777" cy="1.777" rx="1.777" ry="1.777" transform="translate(25.634 510.96)" fill="#fff"/>
    <ellipse id="Elipse_353" data-name="Elipse 353" cx="1.777" cy="1.777" rx="1.777" ry="1.777" transform="translate(25.634 498.142)" fill="#fff"/>
    <ellipse id="Elipse_354" data-name="Elipse 354" cx="1.777" cy="1.777" rx="1.777" ry="1.777" transform="translate(25.634 485.324)" fill="#fff"/>
    <path id="Trazado_8965" data-name="Trazado 8965" d="M0,1.776A1.777,1.777,0,1,1,1.777,3.553,1.776,1.776,0,0,1,0,1.776Z" transform="translate(25.634 472.508)" fill="#fff"/>
    <path id="Trazado_8966" data-name="Trazado 8966" d="M0,1.778A1.777,1.777,0,1,1,1.777,3.553,1.778,1.778,0,0,1,0,1.778Z" transform="translate(25.634 459.69)" fill="#fff"/>
    <ellipse id="Elipse_355" data-name="Elipse 355" cx="1.777" cy="1.777" rx="1.777" ry="1.777" transform="translate(25.634 446.872)" fill="#fff"/>
    <path id="Trazado_8967" data-name="Trazado 8967" d="M0,1.777A1.777,1.777,0,1,1,1.777,3.555,1.778,1.778,0,0,1,0,1.777Z" transform="translate(25.634 434.054)" fill="#fff"/>
    <ellipse id="Elipse_356" data-name="Elipse 356" cx="1.777" cy="1.777" rx="1.777" ry="1.777" transform="translate(25.634 421.236)" fill="#fff"/>
    <path id="Trazado_8968" data-name="Trazado 8968" d="M0,1.777A1.777,1.777,0,1,1,1.777,3.553,1.778,1.778,0,0,1,0,1.777Z" transform="translate(25.634 408.42)" fill="#fff"/>
    <path id="Trazado_8969" data-name="Trazado 8969" d="M0,1.777A1.777,1.777,0,1,1,1.777,3.555,1.778,1.778,0,0,1,0,1.777Z" transform="translate(25.634 395.602)" fill="#fff"/>
    <ellipse id="Elipse_357" data-name="Elipse 357" cx="1.777" cy="1.777" rx="1.777" ry="1.777" transform="translate(25.634 382.784)" fill="#fff"/>
    <ellipse id="Elipse_358" data-name="Elipse 358" cx="1.777" cy="1.777" rx="1.777" ry="1.777" transform="translate(25.634 369.967)" fill="#fff"/>
    <path id="Trazado_8970" data-name="Trazado 8970" d="M0,1.776A1.777,1.777,0,1,1,1.777,3.553,1.776,1.776,0,0,1,0,1.776Z" transform="translate(25.634 357.15)" fill="#fff"/>
    <ellipse id="Elipse_359" data-name="Elipse 359" cx="1.777" cy="1.777" rx="1.777" ry="1.777" transform="translate(25.634 344.332)" fill="#fff"/>
    <ellipse id="Elipse_360" data-name="Elipse 360" cx="1.812" cy="1.812" rx="1.812" ry="1.812" transform="translate(25.599 331.48)" fill="#fff"/>
    <path id="Trazado_8971" data-name="Trazado 8971" d="M0,1.812A1.812,1.812,0,1,1,1.812,3.625,1.812,1.812,0,0,1,0,1.812Z" transform="translate(25.599 318.662)" fill="#fff"/>
    <path id="Trazado_8972" data-name="Trazado 8972" d="M0,1.812A1.812,1.812,0,1,1,1.812,3.626,1.812,1.812,0,0,1,0,1.812Z" transform="translate(25.599 305.844)" fill="#fff"/>
    <path id="Trazado_8973" data-name="Trazado 8973" d="M0,1.813A1.812,1.812,0,1,1,1.812,3.626,1.813,1.813,0,0,1,0,1.813Z" transform="translate(25.599 293.026)" fill="#fff"/>
    <ellipse id="Elipse_361" data-name="Elipse 361" cx="1.812" cy="1.812" rx="1.812" ry="1.812" transform="translate(25.599 280.21)" fill="#fff"/>
    <path id="Trazado_8974" data-name="Trazado 8974" d="M0,1.812A1.812,1.812,0,1,1,1.812,3.624,1.811,1.811,0,0,1,0,1.812Z" transform="translate(25.599 267.392)" fill="#fff"/>
    <path id="Trazado_8975" data-name="Trazado 8975" d="M0,1.812A1.812,1.812,0,1,1,1.812,3.626,1.811,1.811,0,0,1,0,1.812Z" transform="translate(25.599 254.574)" fill="#fff"/>
    <path id="Trazado_8976" data-name="Trazado 8976" d="M0,1.812A1.812,1.812,0,1,1,1.812,3.626,1.813,1.813,0,0,1,0,1.812Z" transform="translate(25.599 241.756)" fill="#fff"/>
    <path id="Trazado_8977" data-name="Trazado 8977" d="M0,1.814A1.812,1.812,0,1,1,1.812,3.626,1.813,1.813,0,0,1,0,1.814Z" transform="translate(25.599 228.938)" fill="#fff"/>
    <ellipse id="Elipse_362" data-name="Elipse 362" cx="1.741" cy="1.741" rx="1.741" ry="1.741" transform="translate(25.671 216.193)" fill="#fff"/>
    <path id="Trazado_8978" data-name="Trazado 8978" d="M0,1.635A1.635,1.635,0,1,1,1.635,3.27,1.635,1.635,0,0,1,0,1.635Z" transform="translate(25.777 203.481)" fill="#fff"/>
    <path id="Trazado_8979" data-name="Trazado 8979" d="M0,1.563A1.564,1.564,0,1,1,1.563,3.129,1.563,1.563,0,0,1,0,1.563Z" transform="translate(25.848 190.735)" fill="#fff"/>
    <ellipse id="Elipse_363" data-name="Elipse 363" cx="1.457" cy="1.457" rx="1.457" ry="1.457" transform="translate(25.954 178.025)" fill="#fff"/>
    <path id="Trazado_8980" data-name="Trazado 8980" d="M0,1.351A1.351,1.351,0,1,1,1.351,2.7,1.351,1.351,0,0,1,0,1.351Z" transform="translate(26.06 165.313)" fill="#fff"/>
    <ellipse id="Elipse_364" data-name="Elipse 364" cx="1.243" cy="1.243" rx="1.243" ry="1.243" transform="translate(26.168 152.603)" fill="#fff"/>
    <ellipse id="Elipse_365" data-name="Elipse 365" cx="1.137" cy="1.137" rx="1.137" ry="1.137" transform="translate(26.274 139.891)" fill="#fff"/>
    <path id="Trazado_8981" data-name="Trazado 8981" d="M0,1.031a1.031,1.031,0,1,1,1.031,1.03A1.031,1.031,0,0,1,0,1.031Z" transform="translate(26.38 127.181)" fill="#fff"/>
    <path id="Trazado_8982" data-name="Trazado 8982" d="M0,.925a.923.923,0,1,1,.923.923A.924.924,0,0,1,0,.925Z" transform="translate(26.488 114.469)" fill="#fff"/>
    <path id="Trazado_8983" data-name="Trazado 8983" d="M0,.817a.817.817,0,1,1,.817.818A.818.818,0,0,1,0,.817Z" transform="translate(26.594 101.759)" fill="#fff"/>
    <path id="Trazado_8984" data-name="Trazado 8984" d="M0,.712a.711.711,0,1,1,.711.711A.712.712,0,0,1,0,.712Z" transform="translate(26.7 89.047)" fill="#fff"/>
    <path id="Trazado_8985" data-name="Trazado 8985" d="M0,.638a.64.64,0,1,1,.64.64A.639.639,0,0,1,0,.638Z" transform="translate(26.772 76.303)" fill="#fff"/>
    <path id="Trazado_8986" data-name="Trazado 8986" d="M0,.534a.533.533,0,1,1,.534.532A.533.533,0,0,1,0,.534Z" transform="translate(26.878 63.591)" fill="#fff"/>
    <path id="Trazado_8987" data-name="Trazado 8987" d="M0,.427A.426.426,0,1,1,.426.853.426.426,0,0,1,0,.427Z" transform="translate(26.985 50.88)" fill="#fff"/>
    <ellipse id="Elipse_366" data-name="Elipse 366" cx="0.32" cy="0.32" rx="0.32" ry="0.32" transform="translate(27.091 38.169)" fill="#fff"/>
    <path id="Trazado_8988" data-name="Trazado 8988" d="M0,.212A.213.213,0,0,1,.214,0,.213.213,0,1,1,0,.212Z" transform="translate(27.198 25.459)" fill="#fff"/>
    <path id="Trazado_8989" data-name="Trazado 8989" d="M0,.143a.143.143,0,1,1,.143.14A.142.142,0,0,1,0,.143Z" transform="translate(27.269 12.713)" fill="#fff"/>
    <path id="Trazado_8990" data-name="Trazado 8990" d="M0,.037A.037.037,0,0,1,.036,0,.035.035,0,0,1,.071.037.034.034,0,0,1,.036.072.036.036,0,0,1,0,.037Z" transform="translate(27.375 0)" fill="#fff"/>
    <ellipse id="Elipse_367" data-name="Elipse 367" cx="2.203" cy="2.203" rx="2.203" ry="2.203" transform="translate(12.39 677.161)" fill="#fff"/>
    <path id="Trazado_8991" data-name="Trazado 8991" d="M0,1.741A1.742,1.742,0,1,1,1.741,3.482,1.741,1.741,0,0,1,0,1.741Z" transform="translate(12.853 664.806)" fill="#fff"/>
    <path id="Trazado_8992" data-name="Trazado 8992" d="M0,1.741A1.742,1.742,0,1,1,1.741,3.483,1.741,1.741,0,0,1,0,1.741Z" transform="translate(12.853 651.988)" fill="#fff"/>
    <path id="Trazado_8993" data-name="Trazado 8993" d="M0,1.741A1.742,1.742,0,1,1,1.741,3.483,1.741,1.741,0,0,1,0,1.741Z" transform="translate(12.853 639.17)" fill="#fff"/>
    <path id="Trazado_8994" data-name="Trazado 8994" d="M0,1.743A1.742,1.742,0,1,1,1.741,3.483,1.742,1.742,0,0,1,0,1.743Z" transform="translate(12.853 626.352)" fill="#fff"/>
    <path id="Trazado_8995" data-name="Trazado 8995" d="M0,1.743A1.742,1.742,0,1,1,1.741,3.484,1.742,1.742,0,0,1,0,1.743Z" transform="translate(12.853 613.534)" fill="#fff"/>
    <path id="Trazado_8996" data-name="Trazado 8996" d="M0,1.741A1.742,1.742,0,1,1,1.741,3.484,1.741,1.741,0,0,1,0,1.741Z" transform="translate(12.853 600.718)" fill="#fff"/>
    <path id="Trazado_8997" data-name="Trazado 8997" d="M0,1.741A1.742,1.742,0,1,1,1.741,3.483,1.741,1.741,0,0,1,0,1.741Z" transform="translate(12.853 587.9)" fill="#fff"/>
    <path id="Trazado_8998" data-name="Trazado 8998" d="M0,1.743A1.742,1.742,0,1,1,1.741,3.483,1.741,1.741,0,0,1,0,1.743Z" transform="translate(12.853 575.083)" fill="#fff"/>
    <path id="Trazado_8999" data-name="Trazado 8999" d="M0,1.743A1.742,1.742,0,1,1,1.741,3.484,1.742,1.742,0,0,1,0,1.743Z" transform="translate(12.853 562.264)" fill="#fff"/>
    <ellipse id="Elipse_368" data-name="Elipse 368" cx="1.777" cy="1.777" rx="1.777" ry="1.777" transform="translate(12.816 549.412)" fill="#fff"/>
    <ellipse id="Elipse_369" data-name="Elipse 369" cx="1.777" cy="1.777" rx="1.777" ry="1.777" transform="translate(12.816 536.594)" fill="#fff"/>
    <path id="Trazado_9000" data-name="Trazado 9000" d="M0,1.776A1.777,1.777,0,1,1,1.777,3.553,1.777,1.777,0,0,1,0,1.776Z" transform="translate(12.816 523.778)" fill="#fff"/>
    <ellipse id="Elipse_370" data-name="Elipse 370" cx="1.777" cy="1.777" rx="1.777" ry="1.777" transform="translate(12.816 510.96)" fill="#fff"/>
    <ellipse id="Elipse_371" data-name="Elipse 371" cx="1.777" cy="1.777" rx="1.777" ry="1.777" transform="translate(12.816 498.142)" fill="#fff"/>
    <ellipse id="Elipse_372" data-name="Elipse 372" cx="1.777" cy="1.777" rx="1.777" ry="1.777" transform="translate(12.816 485.324)" fill="#fff"/>
    <path id="Trazado_9001" data-name="Trazado 9001" d="M0,1.776A1.777,1.777,0,1,1,1.777,3.553,1.776,1.776,0,0,1,0,1.776Z" transform="translate(12.816 472.508)" fill="#fff"/>
    <path id="Trazado_9002" data-name="Trazado 9002" d="M0,1.778A1.777,1.777,0,1,1,1.777,3.553,1.778,1.778,0,0,1,0,1.778Z" transform="translate(12.816 459.69)" fill="#fff"/>
    <ellipse id="Elipse_373" data-name="Elipse 373" cx="1.777" cy="1.777" rx="1.777" ry="1.777" transform="translate(12.816 446.872)" fill="#fff"/>
    <path id="Trazado_9003" data-name="Trazado 9003" d="M0,1.777A1.777,1.777,0,1,1,1.777,3.555,1.777,1.777,0,0,1,0,1.777Z" transform="translate(12.816 434.054)" fill="#fff"/>
    <ellipse id="Elipse_374" data-name="Elipse 374" cx="1.777" cy="1.777" rx="1.777" ry="1.777" transform="translate(12.816 421.236)" fill="#fff"/>
    <path id="Trazado_9004" data-name="Trazado 9004" d="M0,1.777A1.777,1.777,0,1,1,1.777,3.553,1.778,1.778,0,0,1,0,1.777Z" transform="translate(12.816 408.42)" fill="#fff"/>
    <path id="Trazado_9005" data-name="Trazado 9005" d="M0,1.777A1.777,1.777,0,1,1,1.777,3.555,1.778,1.778,0,0,1,0,1.777Z" transform="translate(12.816 395.602)" fill="#fff"/>
    <ellipse id="Elipse_375" data-name="Elipse 375" cx="1.777" cy="1.777" rx="1.777" ry="1.777" transform="translate(12.816 382.784)" fill="#fff"/>
    <ellipse id="Elipse_376" data-name="Elipse 376" cx="1.777" cy="1.777" rx="1.777" ry="1.777" transform="translate(12.816 369.967)" fill="#fff"/>
    <path id="Trazado_9006" data-name="Trazado 9006" d="M0,1.776A1.777,1.777,0,1,1,1.777,3.553,1.776,1.776,0,0,1,0,1.776Z" transform="translate(12.816 357.15)" fill="#fff"/>
    <ellipse id="Elipse_377" data-name="Elipse 377" cx="1.777" cy="1.777" rx="1.777" ry="1.777" transform="translate(12.816 344.332)" fill="#fff"/>
    <ellipse id="Elipse_378" data-name="Elipse 378" cx="1.812" cy="1.812" rx="1.812" ry="1.812" transform="translate(12.781 331.48)" fill="#fff"/>
    <path id="Trazado_9007" data-name="Trazado 9007" d="M0,1.812A1.812,1.812,0,1,1,1.812,3.625,1.812,1.812,0,0,1,0,1.812Z" transform="translate(12.781 318.662)" fill="#fff"/>
    <path id="Trazado_9008" data-name="Trazado 9008" d="M0,1.812A1.812,1.812,0,1,1,1.812,3.626,1.812,1.812,0,0,1,0,1.812Z" transform="translate(12.781 305.844)" fill="#fff"/>
    <path id="Trazado_9009" data-name="Trazado 9009" d="M0,1.813A1.812,1.812,0,1,1,1.812,3.626,1.813,1.813,0,0,1,0,1.813Z" transform="translate(12.781 293.026)" fill="#fff"/>
    <ellipse id="Elipse_379" data-name="Elipse 379" cx="1.812" cy="1.812" rx="1.812" ry="1.812" transform="translate(12.781 280.21)" fill="#fff"/>
    <path id="Trazado_9010" data-name="Trazado 9010" d="M0,1.812A1.812,1.812,0,1,1,1.812,3.624,1.811,1.811,0,0,1,0,1.812Z" transform="translate(12.781 267.392)" fill="#fff"/>
    <path id="Trazado_9011" data-name="Trazado 9011" d="M0,1.812A1.812,1.812,0,1,1,1.812,3.626,1.811,1.811,0,0,1,0,1.812Z" transform="translate(12.781 254.574)" fill="#fff"/>
    <path id="Trazado_9012" data-name="Trazado 9012" d="M0,1.812A1.812,1.812,0,1,1,1.812,3.626,1.813,1.813,0,0,1,0,1.812Z" transform="translate(12.781 241.756)" fill="#fff"/>
    <path id="Trazado_9013" data-name="Trazado 9013" d="M0,1.814A1.812,1.812,0,1,1,1.812,3.626,1.813,1.813,0,0,1,0,1.814Z" transform="translate(12.781 228.938)" fill="#fff"/>
    <path id="Trazado_9014" data-name="Trazado 9014" d="M0,1.741A1.742,1.742,0,1,1,1.741,3.482,1.741,1.741,0,0,1,0,1.741Z" transform="translate(12.853 216.193)" fill="#fff"/>
    <path id="Trazado_9015" data-name="Trazado 9015" d="M0,1.635A1.635,1.635,0,1,1,1.635,3.27,1.636,1.636,0,0,1,0,1.635Z" transform="translate(12.959 203.481)" fill="#fff"/>
    <path id="Trazado_9016" data-name="Trazado 9016" d="M0,1.563A1.563,1.563,0,1,1,1.563,3.129,1.563,1.563,0,0,1,0,1.563Z" transform="translate(13.03 190.735)" fill="#fff"/>
    <ellipse id="Elipse_380" data-name="Elipse 380" cx="1.457" cy="1.457" rx="1.457" ry="1.457" transform="translate(13.136 178.025)" fill="#fff"/>
    <path id="Trazado_9017" data-name="Trazado 9017" d="M0,1.351A1.35,1.35,0,1,1,1.349,2.7,1.35,1.35,0,0,1,0,1.351Z" transform="translate(13.244 165.313)" fill="#fff"/>
    <ellipse id="Elipse_381" data-name="Elipse 381" cx="1.243" cy="1.243" rx="1.243" ry="1.243" transform="translate(13.35 152.603)" fill="#fff"/>
    <ellipse id="Elipse_382" data-name="Elipse 382" cx="1.137" cy="1.137" rx="1.137" ry="1.137" transform="translate(13.456 139.891)" fill="#fff"/>
    <path id="Trazado_9018" data-name="Trazado 9018" d="M0,1.031a1.031,1.031,0,1,1,1.031,1.03A1.031,1.031,0,0,1,0,1.031Z" transform="translate(13.563 127.181)" fill="#fff"/>
    <path id="Trazado_9019" data-name="Trazado 9019" d="M0,.925a.924.924,0,1,1,.923.923A.924.924,0,0,1,0,.925Z" transform="translate(13.67 114.469)" fill="#fff"/>
    <path id="Trazado_9020" data-name="Trazado 9020" d="M0,.817a.817.817,0,1,1,.817.818A.818.818,0,0,1,0,.817Z" transform="translate(13.776 101.759)" fill="#fff"/>
    <path id="Trazado_9021" data-name="Trazado 9021" d="M0,.712a.711.711,0,1,1,.711.711A.712.712,0,0,1,0,.712Z" transform="translate(13.882 89.047)" fill="#fff"/>
    <path id="Trazado_9022" data-name="Trazado 9022" d="M0,.638a.64.64,0,1,1,.64.64A.639.639,0,0,1,0,.638Z" transform="translate(13.954 76.303)" fill="#fff"/>
    <path id="Trazado_9023" data-name="Trazado 9023" d="M0,.534a.533.533,0,1,1,.532.532A.533.533,0,0,1,0,.534Z" transform="translate(14.061 63.591)" fill="#fff"/>
    <path id="Trazado_9024" data-name="Trazado 9024" d="M0,.427A.426.426,0,1,1,.426.853.426.426,0,0,1,0,.427Z" transform="translate(14.167 50.88)" fill="#fff"/>
    <ellipse id="Elipse_383" data-name="Elipse 383" cx="0.32" cy="0.32" rx="0.32" ry="0.32" transform="translate(14.274 38.169)" fill="#fff"/>
    <path id="Trazado_9025" data-name="Trazado 9025" d="M0,.212a.213.213,0,0,1,.426,0A.213.213,0,1,1,0,.212Z" transform="translate(14.381 25.459)" fill="#fff"/>
    <path id="Trazado_9026" data-name="Trazado 9026" d="M0,.143A.142.142,0,0,1,.143,0a.141.141,0,1,1,0,.283A.142.142,0,0,1,0,.143Z" transform="translate(14.451 12.713)" fill="#fff"/>
    <path id="Trazado_9027" data-name="Trazado 9027" d="M0,.037A.035.035,0,0,1,.035,0,.037.037,0,0,1,.071.037.036.036,0,0,1,.035.072.034.034,0,0,1,0,.037Z" transform="translate(14.559 0)" fill="#fff"/>
    <path id="Trazado_9028" data-name="Trazado 9028" d="M0,1.777A1.777,1.777,0,1,1,1.776,3.555,1.776,1.776,0,0,1,0,1.777Z" transform="translate(0 677.587)" fill="#fff"/>
    <path id="Trazado_9029" data-name="Trazado 9029" d="M0,1.492A1.493,1.493,0,1,1,1.492,2.984,1.492,1.492,0,0,1,0,1.492Z" transform="translate(0.284 665.055)" fill="#fff"/>
    <path id="Trazado_9030" data-name="Trazado 9030" d="M0,1.492A1.493,1.493,0,1,1,1.492,2.986,1.492,1.492,0,0,1,0,1.492Z" transform="translate(0.284 652.237)" fill="#fff"/>
    <path id="Trazado_9031" data-name="Trazado 9031" d="M0,1.492A1.493,1.493,0,1,1,1.492,2.986,1.492,1.492,0,0,1,0,1.492Z" transform="translate(0.284 639.419)" fill="#fff"/>
    <ellipse id="Elipse_384" data-name="Elipse 384" cx="1.457" cy="1.457" rx="1.457" ry="1.457" transform="translate(0.318 626.637)" fill="#fff"/>
    <path id="Trazado_9032" data-name="Trazado 9032" d="M0,1.457A1.457,1.457,0,1,1,1.457,2.914,1.457,1.457,0,0,1,0,1.457Z" transform="translate(0.318 613.82)" fill="#fff"/>
    <path id="Trazado_9033" data-name="Trazado 9033" d="M0,1.457A1.457,1.457,0,1,1,1.457,2.915,1.458,1.458,0,0,1,0,1.457Z" transform="translate(0.318 601.002)" fill="#fff"/>
    <path id="Trazado_9034" data-name="Trazado 9034" d="M0,1.458A1.457,1.457,0,1,1,1.457,2.915,1.458,1.458,0,0,1,0,1.458Z" transform="translate(0.318 588.184)" fill="#fff"/>
    <path id="Trazado_9035" data-name="Trazado 9035" d="M0,1.423A1.422,1.422,0,1,1,1.421,2.843,1.422,1.422,0,0,1,0,1.423Z" transform="translate(0.355 575.402)" fill="#fff"/>
    <path id="Trazado_9036" data-name="Trazado 9036" d="M0,1.423A1.422,1.422,0,1,1,1.421,2.844,1.422,1.422,0,0,1,0,1.423Z" transform="translate(0.355 562.584)" fill="#fff"/>
    <ellipse id="Elipse_385" data-name="Elipse 385" cx="1.457" cy="1.457" rx="1.457" ry="1.457" transform="translate(0.318 549.732)" fill="#fff"/>
    <path id="Trazado_9037" data-name="Trazado 9037" d="M0,1.421A1.422,1.422,0,1,1,1.421,2.843,1.421,1.421,0,0,1,0,1.421Z" transform="translate(0.355 536.951)" fill="#fff"/>
    <path id="Trazado_9038" data-name="Trazado 9038" d="M0,1.421A1.422,1.422,0,1,1,1.421,2.844,1.422,1.422,0,0,1,0,1.421Z" transform="translate(0.355 524.133)" fill="#fff"/>
    <path id="Trazado_9039" data-name="Trazado 9039" d="M0,1.422A1.422,1.422,0,1,1,1.421,2.843,1.422,1.422,0,0,1,0,1.422Z" transform="translate(0.355 511.315)" fill="#fff"/>
    <path id="Trazado_9040" data-name="Trazado 9040" d="M0,1.422A1.422,1.422,0,1,1,1.421,2.844,1.422,1.422,0,0,1,0,1.422Z" transform="translate(0.355 498.497)" fill="#fff"/>
    <ellipse id="Elipse_386" data-name="Elipse 386" cx="1.386" cy="1.386" rx="1.386" ry="1.386" transform="translate(0.39 485.715)" fill="#fff"/>
    <ellipse id="Elipse_387" data-name="Elipse 387" cx="1.386" cy="1.386" rx="1.386" ry="1.386" transform="translate(0.39 472.898)" fill="#fff"/>
    <ellipse id="Elipse_388" data-name="Elipse 388" cx="1.386" cy="1.386" rx="1.386" ry="1.386" transform="translate(0.39 460.081)" fill="#fff"/>
    <ellipse id="Elipse_389" data-name="Elipse 389" cx="1.386" cy="1.386" rx="1.386" ry="1.386" transform="translate(0.39 447.263)" fill="#fff"/>
    <path id="Trazado_9041" data-name="Trazado 9041" d="M0,1.351A1.35,1.35,0,1,1,1.35,2.7,1.35,1.35,0,0,1,0,1.351Z" transform="translate(0.426 434.48)" fill="#fff"/>
    <path id="Trazado_9042" data-name="Trazado 9042" d="M0,1.35A1.35,1.35,0,1,1,1.35,2.7,1.349,1.349,0,0,1,0,1.35Z" transform="translate(0.426 421.664)" fill="#fff"/>
    <path id="Trazado_9043" data-name="Trazado 9043" d="M0,1.351A1.35,1.35,0,1,1,1.35,2.7,1.35,1.35,0,0,1,0,1.351Z" transform="translate(0.426 408.846)" fill="#fff"/>
    <path id="Trazado_9044" data-name="Trazado 9044" d="M0,1.351A1.35,1.35,0,1,1,1.35,2.7,1.35,1.35,0,0,1,0,1.351Z" transform="translate(0.426 396.029)" fill="#fff"/>
    <path id="Trazado_9045" data-name="Trazado 9045" d="M0,1.315A1.316,1.316,0,1,1,1.315,2.629,1.315,1.315,0,0,1,0,1.315Z" transform="translate(0.461 383.247)" fill="#fff"/>
    <path id="Trazado_9046" data-name="Trazado 9046" d="M0,1.315A1.316,1.316,0,1,1,1.315,2.63,1.315,1.315,0,0,1,0,1.315Z" transform="translate(0.461 370.429)" fill="#fff"/>
    <path id="Trazado_9047" data-name="Trazado 9047" d="M0,1.315A1.316,1.316,0,1,1,1.315,2.631,1.315,1.315,0,0,1,0,1.315Z" transform="translate(0.461 357.611)" fill="#fff"/>
    <path id="Trazado_9048" data-name="Trazado 9048" d="M0,1.317A1.316,1.316,0,1,1,1.315,2.631,1.316,1.316,0,0,1,0,1.317Z" transform="translate(0.461 344.793)" fill="#fff"/>
    <path id="Trazado_9049" data-name="Trazado 9049" d="M0,1.315A1.316,1.316,0,1,1,1.315,2.63,1.315,1.315,0,0,1,0,1.315Z" transform="translate(0.461 331.977)" fill="#fff"/>
    <path id="Trazado_9050" data-name="Trazado 9050" d="M0,1.315A1.316,1.316,0,1,1,1.315,2.63,1.315,1.315,0,0,1,0,1.315Z" transform="translate(0.461 319.159)" fill="#fff"/>
    <path id="Trazado_9051" data-name="Trazado 9051" d="M0,1.279a1.279,1.279,0,1,1,1.278,1.28A1.278,1.278,0,0,1,0,1.279Z" transform="translate(0.497 306.378)" fill="#fff"/>
    <path id="Trazado_9052" data-name="Trazado 9052" d="M0,1.28A1.279,1.279,0,1,1,1.278,2.558,1.278,1.278,0,0,1,0,1.28Z" transform="translate(0.497 293.56)" fill="#fff"/>
    <path id="Trazado_9053" data-name="Trazado 9053" d="M0,1.28A1.279,1.279,0,1,1,1.278,2.56,1.279,1.279,0,0,1,0,1.28Z" transform="translate(0.497 280.742)" fill="#fff"/>
    <path id="Trazado_9054" data-name="Trazado 9054" d="M0,1.28A1.279,1.279,0,1,1,1.278,2.56,1.279,1.279,0,0,1,0,1.28Z" transform="translate(0.497 267.924)" fill="#fff"/>
    <path id="Trazado_9055" data-name="Trazado 9055" d="M0,1.243A1.244,1.244,0,1,1,1.244,2.488,1.244,1.244,0,0,1,0,1.243Z" transform="translate(0.532 255.143)" fill="#fff"/>
    <path id="Trazado_9056" data-name="Trazado 9056" d="M0,1.244A1.244,1.244,0,1,1,1.244,2.489,1.244,1.244,0,0,1,0,1.244Z" transform="translate(0.532 242.325)" fill="#fff"/>
    <path id="Trazado_9057" data-name="Trazado 9057" d="M0,1.245A1.244,1.244,0,1,1,1.244,2.489,1.244,1.244,0,0,1,0,1.245Z" transform="translate(0.532 229.507)" fill="#fff"/>
    <path id="Trazado_9058" data-name="Trazado 9058" d="M0,1.208A1.208,1.208,0,1,1,1.207,2.417,1.207,1.207,0,0,1,0,1.208Z" transform="translate(0.569 216.726)" fill="#fff"/>
    <path id="Trazado_9059" data-name="Trazado 9059" d="M0,1.138A1.137,1.137,0,1,1,1.137,2.275,1.138,1.138,0,0,1,0,1.138Z" transform="translate(0.638 203.979)" fill="#fff"/>
    <path id="Trazado_9060" data-name="Trazado 9060" d="M0,1.066A1.066,1.066,0,1,1,1.066,2.134,1.066,1.066,0,0,1,0,1.066Z" transform="translate(0.71 191.232)" fill="#fff"/>
    <path id="Trazado_9061" data-name="Trazado 9061" d="M0,1a1,1,0,1,1,.995.995A1,1,0,0,1,0,1Z" transform="translate(0.781 178.486)" fill="#fff"/>
    <path id="Trazado_9062" data-name="Trazado 9062" d="M0,.925a.924.924,0,1,1,.924.923A.925.925,0,0,1,0,.925Z" transform="translate(0.852 165.74)" fill="#fff"/>
    <path id="Trazado_9063" data-name="Trazado 9063" d="M0,.852a.853.853,0,1,1,.852.854A.852.852,0,0,1,0,.852Z" transform="translate(0.924 152.994)" fill="#fff"/>
    <path id="Trazado_9064" data-name="Trazado 9064" d="M0,.781a.782.782,0,1,1,.781.782A.781.781,0,0,1,0,.781Z" transform="translate(0.995 140.248)" fill="#fff"/>
    <path id="Trazado_9065" data-name="Trazado 9065" d="M0,.711a.71.71,0,1,1,.71.709A.711.711,0,0,1,0,.711Z" transform="translate(1.066 127.501)" fill="#fff"/>
    <path id="Trazado_9066" data-name="Trazado 9066" d="M0,.64a.639.639,0,1,1,.638.64A.639.639,0,0,1,0,.64Z" transform="translate(1.137 114.755)" fill="#fff"/>
    <path id="Trazado_9067" data-name="Trazado 9067" d="M0,.568a.569.569,0,1,1,.569.569A.57.57,0,0,1,0,.568Z" transform="translate(1.207 102.008)" fill="#fff"/>
    <ellipse id="Elipse_390" data-name="Elipse 390" cx="0.497" cy="0.497" rx="0.497" ry="0.497" transform="translate(1.278 89.261)" fill="#fff"/>
    <path id="Trazado_9068" data-name="Trazado 9068" d="M0,.426A.427.427,0,1,1,.426.854.426.426,0,0,1,0,.426Z" transform="translate(1.35 76.515)" fill="#fff"/>
    <path id="Trazado_9069" data-name="Trazado 9069" d="M0,.356A.356.356,0,1,1,.355.711.356.356,0,0,1,0,.356Z" transform="translate(1.421 63.768)" fill="#fff"/>
    <path id="Trazado_9070" data-name="Trazado 9070" d="M0,.285A.284.284,0,1,1,.284.569.285.285,0,0,1,0,.285Z" transform="translate(1.492 51.021)" fill="#fff"/>
    <path id="Trazado_9071" data-name="Trazado 9071" d="M0,.214A.213.213,0,1,1,.212.428.213.213,0,0,1,0,.214Z" transform="translate(1.563 38.275)" fill="#fff"/>
    <path id="Trazado_9072" data-name="Trazado 9072" d="M0,.141A.142.142,0,1,1,.141.284.141.141,0,0,1,0,.141Z" transform="translate(1.635 25.53)" fill="#fff"/>
    <path id="Trazado_9073" data-name="Trazado 9073" d="M0,.071a.07.07,0,1,1,.07.07A.07.07,0,0,1,0,.071Z" transform="translate(1.706 12.784)" fill="#fff"/>
  </g>
</svg>
