<svg xmlns="http://www.w3.org/2000/svg" width="681.568" height="80.104" viewBox="0 0 681.568 80.104">
  <g id="Grupo_9619" data-name="Grupo 9619" transform="translate(-390.405 1093.557) rotate(-90)" opacity="0.26">
    <path id="Trazado_8786" data-name="Trazado 8786" d="M1399.544,395.737a1.422,1.422,0,1,0,1.421-1.421A1.421,1.421,0,0,0,1399.544,395.737Z" transform="translate(-308.831 -3.128)" fill="#4e159c"/>
    <path id="Trazado_8787" data-name="Trazado 8787" d="M1400.961,460.925a1.137,1.137,0,1,0,1.137-1.137A1.137,1.137,0,0,0,1400.961,460.925Z" transform="translate(-309.964 -55.499)" fill="#4e159c"/>
    <circle id="Elipse_306" data-name="Elipse 306" cx="1.137" cy="1.137" r="1.137" transform="translate(1090.997 417.107)" fill="#4e159c"/>
    <circle id="Elipse_307" data-name="Elipse 307" cx="1.137" cy="1.137" r="1.137" transform="translate(1090.997 429.925)" fill="#4e159c"/>
    <circle id="Elipse_308" data-name="Elipse 308" cx="1.137" cy="1.137" r="1.137" transform="translate(1090.997 442.741)" fill="#4e159c"/>
    <circle id="Elipse_309" data-name="Elipse 309" cx="1.137" cy="1.137" r="1.137" transform="translate(1090.997 455.559)" fill="#4e159c"/>
    <path id="Trazado_8788" data-name="Trazado 8788" d="M1400.961,781.189a1.137,1.137,0,1,0,1.137-1.138A1.137,1.137,0,0,0,1400.961,781.189Z" transform="translate(-309.964 -311.674)" fill="#4e159c"/>
    <circle id="Elipse_310" data-name="Elipse 310" cx="1.137" cy="1.137" r="1.137" transform="translate(1090.997 481.195)" fill="#4e159c"/>
    <circle id="Elipse_311" data-name="Elipse 311" cx="1.137" cy="1.137" r="1.137" transform="translate(1090.997 494.011)" fill="#4e159c"/>
    <circle id="Elipse_312" data-name="Elipse 312" cx="1.137" cy="1.137" r="1.137" transform="translate(1090.997 506.829)" fill="#4e159c"/>
    <path id="Trazado_8789" data-name="Trazado 8789" d="M1400.787,1037.258a1.172,1.172,0,1,0,1.172-1.172A1.171,1.171,0,0,0,1400.787,1037.258Z" transform="translate(-309.825 -516.474)" fill="#4e159c"/>
    <path id="Trazado_8790" data-name="Trazado 8790" d="M1400.787,1101.307a1.172,1.172,0,1,0,1.172-1.174A1.172,1.172,0,0,0,1400.787,1101.307Z" transform="translate(-309.825 -567.705)" fill="#4e159c"/>
    <path id="Trazado_8791" data-name="Trazado 8791" d="M1400.787,1165.361a1.172,1.172,0,1,0,1.172-1.174A1.172,1.172,0,0,0,1400.787,1165.361Z" transform="translate(-309.825 -618.941)" fill="#4e159c"/>
    <path id="Trazado_8792" data-name="Trazado 8792" d="M1400.787,1229.413a1.172,1.172,0,1,0,1.172-1.172A1.172,1.172,0,0,0,1400.787,1229.413Z" transform="translate(-309.825 -670.177)" fill="#4e159c"/>
    <circle id="Elipse_313" data-name="Elipse 313" cx="1.172" cy="1.172" r="1.172" transform="translate(1090.962 570.882)" fill="#4e159c"/>
    <path id="Trazado_8793" data-name="Trazado 8793" d="M1400.787,1357.516a1.172,1.172,0,1,0,1.172-1.174A1.171,1.171,0,0,0,1400.787,1357.516Z" transform="translate(-309.825 -772.644)" fill="#4e159c"/>
    <path id="Trazado_8794" data-name="Trazado 8794" d="M1400.787,1421.572a1.172,1.172,0,1,0,1.172-1.174A1.172,1.172,0,0,0,1400.787,1421.572Z" transform="translate(-309.825 -823.882)" fill="#4e159c"/>
    <path id="Trazado_8795" data-name="Trazado 8795" d="M1400.787,1485.623a1.172,1.172,0,1,0,1.172-1.172A1.173,1.173,0,0,0,1400.787,1485.623Z" transform="translate(-309.825 -875.117)" fill="#4e159c"/>
    <path id="Trazado_8796" data-name="Trazado 8796" d="M1400.787,1549.677a1.172,1.172,0,1,0,1.172-1.172A1.172,1.172,0,0,0,1400.787,1549.677Z" transform="translate(-309.825 -926.354)" fill="#4e159c"/>
    <path id="Trazado_8797" data-name="Trazado 8797" d="M1400.787,1613.726a1.172,1.172,0,1,0,1.172-1.174A1.171,1.171,0,0,0,1400.787,1613.726Z" transform="translate(-309.825 -977.584)" fill="#4e159c"/>
    <path id="Trazado_8798" data-name="Trazado 8798" d="M1400.787,1677.78a1.172,1.172,0,1,0,1.172-1.174A1.172,1.172,0,0,0,1400.787,1677.78Z" transform="translate(-309.825 -1028.82)" fill="#4e159c"/>
    <path id="Trazado_8799" data-name="Trazado 8799" d="M1400.787,1741.832a1.172,1.172,0,1,0,1.172-1.172A1.173,1.173,0,0,0,1400.787,1741.832Z" transform="translate(-309.825 -1080.057)" fill="#4e159c"/>
    <path id="Trazado_8800" data-name="Trazado 8800" d="M1400.787,1805.887a1.172,1.172,0,1,0,1.172-1.172A1.173,1.173,0,0,0,1400.787,1805.887Z" transform="translate(-309.825 -1131.294)" fill="#4e159c"/>
    <path id="Trazado_8801" data-name="Trazado 8801" d="M1400.787,1869.941a1.172,1.172,0,1,0,1.172-1.172A1.171,1.171,0,0,0,1400.787,1869.941Z" transform="translate(-309.825 -1182.53)" fill="#4e159c"/>
    <path id="Trazado_8802" data-name="Trazado 8802" d="M1400.787,1933.989a1.172,1.172,0,1,0,1.172-1.174A1.172,1.172,0,0,0,1400.787,1933.989Z" transform="translate(-309.825 -1233.76)" fill="#4e159c"/>
    <path id="Trazado_8803" data-name="Trazado 8803" d="M1400.787,1998.044a1.172,1.172,0,1,0,1.172-1.174A1.172,1.172,0,0,0,1400.787,1998.044Z" transform="translate(-309.825 -1284.997)" fill="#4e159c"/>
    <path id="Trazado_8804" data-name="Trazado 8804" d="M1400.787,2062.1a1.172,1.172,0,1,0,1.172-1.172A1.172,1.172,0,0,0,1400.787,2062.1Z" transform="translate(-309.825 -1336.233)" fill="#4e159c"/>
    <path id="Trazado_8805" data-name="Trazado 8805" d="M1400.787,2126.151a1.172,1.172,0,1,0,1.172-1.172A1.173,1.173,0,0,0,1400.787,2126.151Z" transform="translate(-309.825 -1387.47)" fill="#4e159c"/>
    <path id="Trazado_8806" data-name="Trazado 8806" d="M1400.787,2190.2a1.172,1.172,0,1,0,1.172-1.174A1.171,1.171,0,0,0,1400.787,2190.2Z" transform="translate(-309.825 -1438.7)" fill="#4e159c"/>
    <path id="Trazado_8807" data-name="Trazado 8807" d="M1400.787,2254.254a1.172,1.172,0,1,0,1.172-1.173A1.172,1.172,0,0,0,1400.787,2254.254Z" transform="translate(-309.825 -1489.938)" fill="#4e159c"/>
    <path id="Trazado_8808" data-name="Trazado 8808" d="M1400.787,2318.306a1.172,1.172,0,1,0,1.172-1.172A1.172,1.172,0,0,0,1400.787,2318.306Z" transform="translate(-309.825 -1541.173)" fill="#4e159c"/>
    <path id="Trazado_8809" data-name="Trazado 8809" d="M1400.787,2382.36a1.172,1.172,0,1,0,1.172-1.172A1.172,1.172,0,0,0,1400.787,2382.36Z" transform="translate(-309.825 -1592.409)" fill="#4e159c"/>
    <path id="Trazado_8810" data-name="Trazado 8810" d="M1400.787,2446.415a1.172,1.172,0,1,0,1.172-1.172A1.171,1.171,0,0,0,1400.787,2446.415Z" transform="translate(-309.825 -1643.646)" fill="#4e159c"/>
    <path id="Trazado_8811" data-name="Trazado 8811" d="M1400.787,2510.463a1.172,1.172,0,1,0,1.172-1.174A1.172,1.172,0,0,0,1400.787,2510.463Z" transform="translate(-309.825 -1694.876)" fill="#4e159c"/>
    <path id="Trazado_8812" data-name="Trazado 8812" d="M1400.787,2574.517a1.172,1.172,0,1,0,1.172-1.174A1.172,1.172,0,0,0,1400.787,2574.517Z" transform="translate(-309.825 -1746.112)" fill="#4e159c"/>
    <path id="Trazado_8813" data-name="Trazado 8813" d="M1400.787,2638.57a1.172,1.172,0,1,0,1.172-1.172A1.173,1.173,0,0,0,1400.787,2638.57Z" transform="translate(-309.825 -1797.349)" fill="#4e159c"/>
    <circle id="Elipse_314" data-name="Elipse 314" cx="1.137" cy="1.137" r="1.137" transform="translate(1090.997 852.901)" fill="#4e159c"/>
    <circle id="Elipse_315" data-name="Elipse 315" cx="1.066" cy="1.066" r="1.066" transform="translate(1091.068 865.791)" fill="#4e159c"/>
    <path id="Trazado_8814" data-name="Trazado 8814" d="M1401.491,2831.3a1.031,1.031,0,1,0,1.031-1.031A1.031,1.031,0,0,0,1401.491,2831.3Z" transform="translate(-310.388 -1951.621)" fill="#4e159c"/>
    <path id="Trazado_8815" data-name="Trazado 8815" d="M1402.03,2895.773a.923.923,0,1,0,.924-.923A.924.924,0,0,0,1402.03,2895.773Z" transform="translate(-310.819 -2003.283)" fill="#4e159c"/>
    <path id="Trazado_8816" data-name="Trazado 8816" d="M1402.2,2959.968a.889.889,0,1,0,.889-.888A.889.889,0,0,0,1402.2,2959.968Z" transform="translate(-310.958 -2054.66)" fill="#4e159c"/>
    <path id="Trazado_8817" data-name="Trazado 8817" d="M1402.56,3024.306a.817.817,0,1,0,.817-.818A.818.818,0,0,0,1402.56,3024.306Z" transform="translate(-311.243 -2106.18)" fill="#4e159c"/>
    <circle id="Elipse_316" data-name="Elipse 316" cx="0.746" cy="0.746" r="0.746" transform="translate(1091.388 930.198)" fill="#4e159c"/>
    <path id="Trazado_8818" data-name="Trazado 8818" d="M1403.273,3152.977a.675.675,0,1,0,.675-.675A.676.676,0,0,0,1403.273,3152.977Z" transform="translate(-311.813 -2209.216)" fill="#4e159c"/>
    <path id="Trazado_8819" data-name="Trazado 8819" d="M1403.629,3217.316a.6.6,0,1,0,.6-.6A.6.6,0,0,0,1403.629,3217.316Z" transform="translate(-312.098 -2260.738)" fill="#4e159c"/>
    <path id="Trazado_8820" data-name="Trazado 8820" d="M1403.977,3281.649a.534.534,0,1,0,.534-.534A.534.534,0,0,0,1403.977,3281.649Z" transform="translate(-312.377 -2312.252)" fill="#4e159c"/>
    <path id="Trazado_8821" data-name="Trazado 8821" d="M1404.333,3345.989a.463.463,0,1,0,.463-.463A.461.461,0,0,0,1404.333,3345.989Z" transform="translate(-312.661 -2363.774)" fill="#4e159c"/>
    <circle id="Elipse_317" data-name="Elipse 317" cx="0.32" cy="0.32" r="0.32" transform="translate(1091.814 1007.528)" fill="#4e159c"/>
    <path id="Trazado_8822" data-name="Trazado 8822" d="M1405.228,3538.859a.284.284,0,1,0,.283-.284A.284.284,0,0,0,1405.228,3538.859Z" transform="translate(-313.377 -2518.193)" fill="#4e159c"/>
    <circle id="Elipse_318" data-name="Elipse 318" cx="0.214" cy="0.214" r="0.214" transform="translate(1091.92 1033.27)" fill="#4e159c"/>
    <path id="Trazado_8823" data-name="Trazado 8823" d="M1405.932,3667.532a.143.143,0,1,0,.143-.143A.143.143,0,0,0,1405.932,3667.532Z" transform="translate(-313.94 -2621.23)" fill="#4e159c"/>
    <path id="Trazado_8824" data-name="Trazado 8824" d="M1406.289,3731.87a.071.071,0,1,0,.071-.07A.071.071,0,0,0,1406.289,3731.87Z" transform="translate(-314.226 -2672.751)" fill="#4e159c"/>
    <circle id="Elipse_319" data-name="Elipse 319" cx="2.203" cy="2.203" r="2.203" transform="translate(1077.113 390.405)" fill="#4e159c"/>
    <path id="Trazado_8825" data-name="Trazado 8825" d="M1333.891,458.512a1.742,1.742,0,1,0,1.741-1.741A1.741,1.741,0,0,0,1333.891,458.512Z" transform="translate(-256.315 -53.086)" fill="#4e159c"/>
    <path id="Trazado_8826" data-name="Trazado 8826" d="M1333.891,522.56a1.742,1.742,0,1,0,1.741-1.743A1.741,1.741,0,0,0,1333.891,522.56Z" transform="translate(-256.315 -104.315)" fill="#4e159c"/>
    <path id="Trazado_8827" data-name="Trazado 8827" d="M1333.891,586.615a1.742,1.742,0,1,0,1.741-1.743A1.741,1.741,0,0,0,1333.891,586.615Z" transform="translate(-256.315 -155.552)" fill="#4e159c"/>
    <path id="Trazado_8828" data-name="Trazado 8828" d="M1333.891,650.667a1.742,1.742,0,1,0,1.741-1.741A1.742,1.742,0,0,0,1333.891,650.667Z" transform="translate(-256.315 -206.789)" fill="#4e159c"/>
    <path id="Trazado_8829" data-name="Trazado 8829" d="M1333.891,714.722a1.742,1.742,0,1,0,1.741-1.741A1.742,1.742,0,0,0,1333.891,714.722Z" transform="translate(-256.315 -258.026)" fill="#4e159c"/>
    <path id="Trazado_8830" data-name="Trazado 8830" d="M1333.891,778.77a1.742,1.742,0,1,0,1.741-1.743A1.741,1.741,0,0,0,1333.891,778.77Z" transform="translate(-256.315 -309.255)" fill="#4e159c"/>
    <path id="Trazado_8831" data-name="Trazado 8831" d="M1333.891,842.825a1.742,1.742,0,1,0,1.741-1.742A1.741,1.741,0,0,0,1333.891,842.825Z" transform="translate(-256.315 -360.493)" fill="#4e159c"/>
    <path id="Trazado_8832" data-name="Trazado 8832" d="M1333.891,906.877a1.742,1.742,0,1,0,1.741-1.741A1.741,1.741,0,0,0,1333.891,906.877Z" transform="translate(-256.315 -411.729)" fill="#4e159c"/>
    <path id="Trazado_8833" data-name="Trazado 8833" d="M1333.891,970.931a1.742,1.742,0,1,0,1.741-1.741A1.742,1.742,0,0,0,1333.891,970.931Z" transform="translate(-256.315 -462.965)" fill="#4e159c"/>
    <circle id="Elipse_320" data-name="Elipse 320" cx="1.777" cy="1.777" r="1.777" transform="translate(1077.539 519.007)" fill="#4e159c"/>
    <circle id="Elipse_321" data-name="Elipse 321" cx="1.777" cy="1.777" r="1.777" transform="translate(1077.539 531.824)" fill="#4e159c"/>
    <path id="Trazado_8834" data-name="Trazado 8834" d="M1333.709,1162.948a1.777,1.777,0,1,0,1.777-1.777A1.777,1.777,0,0,0,1333.709,1162.948Z" transform="translate(-256.17 -616.529)" fill="#4e159c"/>
    <circle id="Elipse_322" data-name="Elipse 322" cx="1.777" cy="1.777" r="1.777" transform="translate(1077.539 557.459)" fill="#4e159c"/>
    <circle id="Elipse_323" data-name="Elipse 323" cx="1.777" cy="1.777" r="1.777" transform="translate(1077.539 570.276)" fill="#4e159c"/>
    <circle id="Elipse_324" data-name="Elipse 324" cx="1.777" cy="1.777" r="1.777" transform="translate(1077.539 583.094)" fill="#4e159c"/>
    <path id="Trazado_8835" data-name="Trazado 8835" d="M1333.709,1419.158a1.777,1.777,0,1,0,1.777-1.777A1.776,1.776,0,0,0,1333.709,1419.158Z" transform="translate(-256.17 -821.469)" fill="#4e159c"/>
    <path id="Trazado_8836" data-name="Trazado 8836" d="M1333.709,1483.211a1.777,1.777,0,1,0,1.777-1.776A1.777,1.777,0,0,0,1333.709,1483.211Z" transform="translate(-256.17 -872.705)" fill="#4e159c"/>
    <circle id="Elipse_325" data-name="Elipse 325" cx="1.777" cy="1.777" r="1.777" transform="translate(1077.539 621.546)" fill="#4e159c"/>
    <path id="Trazado_8837" data-name="Trazado 8837" d="M1333.709,1611.314a1.777,1.777,0,1,0,1.777-1.778A1.777,1.777,0,0,0,1333.709,1611.314Z" transform="translate(-256.17 -975.172)" fill="#4e159c"/>
    <circle id="Elipse_326" data-name="Elipse 326" cx="1.777" cy="1.777" r="1.777" transform="translate(1077.539 647.182)" fill="#4e159c"/>
    <path id="Trazado_8838" data-name="Trazado 8838" d="M1333.709,1739.421a1.777,1.777,0,1,0,1.777-1.775A1.777,1.777,0,0,0,1333.709,1739.421Z" transform="translate(-256.17 -1077.646)" fill="#4e159c"/>
    <path id="Trazado_8839" data-name="Trazado 8839" d="M1333.709,1803.469a1.777,1.777,0,1,0,1.777-1.777A1.777,1.777,0,0,0,1333.709,1803.469Z" transform="translate(-256.17 -1128.875)" fill="#4e159c"/>
    <circle id="Elipse_327" data-name="Elipse 327" cx="1.777" cy="1.777" r="1.777" transform="translate(1077.539 685.634)" fill="#4e159c"/>
    <circle id="Elipse_328" data-name="Elipse 328" cx="1.777" cy="1.777" r="1.777" transform="translate(1077.539 698.452)" fill="#4e159c"/>
    <path id="Trazado_8840" data-name="Trazado 8840" d="M1333.709,1995.631a1.777,1.777,0,1,0,1.777-1.777A1.776,1.776,0,0,0,1333.709,1995.631Z" transform="translate(-256.17 -1282.584)" fill="#4e159c"/>
    <circle id="Elipse_329" data-name="Elipse 329" cx="1.777" cy="1.777" r="1.777" transform="translate(1077.539 724.086)" fill="#4e159c"/>
    <path id="Trazado_8841" data-name="Trazado 8841" d="M1333.535,2123.593a1.813,1.813,0,1,0,1.812-1.812A1.811,1.811,0,0,0,1333.535,2123.593Z" transform="translate(-256.031 -1384.912)" fill="#4e159c"/>
    <path id="Trazado_8842" data-name="Trazado 8842" d="M1333.535,2187.647a1.813,1.813,0,1,0,1.812-1.812A1.812,1.812,0,0,0,1333.535,2187.647Z" transform="translate(-256.031 -1436.148)" fill="#4e159c"/>
    <path id="Trazado_8843" data-name="Trazado 8843" d="M1333.535,2251.695a1.813,1.813,0,1,0,1.812-1.814A1.812,1.812,0,0,0,1333.535,2251.695Z" transform="translate(-256.031 -1487.378)" fill="#4e159c"/>
    <path id="Trazado_8844" data-name="Trazado 8844" d="M1333.535,2315.748a1.813,1.813,0,1,0,1.812-1.812A1.813,1.813,0,0,0,1333.535,2315.748Z" transform="translate(-256.031 -1538.615)" fill="#4e159c"/>
    <path id="Trazado_8845" data-name="Trazado 8845" d="M1333.535,2379.8a1.813,1.813,0,1,0,1.812-1.812A1.811,1.811,0,0,0,1333.535,2379.8Z" transform="translate(-256.031 -1589.851)" fill="#4e159c"/>
    <path id="Trazado_8846" data-name="Trazado 8846" d="M1333.535,2443.857a1.813,1.813,0,1,0,1.812-1.812A1.811,1.811,0,0,0,1333.535,2443.857Z" transform="translate(-256.031 -1641.088)" fill="#4e159c"/>
    <path id="Trazado_8847" data-name="Trazado 8847" d="M1333.535,2507.9a1.813,1.813,0,1,0,1.812-1.814A1.811,1.811,0,0,0,1333.535,2507.9Z" transform="translate(-256.031 -1692.318)" fill="#4e159c"/>
    <path id="Trazado_8848" data-name="Trazado 8848" d="M1333.535,2571.959a1.813,1.813,0,1,0,1.812-1.814A1.813,1.813,0,0,0,1333.535,2571.959Z" transform="translate(-256.031 -1743.554)" fill="#4e159c"/>
    <path id="Trazado_8849" data-name="Trazado 8849" d="M1333.535,2636.012a1.813,1.813,0,1,0,1.812-1.812A1.813,1.813,0,0,0,1333.535,2636.012Z" transform="translate(-256.031 -1794.791)" fill="#4e159c"/>
    <path id="Trazado_8850" data-name="Trazado 8850" d="M1333.891,2700.351a1.742,1.742,0,1,0,1.741-1.741A1.741,1.741,0,0,0,1333.891,2700.351Z" transform="translate(-256.315 -1846.312)" fill="#4e159c"/>
    <path id="Trazado_8851" data-name="Trazado 8851" d="M1334.421,2764.83a1.635,1.635,0,1,0,1.635-1.635A1.636,1.636,0,0,0,1334.421,2764.83Z" transform="translate(-256.739 -1897.973)" fill="#4e159c"/>
    <path id="Trazado_8852" data-name="Trazado 8852" d="M1334.777,2829.162a1.564,1.564,0,1,0,1.564-1.565A1.563,1.563,0,0,0,1334.777,2829.162Z" transform="translate(-257.024 -1949.488)" fill="#4e159c"/>
    <circle id="Elipse_330" data-name="Elipse 330" cx="1.457" cy="1.457" r="1.457" transform="translate(1077.859 891.033)" fill="#4e159c"/>
    <path id="Trazado_8853" data-name="Trazado 8853" d="M1335.846,2958.125a1.35,1.35,0,1,0,1.35-1.35A1.35,1.35,0,0,0,1335.846,2958.125Z" transform="translate(-257.879 -2052.816)" fill="#4e159c"/>
    <path id="Trazado_8854" data-name="Trazado 8854" d="M1336.376,3022.6a1.244,1.244,0,1,0,1.244-1.243A1.244,1.244,0,0,0,1336.376,3022.6Z" transform="translate(-258.303 -2104.477)" fill="#4e159c"/>
    <circle id="Elipse_331" data-name="Elipse 331" cx="1.137" cy="1.137" r="1.137" transform="translate(1078.179 929.807)" fill="#4e159c"/>
    <path id="Trazado_8855" data-name="Trazado 8855" d="M1337.445,3151.559a1.03,1.03,0,1,0,1.03-1.03A1.03,1.03,0,0,0,1337.445,3151.559Z" transform="translate(-259.158 -2207.798)" fill="#4e159c"/>
    <path id="Trazado_8856" data-name="Trazado 8856" d="M1338.506,3280.517a.817.817,0,1,0,.818-.818A.818.818,0,0,0,1338.506,3280.517Z" transform="translate(-260.007 -2311.12)" fill="#4e159c"/>
    <path id="Trazado_8857" data-name="Trazado 8857" d="M1339.044,3344.994a.71.71,0,1,0,.71-.711A.71.71,0,0,0,1339.044,3344.994Z" transform="translate(-260.437 -2362.78)" fill="#4e159c"/>
    <path id="Trazado_8858" data-name="Trazado 8858" d="M1339.392,3409.334a.64.64,0,1,0,.64-.64A.639.639,0,0,0,1339.392,3409.334Z" transform="translate(-260.716 -2414.302)" fill="#4e159c"/>
    <path id="Trazado_8859" data-name="Trazado 8859" d="M1339.931,3473.811a.533.533,0,1,0,.532-.532A.533.533,0,0,0,1339.931,3473.811Z" transform="translate(-261.147 -2465.963)" fill="#4e159c"/>
    <path id="Trazado_8860" data-name="Trazado 8860" d="M1340.461,3538.29a.426.426,0,1,0,.426-.426A.426.426,0,0,0,1340.461,3538.29Z" transform="translate(-261.571 -2517.624)" fill="#4e159c"/>
    <circle id="Elipse_332" data-name="Elipse 332" cx="0.32" cy="0.32" r="0.32" transform="translate(1078.996 1033.164)" fill="#4e159c"/>
    <path id="Trazado_8861" data-name="Trazado 8861" d="M1341.53,3667.247a.213.213,0,0,0,.426,0,.213.213,0,1,0-.426,0Z" transform="translate(-262.426 -2620.945)" fill="#4e159c"/>
    <path id="Trazado_8862" data-name="Trazado 8862" d="M1341.878,3731.585a.143.143,0,1,0,.285,0,.143.143,0,0,0-.285,0Z" transform="translate(-262.704 -2672.468)" fill="#4e159c"/>
    <path id="Trazado_8863" data-name="Trazado 8863" d="M1342.417,3796.063a.035.035,0,0,0,.035.037.037.037,0,0,0,.036-.037.036.036,0,0,0-.036-.035A.034.034,0,0,0,1342.417,3796.063Z" transform="translate(-263.135 -2724.126)" fill="#4e159c"/>
    <path id="Trazado_8864" data-name="Trazado 8864" d="M1267.525,392.608a2.2,2.2,0,1,0,2.2-2.2A2.2,2.2,0,0,0,1267.525,392.608Z" transform="translate(-203.23)" fill="#4e159c"/>
    <path id="Trazado_8865" data-name="Trazado 8865" d="M1269.836,458.512a1.742,1.742,0,1,0,1.741-1.741A1.741,1.741,0,0,0,1269.836,458.512Z" transform="translate(-205.078 -53.086)" fill="#4e159c"/>
    <path id="Trazado_8866" data-name="Trazado 8866" d="M1269.836,522.56a1.742,1.742,0,1,0,1.741-1.743A1.741,1.741,0,0,0,1269.836,522.56Z" transform="translate(-205.078 -104.315)" fill="#4e159c"/>
    <path id="Trazado_8867" data-name="Trazado 8867" d="M1269.836,586.615a1.742,1.742,0,1,0,1.741-1.743A1.741,1.741,0,0,0,1269.836,586.615Z" transform="translate(-205.078 -155.552)" fill="#4e159c"/>
    <path id="Trazado_8868" data-name="Trazado 8868" d="M1269.836,650.667a1.742,1.742,0,1,0,1.741-1.741A1.742,1.742,0,0,0,1269.836,650.667Z" transform="translate(-205.078 -206.789)" fill="#4e159c"/>
    <path id="Trazado_8869" data-name="Trazado 8869" d="M1269.836,714.722a1.742,1.742,0,1,0,1.741-1.741A1.743,1.743,0,0,0,1269.836,714.722Z" transform="translate(-205.078 -258.026)" fill="#4e159c"/>
    <path id="Trazado_8870" data-name="Trazado 8870" d="M1269.836,778.77a1.742,1.742,0,1,0,1.741-1.743A1.741,1.741,0,0,0,1269.836,778.77Z" transform="translate(-205.078 -309.255)" fill="#4e159c"/>
    <path id="Trazado_8871" data-name="Trazado 8871" d="M1269.836,842.825a1.742,1.742,0,1,0,1.741-1.742A1.741,1.741,0,0,0,1269.836,842.825Z" transform="translate(-205.078 -360.493)" fill="#4e159c"/>
    <path id="Trazado_8872" data-name="Trazado 8872" d="M1269.836,906.877a1.742,1.742,0,1,0,1.741-1.741A1.741,1.741,0,0,0,1269.836,906.877Z" transform="translate(-205.078 -411.729)" fill="#4e159c"/>
    <path id="Trazado_8873" data-name="Trazado 8873" d="M1269.836,970.931a1.742,1.742,0,1,0,1.741-1.741A1.742,1.742,0,0,0,1269.836,970.931Z" transform="translate(-205.078 -462.965)" fill="#4e159c"/>
    <path id="Trazado_8874" data-name="Trazado 8874" d="M1269.662,1034.839a1.777,1.777,0,1,0,1.776-1.777A1.777,1.777,0,0,0,1269.662,1034.839Z" transform="translate(-204.939 -514.055)" fill="#4e159c"/>
    <path id="Trazado_8875" data-name="Trazado 8875" d="M1269.662,1098.894a1.777,1.777,0,1,0,1.776-1.777A1.777,1.777,0,0,0,1269.662,1098.894Z" transform="translate(-204.939 -565.292)" fill="#4e159c"/>
    <path id="Trazado_8876" data-name="Trazado 8876" d="M1269.662,1162.948a1.777,1.777,0,1,0,1.776-1.777A1.777,1.777,0,0,0,1269.662,1162.948Z" transform="translate(-204.939 -616.529)" fill="#4e159c"/>
    <path id="Trazado_8877" data-name="Trazado 8877" d="M1269.662,1226.994a1.777,1.777,0,1,0,1.776-1.777A1.777,1.777,0,0,0,1269.662,1226.994Z" transform="translate(-204.939 -667.759)" fill="#4e159c"/>
    <path id="Trazado_8878" data-name="Trazado 8878" d="M1269.662,1291.049a1.777,1.777,0,1,0,1.776-1.777A1.777,1.777,0,0,0,1269.662,1291.049Z" transform="translate(-204.939 -718.995)" fill="#4e159c"/>
    <path id="Trazado_8879" data-name="Trazado 8879" d="M1269.662,1355.1a1.777,1.777,0,1,0,1.776-1.777A1.777,1.777,0,0,0,1269.662,1355.1Z" transform="translate(-204.939 -770.232)" fill="#4e159c"/>
    <path id="Trazado_8880" data-name="Trazado 8880" d="M1269.662,1419.158a1.777,1.777,0,1,0,1.776-1.777A1.775,1.775,0,0,0,1269.662,1419.158Z" transform="translate(-204.939 -821.469)" fill="#4e159c"/>
    <path id="Trazado_8881" data-name="Trazado 8881" d="M1269.662,1483.211a1.777,1.777,0,1,0,1.776-1.776A1.777,1.777,0,0,0,1269.662,1483.211Z" transform="translate(-204.939 -872.705)" fill="#4e159c"/>
    <path id="Trazado_8882" data-name="Trazado 8882" d="M1269.662,1547.258a1.777,1.777,0,1,0,1.776-1.777A1.777,1.777,0,0,0,1269.662,1547.258Z" transform="translate(-204.939 -923.935)" fill="#4e159c"/>
    <path id="Trazado_8883" data-name="Trazado 8883" d="M1269.662,1611.314a1.777,1.777,0,1,0,1.776-1.778A1.777,1.777,0,0,0,1269.662,1611.314Z" transform="translate(-204.939 -975.172)" fill="#4e159c"/>
    <path id="Trazado_8884" data-name="Trazado 8884" d="M1269.662,1675.367a1.777,1.777,0,1,0,1.776-1.777A1.777,1.777,0,0,0,1269.662,1675.367Z" transform="translate(-204.939 -1026.408)" fill="#4e159c"/>
    <path id="Trazado_8885" data-name="Trazado 8885" d="M1269.662,1739.421a1.777,1.777,0,1,0,1.776-1.775A1.777,1.777,0,0,0,1269.662,1739.421Z" transform="translate(-204.939 -1077.646)" fill="#4e159c"/>
    <path id="Trazado_8886" data-name="Trazado 8886" d="M1269.662,1803.469a1.777,1.777,0,1,0,1.776-1.777A1.777,1.777,0,0,0,1269.662,1803.469Z" transform="translate(-204.939 -1128.875)" fill="#4e159c"/>
    <path id="Trazado_8887" data-name="Trazado 8887" d="M1269.662,1867.522a1.777,1.777,0,1,0,1.776-1.777A1.777,1.777,0,0,0,1269.662,1867.522Z" transform="translate(-204.939 -1180.111)" fill="#4e159c"/>
    <path id="Trazado_8888" data-name="Trazado 8888" d="M1269.662,1931.577a1.777,1.777,0,1,0,1.776-1.777A1.777,1.777,0,0,0,1269.662,1931.577Z" transform="translate(-204.939 -1231.348)" fill="#4e159c"/>
    <path id="Trazado_8889" data-name="Trazado 8889" d="M1269.662,1995.631a1.777,1.777,0,1,0,1.776-1.777A1.776,1.776,0,0,0,1269.662,1995.631Z" transform="translate(-204.939 -1282.584)" fill="#4e159c"/>
    <path id="Trazado_8890" data-name="Trazado 8890" d="M1269.662,2059.677a1.777,1.777,0,1,0,1.776-1.777A1.777,1.777,0,0,0,1269.662,2059.677Z" transform="translate(-204.939 -1333.814)" fill="#4e159c"/>
    <path id="Trazado_8891" data-name="Trazado 8891" d="M1269.48,2123.593a1.813,1.813,0,1,0,1.812-1.812A1.812,1.812,0,0,0,1269.48,2123.593Z" transform="translate(-204.794 -1384.912)" fill="#4e159c"/>
    <path id="Trazado_8892" data-name="Trazado 8892" d="M1269.48,2187.647a1.813,1.813,0,1,0,1.812-1.812A1.813,1.813,0,0,0,1269.48,2187.647Z" transform="translate(-204.794 -1436.148)" fill="#4e159c"/>
    <path id="Trazado_8893" data-name="Trazado 8893" d="M1269.48,2251.695a1.813,1.813,0,1,0,1.812-1.814A1.813,1.813,0,0,0,1269.48,2251.695Z" transform="translate(-204.794 -1487.378)" fill="#4e159c"/>
    <path id="Trazado_8894" data-name="Trazado 8894" d="M1269.48,2315.748a1.813,1.813,0,1,0,1.812-1.812A1.814,1.814,0,0,0,1269.48,2315.748Z" transform="translate(-204.794 -1538.615)" fill="#4e159c"/>
    <path id="Trazado_8895" data-name="Trazado 8895" d="M1269.48,2379.8a1.813,1.813,0,1,0,1.812-1.812A1.812,1.812,0,0,0,1269.48,2379.8Z" transform="translate(-204.794 -1589.851)" fill="#4e159c"/>
    <path id="Trazado_8896" data-name="Trazado 8896" d="M1269.48,2443.857a1.813,1.813,0,1,0,1.812-1.812A1.812,1.812,0,0,0,1269.48,2443.857Z" transform="translate(-204.794 -1641.088)" fill="#4e159c"/>
    <path id="Trazado_8897" data-name="Trazado 8897" d="M1269.48,2507.9a1.813,1.813,0,1,0,1.812-1.814A1.812,1.812,0,0,0,1269.48,2507.9Z" transform="translate(-204.794 -1692.318)" fill="#4e159c"/>
    <path id="Trazado_8898" data-name="Trazado 8898" d="M1269.48,2571.959a1.813,1.813,0,1,0,1.812-1.814A1.814,1.814,0,0,0,1269.48,2571.959Z" transform="translate(-204.794 -1743.554)" fill="#4e159c"/>
    <path id="Trazado_8899" data-name="Trazado 8899" d="M1269.48,2636.012a1.813,1.813,0,1,0,1.812-1.812A1.814,1.814,0,0,0,1269.48,2636.012Z" transform="translate(-204.794 -1794.791)" fill="#4e159c"/>
    <path id="Trazado_8900" data-name="Trazado 8900" d="M1269.836,2700.351a1.742,1.742,0,1,0,1.741-1.741A1.741,1.741,0,0,0,1269.836,2700.351Z" transform="translate(-205.078 -1846.312)" fill="#4e159c"/>
    <path id="Trazado_8901" data-name="Trazado 8901" d="M1270.367,2764.83A1.636,1.636,0,1,0,1272,2763.2,1.636,1.636,0,0,0,1270.367,2764.83Z" transform="translate(-205.503 -1897.973)" fill="#4e159c"/>
    <path id="Trazado_8902" data-name="Trazado 8902" d="M1270.723,2829.162a1.564,1.564,0,1,0,1.563-1.565A1.564,1.564,0,0,0,1270.723,2829.162Z" transform="translate(-205.788 -1949.488)" fill="#4e159c"/>
    <path id="Trazado_8903" data-name="Trazado 8903" d="M1271.261,2893.639a1.457,1.457,0,1,0,1.456-1.458A1.456,1.456,0,0,0,1271.261,2893.639Z" transform="translate(-206.218 -2001.148)" fill="#4e159c"/>
    <path id="Trazado_8904" data-name="Trazado 8904" d="M1271.792,2958.125a1.35,1.35,0,1,0,1.349-1.35A1.351,1.351,0,0,0,1271.792,2958.125Z" transform="translate(-206.643 -2052.816)" fill="#4e159c"/>
    <path id="Trazado_8905" data-name="Trazado 8905" d="M1272.322,3022.6a1.244,1.244,0,1,0,1.244-1.243A1.244,1.244,0,0,0,1272.322,3022.6Z" transform="translate(-207.067 -2104.477)" fill="#4e159c"/>
    <path id="Trazado_9074" data-name="Trazado 9074" d="M1272.322,3022.6a1.244,1.244,0,1,0,1.244-1.243A1.244,1.244,0,0,0,1272.322,3022.6Z" transform="translate(-220.067 -2104.477)" fill="#4e159c"/>
    <circle id="Elipse_333" data-name="Elipse 333" cx="1.137" cy="1.137" r="1.137" transform="translate(1065.361 929.807)" fill="#4e159c"/>
    <path id="Trazado_8906" data-name="Trazado 8906" d="M1273.391,3151.559a1.03,1.03,0,1,0,1.03-1.03A1.03,1.03,0,0,0,1273.391,3151.559Z" transform="translate(-207.922 -2207.798)" fill="#4e159c"/>
    <path id="Trazado_8907" data-name="Trazado 8907" d="M1273.921,3216.037a.924.924,0,1,0,.923-.923A.925.925,0,0,0,1273.921,3216.037Z" transform="translate(-208.346 -2259.459)" fill="#4e159c"/>
    <path id="Trazado_8908" data-name="Trazado 8908" d="M1274.451,3280.517a.818.818,0,1,0,.818-.818A.818.818,0,0,0,1274.451,3280.517Z" transform="translate(-208.77 -2311.12)" fill="#4e159c"/>
    <path id="Trazado_8909" data-name="Trazado 8909" d="M1274.99,3344.994a.71.71,0,1,0,.71-.711A.711.711,0,0,0,1274.99,3344.994Z" transform="translate(-209.201 -2362.78)" fill="#4e159c"/>
    <path id="Trazado_8910" data-name="Trazado 8910" d="M1275.346,3409.334a.639.639,0,1,0,.638-.64A.638.638,0,0,0,1275.346,3409.334Z" transform="translate(-209.486 -2414.302)" fill="#4e159c"/>
    <path id="Trazado_8911" data-name="Trazado 8911" d="M1275.876,3473.811a.533.533,0,1,0,.532-.532A.533.533,0,0,0,1275.876,3473.811Z" transform="translate(-209.91 -2465.963)" fill="#4e159c"/>
    <path id="Trazado_8912" data-name="Trazado 8912" d="M1276.407,3538.29a.427.427,0,1,0,.426-.426A.426.426,0,0,0,1276.407,3538.29Z" transform="translate(-210.334 -2517.624)" fill="#4e159c"/>
    <path id="Trazado_8913" data-name="Trazado 8913" d="M1276.945,3602.768a.319.319,0,1,0,.318-.32A.319.319,0,0,0,1276.945,3602.768Z" transform="translate(-210.765 -2569.284)" fill="#4e159c"/>
    <path id="Trazado_8914" data-name="Trazado 8914" d="M1277.476,3667.247a.213.213,0,1,0,.212-.214A.211.211,0,0,0,1277.476,3667.247Z" transform="translate(-211.19 -2620.945)" fill="#4e159c"/>
    <path id="Trazado_8915" data-name="Trazado 8915" d="M1277.832,3731.585a.142.142,0,1,0,.141-.14A.141.141,0,0,0,1277.832,3731.585Z" transform="translate(-211.474 -2672.468)" fill="#4e159c"/>
    <path id="Trazado_8916" data-name="Trazado 8916" d="M1278.362,3796.063a.036.036,0,1,0,.071,0,.036.036,0,0,0-.071,0Z" transform="translate(-211.898 -2724.126)" fill="#4e159c"/>
    <circle id="Elipse_334" data-name="Elipse 334" cx="2.203" cy="2.203" r="2.203" transform="translate(1051.479 390.405)" fill="#4e159c"/>
    <path id="Trazado_8917" data-name="Trazado 8917" d="M1205.782,458.512a1.742,1.742,0,1,0,1.742-1.741A1.742,1.742,0,0,0,1205.782,458.512Z" transform="translate(-153.842 -53.086)" fill="#4e159c"/>
    <path id="Trazado_8918" data-name="Trazado 8918" d="M1205.782,522.56a1.742,1.742,0,1,0,1.742-1.743A1.742,1.742,0,0,0,1205.782,522.56Z" transform="translate(-153.842 -104.315)" fill="#4e159c"/>
    <path id="Trazado_8919" data-name="Trazado 8919" d="M1205.782,586.615a1.742,1.742,0,1,0,1.742-1.743A1.742,1.742,0,0,0,1205.782,586.615Z" transform="translate(-153.842 -155.552)" fill="#4e159c"/>
    <path id="Trazado_8920" data-name="Trazado 8920" d="M1205.782,650.667a1.742,1.742,0,1,0,1.742-1.741A1.744,1.744,0,0,0,1205.782,650.667Z" transform="translate(-153.842 -206.789)" fill="#4e159c"/>
    <path id="Trazado_8921" data-name="Trazado 8921" d="M1205.782,714.722a1.742,1.742,0,1,0,1.742-1.741A1.744,1.744,0,0,0,1205.782,714.722Z" transform="translate(-153.842 -258.026)" fill="#4e159c"/>
    <path id="Trazado_8922" data-name="Trazado 8922" d="M1205.782,778.77a1.742,1.742,0,1,0,1.742-1.743A1.742,1.742,0,0,0,1205.782,778.77Z" transform="translate(-153.842 -309.255)" fill="#4e159c"/>
    <path id="Trazado_8923" data-name="Trazado 8923" d="M1205.782,842.825a1.742,1.742,0,1,0,1.742-1.742A1.742,1.742,0,0,0,1205.782,842.825Z" transform="translate(-153.842 -360.493)" fill="#4e159c"/>
    <path id="Trazado_8924" data-name="Trazado 8924" d="M1205.782,906.877a1.742,1.742,0,1,0,1.742-1.741A1.742,1.742,0,0,0,1205.782,906.877Z" transform="translate(-153.842 -411.729)" fill="#4e159c"/>
    <path id="Trazado_8925" data-name="Trazado 8925" d="M1205.782,970.931a1.742,1.742,0,1,0,1.742-1.741A1.744,1.744,0,0,0,1205.782,970.931Z" transform="translate(-153.842 -462.965)" fill="#4e159c"/>
    <circle id="Elipse_335" data-name="Elipse 335" cx="1.777" cy="1.777" r="1.777" transform="translate(1051.905 519.007)" fill="#4e159c"/>
    <circle id="Elipse_336" data-name="Elipse 336" cx="1.777" cy="1.777" r="1.777" transform="translate(1051.905 531.824)" fill="#4e159c"/>
    <path id="Trazado_8926" data-name="Trazado 8926" d="M1205.608,1162.948a1.777,1.777,0,1,0,1.777-1.777A1.777,1.777,0,0,0,1205.608,1162.948Z" transform="translate(-153.703 -616.529)" fill="#4e159c"/>
    <circle id="Elipse_337" data-name="Elipse 337" cx="1.777" cy="1.777" r="1.777" transform="translate(1051.905 557.459)" fill="#4e159c"/>
    <circle id="Elipse_338" data-name="Elipse 338" cx="1.777" cy="1.777" r="1.777" transform="translate(1051.905 570.276)" fill="#4e159c"/>
    <circle id="Elipse_339" data-name="Elipse 339" cx="1.777" cy="1.777" r="1.777" transform="translate(1051.905 583.094)" fill="#4e159c"/>
    <path id="Trazado_8927" data-name="Trazado 8927" d="M1205.608,1419.158a1.777,1.777,0,1,0,1.777-1.777A1.776,1.776,0,0,0,1205.608,1419.158Z" transform="translate(-153.703 -821.469)" fill="#4e159c"/>
    <path id="Trazado_8928" data-name="Trazado 8928" d="M1205.608,1483.211a1.777,1.777,0,1,0,1.777-1.776A1.777,1.777,0,0,0,1205.608,1483.211Z" transform="translate(-153.703 -872.705)" fill="#4e159c"/>
    <circle id="Elipse_340" data-name="Elipse 340" cx="1.777" cy="1.777" r="1.777" transform="translate(1051.905 621.546)" fill="#4e159c"/>
    <path id="Trazado_8929" data-name="Trazado 8929" d="M1205.608,1611.314a1.777,1.777,0,1,0,1.777-1.778A1.777,1.777,0,0,0,1205.608,1611.314Z" transform="translate(-153.703 -975.172)" fill="#4e159c"/>
    <circle id="Elipse_341" data-name="Elipse 341" cx="1.777" cy="1.777" r="1.777" transform="translate(1051.905 647.182)" fill="#4e159c"/>
    <path id="Trazado_8930" data-name="Trazado 8930" d="M1205.608,1739.421a1.777,1.777,0,1,0,1.777-1.775A1.777,1.777,0,0,0,1205.608,1739.421Z" transform="translate(-153.703 -1077.646)" fill="#4e159c"/>
    <path id="Trazado_8931" data-name="Trazado 8931" d="M1205.608,1803.469a1.777,1.777,0,1,0,1.777-1.777A1.777,1.777,0,0,0,1205.608,1803.469Z" transform="translate(-153.703 -1128.875)" fill="#4e159c"/>
    <circle id="Elipse_342" data-name="Elipse 342" cx="1.777" cy="1.777" r="1.777" transform="translate(1051.905 685.634)" fill="#4e159c"/>
    <circle id="Elipse_343" data-name="Elipse 343" cx="1.777" cy="1.777" r="1.777" transform="translate(1051.905 698.452)" fill="#4e159c"/>
    <path id="Trazado_8932" data-name="Trazado 8932" d="M1205.608,1995.631a1.777,1.777,0,1,0,1.777-1.777A1.776,1.776,0,0,0,1205.608,1995.631Z" transform="translate(-153.703 -1282.584)" fill="#4e159c"/>
    <circle id="Elipse_344" data-name="Elipse 344" cx="1.777" cy="1.777" r="1.777" transform="translate(1051.905 724.086)" fill="#4e159c"/>
    <path id="Trazado_8933" data-name="Trazado 8933" d="M1205.426,2123.593a1.813,1.813,0,1,0,1.814-1.812A1.813,1.813,0,0,0,1205.426,2123.593Z" transform="translate(-153.557 -1384.912)" fill="#4e159c"/>
    <path id="Trazado_8934" data-name="Trazado 8934" d="M1205.426,2187.647a1.813,1.813,0,1,0,1.814-1.812A1.813,1.813,0,0,0,1205.426,2187.647Z" transform="translate(-153.557 -1436.148)" fill="#4e159c"/>
    <path id="Trazado_8935" data-name="Trazado 8935" d="M1205.426,2251.695a1.813,1.813,0,1,0,1.814-1.814A1.814,1.814,0,0,0,1205.426,2251.695Z" transform="translate(-153.557 -1487.378)" fill="#4e159c"/>
    <path id="Trazado_8936" data-name="Trazado 8936" d="M1205.426,2315.748a1.813,1.813,0,1,0,1.814-1.812A1.814,1.814,0,0,0,1205.426,2315.748Z" transform="translate(-153.557 -1538.615)" fill="#4e159c"/>
    <path id="Trazado_8937" data-name="Trazado 8937" d="M1205.426,2379.8a1.813,1.813,0,1,0,1.814-1.812A1.813,1.813,0,0,0,1205.426,2379.8Z" transform="translate(-153.557 -1589.851)" fill="#4e159c"/>
    <path id="Trazado_8938" data-name="Trazado 8938" d="M1205.426,2443.857a1.813,1.813,0,1,0,1.814-1.812A1.813,1.813,0,0,0,1205.426,2443.857Z" transform="translate(-153.557 -1641.088)" fill="#4e159c"/>
    <path id="Trazado_8939" data-name="Trazado 8939" d="M1205.426,2507.9a1.813,1.813,0,1,0,1.814-1.814A1.813,1.813,0,0,0,1205.426,2507.9Z" transform="translate(-153.557 -1692.318)" fill="#4e159c"/>
    <path id="Trazado_8940" data-name="Trazado 8940" d="M1205.426,2571.959a1.813,1.813,0,1,0,1.814-1.814A1.814,1.814,0,0,0,1205.426,2571.959Z" transform="translate(-153.557 -1743.554)" fill="#4e159c"/>
    <path id="Trazado_8941" data-name="Trazado 8941" d="M1205.426,2636.012a1.813,1.813,0,1,0,1.814-1.812A1.814,1.814,0,0,0,1205.426,2636.012Z" transform="translate(-153.557 -1794.791)" fill="#4e159c"/>
    <path id="Trazado_8942" data-name="Trazado 8942" d="M1205.782,2700.351a1.742,1.742,0,1,0,1.742-1.741A1.742,1.742,0,0,0,1205.782,2700.351Z" transform="translate(-153.842 -1846.312)" fill="#4e159c"/>
    <path id="Trazado_8943" data-name="Trazado 8943" d="M1206.321,2764.83a1.635,1.635,0,1,0,1.635-1.635A1.635,1.635,0,0,0,1206.321,2764.83Z" transform="translate(-154.273 -1897.973)" fill="#4e159c"/>
    <path id="Trazado_8944" data-name="Trazado 8944" d="M1206.668,2829.162a1.564,1.564,0,1,0,1.565-1.565A1.565,1.565,0,0,0,1206.668,2829.162Z" transform="translate(-154.551 -1949.488)" fill="#4e159c"/>
    <circle id="Elipse_345" data-name="Elipse 345" cx="1.457" cy="1.457" r="1.457" transform="translate(1052.225 891.033)" fill="#4e159c"/>
    <path id="Trazado_8945" data-name="Trazado 8945" d="M1207.737,2958.125a1.35,1.35,0,1,0,1.351-1.35A1.352,1.352,0,0,0,1207.737,2958.125Z" transform="translate(-155.406 -2052.816)" fill="#4e159c"/>
    <circle id="Elipse_346" data-name="Elipse 346" cx="1.137" cy="1.137" r="1.137" transform="translate(1052.545 929.807)" fill="#4e159c"/>
    <path id="Trazado_8946" data-name="Trazado 8946" d="M1209.336,3151.559a1.03,1.03,0,1,0,1.031-1.03A1.03,1.03,0,0,0,1209.336,3151.559Z" transform="translate(-156.685 -2207.798)" fill="#4e159c"/>
    <path id="Trazado_8947" data-name="Trazado 8947" d="M1209.867,3216.037a.924.924,0,1,0,.925-.923A.925.925,0,0,0,1209.867,3216.037Z" transform="translate(-157.11 -2259.459)" fill="#4e159c"/>
    <path id="Trazado_8948" data-name="Trazado 8948" d="M1210.405,3280.517a.817.817,0,1,0,.817-.818A.817.817,0,0,0,1210.405,3280.517Z" transform="translate(-157.54 -2311.12)" fill="#4e159c"/>
    <path id="Trazado_8949" data-name="Trazado 8949" d="M1210.935,3344.994a.711.711,0,1,0,.711-.711A.712.712,0,0,0,1210.935,3344.994Z" transform="translate(-157.964 -2362.78)" fill="#4e159c"/>
    <path id="Trazado_8950" data-name="Trazado 8950" d="M1211.292,3409.334a.64.64,0,1,0,.64-.64A.639.639,0,0,0,1211.292,3409.334Z" transform="translate(-158.25 -2414.302)" fill="#4e159c"/>
    <path id="Trazado_8951" data-name="Trazado 8951" d="M1211.822,3473.811a.533.533,0,1,0,.534-.532A.533.533,0,0,0,1211.822,3473.811Z" transform="translate(-158.674 -2465.963)" fill="#4e159c"/>
    <path id="Trazado_8952" data-name="Trazado 8952" d="M1212.352,3538.29a.427.427,0,1,0,.428-.426A.428.428,0,0,0,1212.352,3538.29Z" transform="translate(-159.098 -2517.624)" fill="#4e159c"/>
    <circle id="Elipse_347" data-name="Elipse 347" cx="0.32" cy="0.32" r="0.32" transform="translate(1053.362 1033.164)" fill="#4e159c"/>
    <path id="Trazado_8953" data-name="Trazado 8953" d="M1213.421,3667.247a.213.213,0,1,0,.214-.214A.213.213,0,0,0,1213.421,3667.247Z" transform="translate(-159.953 -2620.945)" fill="#4e159c"/>
    <path id="Trazado_8954" data-name="Trazado 8954" d="M1213.777,3731.585a.142.142,0,1,0,.143-.14A.141.141,0,0,0,1213.777,3731.585Z" transform="translate(-160.237 -2672.468)" fill="#4e159c"/>
    <path id="Trazado_8955" data-name="Trazado 8955" d="M1214.308,3796.063a.037.037,0,0,0,.036.037.035.035,0,0,0,.035-.037.034.034,0,0,0-.035-.035A.036.036,0,0,0,1214.308,3796.063Z" transform="translate(-160.662 -2724.126)" fill="#4e159c"/>
    <circle id="Elipse_348" data-name="Elipse 348" cx="2.203" cy="2.203" r="2.203" transform="translate(1038.661 390.405)" fill="#4e159c"/>
    <circle id="Elipse_349" data-name="Elipse 349" cx="1.741" cy="1.741" r="1.741" transform="translate(1039.124 403.685)" fill="#4e159c"/>
    <path id="Trazado_8956" data-name="Trazado 8956" d="M1141.736,522.56a1.741,1.741,0,1,0,1.741-1.743A1.741,1.741,0,0,0,1141.736,522.56Z" transform="translate(-102.612 -104.315)" fill="#4e159c"/>
    <path id="Trazado_8957" data-name="Trazado 8957" d="M1141.736,586.615a1.741,1.741,0,1,0,1.741-1.743A1.741,1.741,0,0,0,1141.736,586.615Z" transform="translate(-102.612 -155.552)" fill="#4e159c"/>
    <path id="Trazado_8958" data-name="Trazado 8958" d="M1141.736,650.667a1.741,1.741,0,1,0,1.741-1.741A1.742,1.742,0,0,0,1141.736,650.667Z" transform="translate(-102.612 -206.789)" fill="#4e159c"/>
    <path id="Trazado_8959" data-name="Trazado 8959" d="M1141.736,714.722a1.741,1.741,0,1,0,1.741-1.741A1.742,1.742,0,0,0,1141.736,714.722Z" transform="translate(-102.612 -258.026)" fill="#4e159c"/>
    <path id="Trazado_8960" data-name="Trazado 8960" d="M1141.736,778.77a1.741,1.741,0,1,0,1.741-1.743A1.741,1.741,0,0,0,1141.736,778.77Z" transform="translate(-102.612 -309.255)" fill="#4e159c"/>
    <path id="Trazado_8961" data-name="Trazado 8961" d="M1141.736,842.825a1.741,1.741,0,1,0,1.741-1.742A1.741,1.741,0,0,0,1141.736,842.825Z" transform="translate(-102.612 -360.493)" fill="#4e159c"/>
    <path id="Trazado_8962" data-name="Trazado 8962" d="M1141.736,906.877a1.741,1.741,0,1,0,1.741-1.741A1.741,1.741,0,0,0,1141.736,906.877Z" transform="translate(-102.612 -411.729)" fill="#4e159c"/>
    <path id="Trazado_8963" data-name="Trazado 8963" d="M1141.736,970.931a1.741,1.741,0,1,0,1.741-1.741A1.742,1.742,0,0,0,1141.736,970.931Z" transform="translate(-102.612 -462.965)" fill="#4e159c"/>
    <circle id="Elipse_350" data-name="Elipse 350" cx="1.777" cy="1.777" r="1.777" transform="translate(1039.087 519.007)" fill="#4e159c"/>
    <circle id="Elipse_351" data-name="Elipse 351" cx="1.777" cy="1.777" r="1.777" transform="translate(1039.087 531.824)" fill="#4e159c"/>
    <path id="Trazado_8964" data-name="Trazado 8964" d="M1141.554,1162.948a1.777,1.777,0,1,0,1.777-1.777A1.777,1.777,0,0,0,1141.554,1162.948Z" transform="translate(-102.467 -616.529)" fill="#4e159c"/>
    <circle id="Elipse_352" data-name="Elipse 352" cx="1.777" cy="1.777" r="1.777" transform="translate(1039.087 557.459)" fill="#4e159c"/>
    <circle id="Elipse_353" data-name="Elipse 353" cx="1.777" cy="1.777" r="1.777" transform="translate(1039.087 570.276)" fill="#4e159c"/>
    <circle id="Elipse_354" data-name="Elipse 354" cx="1.777" cy="1.777" r="1.777" transform="translate(1039.087 583.094)" fill="#4e159c"/>
    <path id="Trazado_8965" data-name="Trazado 8965" d="M1141.554,1419.158a1.777,1.777,0,1,0,1.777-1.777A1.776,1.776,0,0,0,1141.554,1419.158Z" transform="translate(-102.467 -821.469)" fill="#4e159c"/>
    <path id="Trazado_8966" data-name="Trazado 8966" d="M1141.554,1483.211a1.777,1.777,0,1,0,1.777-1.776A1.777,1.777,0,0,0,1141.554,1483.211Z" transform="translate(-102.467 -872.705)" fill="#4e159c"/>
    <circle id="Elipse_355" data-name="Elipse 355" cx="1.777" cy="1.777" r="1.777" transform="translate(1039.087 621.546)" fill="#4e159c"/>
    <path id="Trazado_8967" data-name="Trazado 8967" d="M1141.554,1611.314a1.777,1.777,0,1,0,1.777-1.778A1.777,1.777,0,0,0,1141.554,1611.314Z" transform="translate(-102.467 -975.172)" fill="#4e159c"/>
    <circle id="Elipse_356" data-name="Elipse 356" cx="1.777" cy="1.777" r="1.777" transform="translate(1039.087 647.182)" fill="#4e159c"/>
    <path id="Trazado_8968" data-name="Trazado 8968" d="M1141.554,1739.421a1.777,1.777,0,1,0,1.777-1.775A1.778,1.778,0,0,0,1141.554,1739.421Z" transform="translate(-102.467 -1077.646)" fill="#4e159c"/>
    <path id="Trazado_8969" data-name="Trazado 8969" d="M1141.554,1803.469a1.777,1.777,0,1,0,1.777-1.777A1.778,1.778,0,0,0,1141.554,1803.469Z" transform="translate(-102.467 -1128.875)" fill="#4e159c"/>
    <circle id="Elipse_357" data-name="Elipse 357" cx="1.777" cy="1.777" r="1.777" transform="translate(1039.087 685.634)" fill="#4e159c"/>
    <circle id="Elipse_358" data-name="Elipse 358" cx="1.777" cy="1.777" r="1.777" transform="translate(1039.087 698.452)" fill="#4e159c"/>
    <path id="Trazado_8970" data-name="Trazado 8970" d="M1141.554,1995.631a1.777,1.777,0,1,0,1.777-1.777A1.776,1.776,0,0,0,1141.554,1995.631Z" transform="translate(-102.467 -1282.584)" fill="#4e159c"/>
    <circle id="Elipse_359" data-name="Elipse 359" cx="1.777" cy="1.777" r="1.777" transform="translate(1039.087 724.086)" fill="#4e159c"/>
    <circle id="Elipse_360" data-name="Elipse 360" cx="1.812" cy="1.812" r="1.812" transform="translate(1039.052 736.869)" fill="#4e159c"/>
    <path id="Trazado_8971" data-name="Trazado 8971" d="M1141.38,2187.647a1.812,1.812,0,1,0,1.812-1.812A1.812,1.812,0,0,0,1141.38,2187.647Z" transform="translate(-102.328 -1436.148)" fill="#4e159c"/>
    <path id="Trazado_8972" data-name="Trazado 8972" d="M1141.38,2251.695a1.812,1.812,0,1,0,1.812-1.814A1.812,1.812,0,0,0,1141.38,2251.695Z" transform="translate(-102.328 -1487.378)" fill="#4e159c"/>
    <path id="Trazado_8973" data-name="Trazado 8973" d="M1141.38,2315.748a1.812,1.812,0,1,0,1.812-1.812A1.813,1.813,0,0,0,1141.38,2315.748Z" transform="translate(-102.328 -1538.615)" fill="#4e159c"/>
    <circle id="Elipse_361" data-name="Elipse 361" cx="1.812" cy="1.812" r="1.812" transform="translate(1039.052 788.139)" fill="#4e159c"/>
    <path id="Trazado_8974" data-name="Trazado 8974" d="M1141.38,2443.857a1.812,1.812,0,1,0,1.812-1.812A1.811,1.811,0,0,0,1141.38,2443.857Z" transform="translate(-102.328 -1641.088)" fill="#4e159c"/>
    <path id="Trazado_8975" data-name="Trazado 8975" d="M1141.38,2507.9a1.812,1.812,0,1,0,1.812-1.814A1.811,1.811,0,0,0,1141.38,2507.9Z" transform="translate(-102.328 -1692.318)" fill="#4e159c"/>
    <path id="Trazado_8976" data-name="Trazado 8976" d="M1141.38,2571.959a1.812,1.812,0,1,0,1.812-1.814A1.812,1.812,0,0,0,1141.38,2571.959Z" transform="translate(-102.328 -1743.554)" fill="#4e159c"/>
    <path id="Trazado_8977" data-name="Trazado 8977" d="M1141.38,2636.012a1.812,1.812,0,1,0,1.812-1.812A1.813,1.813,0,0,0,1141.38,2636.012Z" transform="translate(-102.328 -1794.791)" fill="#4e159c"/>
    <circle id="Elipse_362" data-name="Elipse 362" cx="1.741" cy="1.741" r="1.741" transform="translate(1039.124 852.298)" fill="#4e159c"/>
    <path id="Trazado_8978" data-name="Trazado 8978" d="M1142.266,2764.83a1.635,1.635,0,1,0,1.635-1.635A1.635,1.635,0,0,0,1142.266,2764.83Z" transform="translate(-103.036 -1897.973)" fill="#4e159c"/>
    <path id="Trazado_8979" data-name="Trazado 8979" d="M1142.622,2829.162a1.564,1.564,0,1,0,1.563-1.565A1.563,1.563,0,0,0,1142.622,2829.162Z" transform="translate(-103.321 -1949.488)" fill="#4e159c"/>
    <circle id="Elipse_363" data-name="Elipse 363" cx="1.457" cy="1.457" r="1.457" transform="translate(1039.407 891.033)" fill="#4e159c"/>
    <path id="Trazado_8980" data-name="Trazado 8980" d="M1143.683,2958.125a1.351,1.351,0,1,0,1.351-1.35A1.351,1.351,0,0,0,1143.683,2958.125Z" transform="translate(-104.17 -2052.816)" fill="#4e159c"/>
    <circle id="Elipse_364" data-name="Elipse 364" cx="1.243" cy="1.243" r="1.243" transform="translate(1039.621 916.883)" fill="#4e159c"/>
    <circle id="Elipse_365" data-name="Elipse 365" cx="1.137" cy="1.137" r="1.137" transform="translate(1039.727 929.807)" fill="#4e159c"/>
    <path id="Trazado_8981" data-name="Trazado 8981" d="M1145.282,3151.559a1.031,1.031,0,1,0,1.031-1.03A1.031,1.031,0,0,0,1145.282,3151.559Z" transform="translate(-105.449 -2207.798)" fill="#4e159c"/>
    <path id="Trazado_8982" data-name="Trazado 8982" d="M1145.821,3216.037a.923.923,0,1,0,.923-.923A.924.924,0,0,0,1145.821,3216.037Z" transform="translate(-105.88 -2259.459)" fill="#4e159c"/>
    <path id="Trazado_8983" data-name="Trazado 8983" d="M1146.351,3280.517a.817.817,0,1,0,.817-.818A.818.818,0,0,0,1146.351,3280.517Z" transform="translate(-106.304 -2311.12)" fill="#4e159c"/>
    <path id="Trazado_8984" data-name="Trazado 8984" d="M1146.881,3344.994a.711.711,0,1,0,.711-.711A.712.712,0,0,0,1146.881,3344.994Z" transform="translate(-106.728 -2362.78)" fill="#4e159c"/>
    <path id="Trazado_8985" data-name="Trazado 8985" d="M1147.237,3409.334a.64.64,0,1,0,.64-.64A.639.639,0,0,0,1147.237,3409.334Z" transform="translate(-107.013 -2414.302)" fill="#4e159c"/>
    <path id="Trazado_8986" data-name="Trazado 8986" d="M1147.768,3473.811a.533.533,0,1,0,.534-.532A.533.533,0,0,0,1147.768,3473.811Z" transform="translate(-107.437 -2465.963)" fill="#4e159c"/>
    <path id="Trazado_8987" data-name="Trazado 8987" d="M1148.306,3538.29a.426.426,0,1,0,.426-.426A.426.426,0,0,0,1148.306,3538.29Z" transform="translate(-107.868 -2517.624)" fill="#4e159c"/>
    <circle id="Elipse_366" data-name="Elipse 366" cx="0.32" cy="0.32" r="0.32" transform="translate(1040.544 1033.164)" fill="#4e159c"/>
    <path id="Trazado_8988" data-name="Trazado 8988" d="M1149.367,3667.247a.214.214,0,1,0,.214-.214A.213.213,0,0,0,1149.367,3667.247Z" transform="translate(-108.716 -2620.945)" fill="#4e159c"/>
    <path id="Trazado_8989" data-name="Trazado 8989" d="M1149.723,3731.585a.143.143,0,1,0,.143-.14A.142.142,0,0,0,1149.723,3731.585Z" transform="translate(-109.001 -2672.468)" fill="#4e159c"/>
    <path id="Trazado_8990" data-name="Trazado 8990" d="M1150.253,3796.063a.037.037,0,0,0,.036.037.035.035,0,0,0,.035-.037.034.034,0,0,0-.035-.035A.036.036,0,0,0,1150.253,3796.063Z" transform="translate(-109.425 -2724.126)" fill="#4e159c"/>
    <circle id="Elipse_367" data-name="Elipse 367" cx="2.203" cy="2.203" r="2.203" transform="translate(1025.843 390.405)" fill="#4e159c"/>
    <path id="Trazado_8991" data-name="Trazado 8991" d="M1077.681,458.512a1.742,1.742,0,1,0,1.741-1.741A1.741,1.741,0,0,0,1077.681,458.512Z" transform="translate(-51.375 -53.086)" fill="#4e159c"/>
    <path id="Trazado_8992" data-name="Trazado 8992" d="M1077.681,522.56a1.742,1.742,0,1,0,1.741-1.743A1.741,1.741,0,0,0,1077.681,522.56Z" transform="translate(-51.375 -104.315)" fill="#4e159c"/>
    <path id="Trazado_8993" data-name="Trazado 8993" d="M1077.681,586.615a1.742,1.742,0,1,0,1.741-1.743A1.741,1.741,0,0,0,1077.681,586.615Z" transform="translate(-51.375 -155.552)" fill="#4e159c"/>
    <path id="Trazado_8994" data-name="Trazado 8994" d="M1077.681,650.667a1.742,1.742,0,1,0,1.741-1.741A1.742,1.742,0,0,0,1077.681,650.667Z" transform="translate(-51.375 -206.789)" fill="#4e159c"/>
    <path id="Trazado_8995" data-name="Trazado 8995" d="M1077.681,714.722a1.742,1.742,0,1,0,1.741-1.741A1.742,1.742,0,0,0,1077.681,714.722Z" transform="translate(-51.375 -258.026)" fill="#4e159c"/>
    <path id="Trazado_8996" data-name="Trazado 8996" d="M1077.681,778.77a1.742,1.742,0,1,0,1.741-1.743A1.741,1.741,0,0,0,1077.681,778.77Z" transform="translate(-51.375 -309.255)" fill="#4e159c"/>
    <path id="Trazado_8997" data-name="Trazado 8997" d="M1077.681,842.825a1.742,1.742,0,1,0,1.741-1.742A1.741,1.741,0,0,0,1077.681,842.825Z" transform="translate(-51.375 -360.493)" fill="#4e159c"/>
    <path id="Trazado_8998" data-name="Trazado 8998" d="M1077.681,906.877a1.742,1.742,0,1,0,1.741-1.741A1.741,1.741,0,0,0,1077.681,906.877Z" transform="translate(-51.375 -411.729)" fill="#4e159c"/>
    <path id="Trazado_8999" data-name="Trazado 8999" d="M1077.681,970.931a1.742,1.742,0,1,0,1.741-1.741A1.742,1.742,0,0,0,1077.681,970.931Z" transform="translate(-51.375 -462.965)" fill="#4e159c"/>
    <circle id="Elipse_368" data-name="Elipse 368" cx="1.777" cy="1.777" r="1.777" transform="translate(1026.269 519.007)" fill="#4e159c"/>
    <circle id="Elipse_369" data-name="Elipse 369" cx="1.777" cy="1.777" r="1.777" transform="translate(1026.269 531.824)" fill="#4e159c"/>
    <path id="Trazado_9000" data-name="Trazado 9000" d="M1077.5,1162.948a1.777,1.777,0,1,0,1.777-1.777A1.777,1.777,0,0,0,1077.5,1162.948Z" transform="translate(-51.23 -616.529)" fill="#4e159c"/>
    <circle id="Elipse_370" data-name="Elipse 370" cx="1.777" cy="1.777" r="1.777" transform="translate(1026.269 557.459)" fill="#4e159c"/>
    <circle id="Elipse_371" data-name="Elipse 371" cx="1.777" cy="1.777" r="1.777" transform="translate(1026.269 570.276)" fill="#4e159c"/>
    <circle id="Elipse_372" data-name="Elipse 372" cx="1.777" cy="1.777" r="1.777" transform="translate(1026.269 583.094)" fill="#4e159c"/>
    <path id="Trazado_9001" data-name="Trazado 9001" d="M1077.5,1419.158a1.777,1.777,0,1,0,1.777-1.777A1.776,1.776,0,0,0,1077.5,1419.158Z" transform="translate(-51.23 -821.469)" fill="#4e159c"/>
    <path id="Trazado_9002" data-name="Trazado 9002" d="M1077.5,1483.211a1.777,1.777,0,1,0,1.777-1.776A1.778,1.778,0,0,0,1077.5,1483.211Z" transform="translate(-51.23 -872.705)" fill="#4e159c"/>
    <circle id="Elipse_373" data-name="Elipse 373" cx="1.777" cy="1.777" r="1.777" transform="translate(1026.269 621.546)" fill="#4e159c"/>
    <path id="Trazado_9003" data-name="Trazado 9003" d="M1077.5,1611.314a1.777,1.777,0,1,0,1.777-1.778A1.777,1.777,0,0,0,1077.5,1611.314Z" transform="translate(-51.23 -975.172)" fill="#4e159c"/>
    <circle id="Elipse_374" data-name="Elipse 374" cx="1.777" cy="1.777" r="1.777" transform="translate(1026.269 647.182)" fill="#4e159c"/>
    <path id="Trazado_9004" data-name="Trazado 9004" d="M1077.5,1739.421a1.777,1.777,0,1,0,1.777-1.775A1.778,1.778,0,0,0,1077.5,1739.421Z" transform="translate(-51.23 -1077.646)" fill="#4e159c"/>
    <path id="Trazado_9005" data-name="Trazado 9005" d="M1077.5,1803.469a1.777,1.777,0,1,0,1.777-1.777A1.778,1.778,0,0,0,1077.5,1803.469Z" transform="translate(-51.23 -1128.875)" fill="#4e159c"/>
    <circle id="Elipse_375" data-name="Elipse 375" cx="1.777" cy="1.777" r="1.777" transform="translate(1026.269 685.634)" fill="#4e159c"/>
    <circle id="Elipse_376" data-name="Elipse 376" cx="1.777" cy="1.777" r="1.777" transform="translate(1026.269 698.452)" fill="#4e159c"/>
    <path id="Trazado_9006" data-name="Trazado 9006" d="M1077.5,1995.631a1.777,1.777,0,1,0,1.777-1.777A1.776,1.776,0,0,0,1077.5,1995.631Z" transform="translate(-51.23 -1282.584)" fill="#4e159c"/>
    <circle id="Elipse_377" data-name="Elipse 377" cx="1.777" cy="1.777" r="1.777" transform="translate(1026.269 724.086)" fill="#4e159c"/>
    <circle id="Elipse_378" data-name="Elipse 378" cx="1.812" cy="1.812" r="1.812" transform="translate(1026.234 736.869)" fill="#4e159c"/>
    <path id="Trazado_9007" data-name="Trazado 9007" d="M1077.325,2187.647a1.812,1.812,0,1,0,1.812-1.812A1.812,1.812,0,0,0,1077.325,2187.647Z" transform="translate(-51.091 -1436.148)" fill="#4e159c"/>
    <path id="Trazado_9008" data-name="Trazado 9008" d="M1077.325,2251.695a1.812,1.812,0,1,0,1.812-1.814A1.812,1.812,0,0,0,1077.325,2251.695Z" transform="translate(-51.091 -1487.378)" fill="#4e159c"/>
    <path id="Trazado_9009" data-name="Trazado 9009" d="M1077.325,2315.748a1.812,1.812,0,1,0,1.812-1.812A1.813,1.813,0,0,0,1077.325,2315.748Z" transform="translate(-51.091 -1538.615)" fill="#4e159c"/>
    <circle id="Elipse_379" data-name="Elipse 379" cx="1.812" cy="1.812" r="1.812" transform="translate(1026.234 788.139)" fill="#4e159c"/>
    <path id="Trazado_9010" data-name="Trazado 9010" d="M1077.325,2443.857a1.812,1.812,0,1,0,1.812-1.812A1.811,1.811,0,0,0,1077.325,2443.857Z" transform="translate(-51.091 -1641.088)" fill="#4e159c"/>
    <path id="Trazado_9011" data-name="Trazado 9011" d="M1077.325,2507.9a1.812,1.812,0,1,0,1.812-1.814A1.811,1.811,0,0,0,1077.325,2507.9Z" transform="translate(-51.091 -1692.318)" fill="#4e159c"/>
    <path id="Trazado_9012" data-name="Trazado 9012" d="M1077.325,2571.959a1.812,1.812,0,1,0,1.812-1.814A1.813,1.813,0,0,0,1077.325,2571.959Z" transform="translate(-51.091 -1743.554)" fill="#4e159c"/>
    <path id="Trazado_9013" data-name="Trazado 9013" d="M1077.325,2636.012a1.812,1.812,0,1,0,1.812-1.812A1.813,1.813,0,0,0,1077.325,2636.012Z" transform="translate(-51.091 -1794.791)" fill="#4e159c"/>
    <path id="Trazado_9014" data-name="Trazado 9014" d="M1077.681,2700.351a1.742,1.742,0,1,0,1.741-1.741A1.741,1.741,0,0,0,1077.681,2700.351Z" transform="translate(-51.375 -1846.312)" fill="#4e159c"/>
    <path id="Trazado_9015" data-name="Trazado 9015" d="M1078.212,2764.83a1.635,1.635,0,1,0,1.635-1.635A1.636,1.636,0,0,0,1078.212,2764.83Z" transform="translate(-51.8 -1897.973)" fill="#4e159c"/>
    <path id="Trazado_9016" data-name="Trazado 9016" d="M1078.568,2829.162a1.563,1.563,0,1,0,1.563-1.565A1.563,1.563,0,0,0,1078.568,2829.162Z" transform="translate(-52.085 -1949.488)" fill="#4e159c"/>
    <circle id="Elipse_380" data-name="Elipse 380" cx="1.457" cy="1.457" r="1.457" transform="translate(1026.589 891.033)" fill="#4e159c"/>
    <path id="Trazado_9017" data-name="Trazado 9017" d="M1079.637,2958.125a1.35,1.35,0,1,0,1.349-1.35A1.35,1.35,0,0,0,1079.637,2958.125Z" transform="translate(-52.94 -2052.816)" fill="#4e159c"/>
    <circle id="Elipse_381" data-name="Elipse 381" cx="1.243" cy="1.243" r="1.243" transform="translate(1026.803 916.883)" fill="#4e159c"/>
    <circle id="Elipse_382" data-name="Elipse 382" cx="1.137" cy="1.137" r="1.137" transform="translate(1026.909 929.807)" fill="#4e159c"/>
    <path id="Trazado_9018" data-name="Trazado 9018" d="M1081.228,3151.559a1.031,1.031,0,1,0,1.031-1.03A1.031,1.031,0,0,0,1081.228,3151.559Z" transform="translate(-54.213 -2207.798)" fill="#4e159c"/>
    <path id="Trazado_9019" data-name="Trazado 9019" d="M1081.766,3216.037a.924.924,0,1,0,.923-.923A.924.924,0,0,0,1081.766,3216.037Z" transform="translate(-54.643 -2259.459)" fill="#4e159c"/>
    <path id="Trazado_9020" data-name="Trazado 9020" d="M1082.3,3280.517a.817.817,0,1,0,.817-.818A.818.818,0,0,0,1082.3,3280.517Z" transform="translate(-55.067 -2311.12)" fill="#4e159c"/>
    <path id="Trazado_9021" data-name="Trazado 9021" d="M1082.827,3344.994a.711.711,0,1,0,.711-.711A.712.712,0,0,0,1082.827,3344.994Z" transform="translate(-55.492 -2362.78)" fill="#4e159c"/>
    <path id="Trazado_9022" data-name="Trazado 9022" d="M1083.183,3409.334a.64.64,0,1,0,.64-.64A.639.639,0,0,0,1083.183,3409.334Z" transform="translate(-55.776 -2414.302)" fill="#4e159c"/>
    <path id="Trazado_9023" data-name="Trazado 9023" d="M1083.721,3473.811a.533.533,0,1,0,.532-.532A.533.533,0,0,0,1083.721,3473.811Z" transform="translate(-56.207 -2465.963)" fill="#4e159c"/>
    <path id="Trazado_9024" data-name="Trazado 9024" d="M1084.252,3538.29a.426.426,0,1,0,.426-.426A.426.426,0,0,0,1084.252,3538.29Z" transform="translate(-56.631 -2517.624)" fill="#4e159c"/>
    <circle id="Elipse_383" data-name="Elipse 383" cx="0.32" cy="0.32" r="0.32" transform="translate(1027.727 1033.164)" fill="#4e159c"/>
    <path id="Trazado_9025" data-name="Trazado 9025" d="M1085.321,3667.247a.213.213,0,0,0,.426,0,.213.213,0,1,0-.426,0Z" transform="translate(-57.487 -2620.945)" fill="#4e159c"/>
    <path id="Trazado_9026" data-name="Trazado 9026" d="M1085.668,3731.585a.143.143,0,0,0,.285,0,.143.143,0,0,0-.285,0Z" transform="translate(-57.764 -2672.468)" fill="#4e159c"/>
    <path id="Trazado_9027" data-name="Trazado 9027" d="M1086.207,3796.063a.035.035,0,0,0,.035.037.037.037,0,0,0,.036-.037.036.036,0,0,0-.036-.035A.034.034,0,0,0,1086.207,3796.063Z" transform="translate(-58.195 -2724.126)" fill="#4e159c"/>
    <path id="Trazado_9028" data-name="Trazado 9028" d="M1013.453,394.311a1.777,1.777,0,1,0,1.776-1.777A1.776,1.776,0,0,0,1013.453,394.311Z" transform="translate(0 -1.703)" fill="#4e159c"/>
    <path id="Trazado_9029" data-name="Trazado 9029" d="M1014.87,459.506a1.493,1.493,0,1,0,1.492-1.492A1.492,1.492,0,0,0,1014.87,459.506Z" transform="translate(-1.133 -54.08)" fill="#4e159c"/>
    <path id="Trazado_9030" data-name="Trazado 9030" d="M1014.87,523.554a1.493,1.493,0,1,0,1.492-1.494A1.492,1.492,0,0,0,1014.87,523.554Z" transform="translate(-1.133 -105.31)" fill="#4e159c"/>
    <path id="Trazado_9031" data-name="Trazado 9031" d="M1014.87,587.609a1.493,1.493,0,1,0,1.492-1.494A1.492,1.492,0,0,0,1014.87,587.609Z" transform="translate(-1.133 -156.547)" fill="#4e159c"/>
    <circle id="Elipse_384" data-name="Elipse 384" cx="1.457" cy="1.457" r="1.457" transform="translate(1013.771 442.421)" fill="#4e159c"/>
    <path id="Trazado_9032" data-name="Trazado 9032" d="M1015.044,715.856a1.457,1.457,0,1,0,1.457-1.457A1.457,1.457,0,0,0,1015.044,715.856Z" transform="translate(-1.273 -259.16)" fill="#4e159c"/>
    <path id="Trazado_9033" data-name="Trazado 9033" d="M1015.044,779.91a1.457,1.457,0,1,0,1.457-1.458A1.458,1.458,0,0,0,1015.044,779.91Z" transform="translate(-1.273 -310.395)" fill="#4e159c"/>
    <path id="Trazado_9034" data-name="Trazado 9034" d="M1015.044,843.963a1.457,1.457,0,1,0,1.457-1.457A1.458,1.458,0,0,0,1015.044,843.963Z" transform="translate(-1.273 -361.631)" fill="#4e159c"/>
    <path id="Trazado_9035" data-name="Trazado 9035" d="M1015.226,908.156a1.422,1.422,0,1,0,1.421-1.421A1.422,1.422,0,0,0,1015.226,908.156Z" transform="translate(-1.418 -413.008)" fill="#4e159c"/>
    <path id="Trazado_9036" data-name="Trazado 9036" d="M1015.226,972.21a1.422,1.422,0,1,0,1.421-1.421A1.422,1.422,0,0,0,1015.226,972.21Z" transform="translate(-1.418 -464.244)" fill="#4e159c"/>
    <circle id="Elipse_385" data-name="Elipse 385" cx="1.457" cy="1.457" r="1.457" transform="translate(1013.771 519.327)" fill="#4e159c"/>
    <path id="Trazado_9037" data-name="Trazado 9037" d="M1015.226,1100.313a1.422,1.422,0,1,0,1.421-1.422A1.421,1.421,0,0,0,1015.226,1100.313Z" transform="translate(-1.418 -566.711)" fill="#4e159c"/>
    <path id="Trazado_9038" data-name="Trazado 9038" d="M1015.226,1164.366a1.422,1.422,0,1,0,1.421-1.422A1.422,1.422,0,0,0,1015.226,1164.366Z" transform="translate(-1.418 -617.947)" fill="#4e159c"/>
    <path id="Trazado_9039" data-name="Trazado 9039" d="M1015.226,1228.42a1.422,1.422,0,1,0,1.421-1.421A1.422,1.422,0,0,0,1015.226,1228.42Z" transform="translate(-1.418 -669.184)" fill="#4e159c"/>
    <path id="Trazado_9040" data-name="Trazado 9040" d="M1015.226,1292.474a1.422,1.422,0,1,0,1.421-1.421A1.422,1.422,0,0,0,1015.226,1292.474Z" transform="translate(-1.418 -720.42)" fill="#4e159c"/>
    <circle id="Elipse_386" data-name="Elipse 386" cx="1.386" cy="1.386" r="1.386" transform="translate(1013.843 583.486)" fill="#4e159c"/>
    <circle id="Elipse_387" data-name="Elipse 387" cx="1.386" cy="1.386" r="1.386" transform="translate(1013.843 596.303)" fill="#4e159c"/>
    <circle id="Elipse_388" data-name="Elipse 388" cx="1.386" cy="1.386" r="1.386" transform="translate(1013.843 609.12)" fill="#4e159c"/>
    <circle id="Elipse_389" data-name="Elipse 389" cx="1.386" cy="1.386" r="1.386" transform="translate(1013.843 621.938)" fill="#4e159c"/>
    <path id="Trazado_9041" data-name="Trazado 9041" d="M1015.582,1613.017a1.35,1.35,0,1,0,1.35-1.352A1.35,1.35,0,0,0,1015.582,1613.017Z" transform="translate(-1.703 -976.875)" fill="#4e159c"/>
    <path id="Trazado_9042" data-name="Trazado 9042" d="M1015.582,1677.07a1.35,1.35,0,1,0,1.35-1.351A1.349,1.349,0,0,0,1015.582,1677.07Z" transform="translate(-1.703 -1028.111)" fill="#4e159c"/>
    <path id="Trazado_9043" data-name="Trazado 9043" d="M1015.582,1741.123a1.35,1.35,0,1,0,1.35-1.349A1.35,1.35,0,0,0,1015.582,1741.123Z" transform="translate(-1.703 -1079.348)" fill="#4e159c"/>
    <path id="Trazado_9044" data-name="Trazado 9044" d="M1015.582,1805.178a1.35,1.35,0,1,0,1.35-1.35A1.35,1.35,0,0,0,1015.582,1805.178Z" transform="translate(-1.703 -1130.584)" fill="#4e159c"/>
    <path id="Trazado_9045" data-name="Trazado 9045" d="M1015.756,1869.372a1.316,1.316,0,1,0,1.315-1.314A1.315,1.315,0,0,0,1015.756,1869.372Z" transform="translate(-1.842 -1181.961)" fill="#4e159c"/>
    <path id="Trazado_9046" data-name="Trazado 9046" d="M1015.756,1933.426a1.316,1.316,0,1,0,1.315-1.315A1.315,1.315,0,0,0,1015.756,1933.426Z" transform="translate(-1.842 -1233.197)" fill="#4e159c"/>
    <path id="Trazado_9047" data-name="Trazado 9047" d="M1015.756,1997.473a1.316,1.316,0,1,0,1.315-1.316A1.315,1.315,0,0,0,1015.756,1997.473Z" transform="translate(-1.842 -1284.426)" fill="#4e159c"/>
    <path id="Trazado_9048" data-name="Trazado 9048" d="M1015.756,2061.527a1.316,1.316,0,1,0,1.315-1.315A1.316,1.316,0,0,0,1015.756,2061.527Z" transform="translate(-1.842 -1335.663)" fill="#4e159c"/>
    <path id="Trazado_9049" data-name="Trazado 9049" d="M1015.756,2125.581a1.316,1.316,0,1,0,1.315-1.315A1.315,1.315,0,0,0,1015.756,2125.581Z" transform="translate(-1.842 -1386.9)" fill="#4e159c"/>
    <path id="Trazado_9050" data-name="Trazado 9050" d="M1015.756,2189.636a1.316,1.316,0,1,0,1.315-1.315A1.315,1.315,0,0,0,1015.756,2189.636Z" transform="translate(-1.842 -1438.136)" fill="#4e159c"/>
    <path id="Trazado_9051" data-name="Trazado 9051" d="M1015.939,2253.829a1.279,1.279,0,1,0,1.278-1.28A1.278,1.278,0,0,0,1015.939,2253.829Z" transform="translate(-1.989 -1489.512)" fill="#4e159c"/>
    <path id="Trazado_9052" data-name="Trazado 9052" d="M1015.939,2317.882a1.279,1.279,0,1,0,1.278-1.278A1.278,1.278,0,0,0,1015.939,2317.882Z" transform="translate(-1.989 -1540.749)" fill="#4e159c"/>
    <path id="Trazado_9053" data-name="Trazado 9053" d="M1015.939,2381.93a1.279,1.279,0,1,0,1.278-1.28A1.279,1.279,0,0,0,1015.939,2381.93Z" transform="translate(-1.989 -1591.979)" fill="#4e159c"/>
    <path id="Trazado_9054" data-name="Trazado 9054" d="M1015.939,2445.984a1.279,1.279,0,1,0,1.278-1.28A1.279,1.279,0,0,0,1015.939,2445.984Z" transform="translate(-1.989 -1643.215)" fill="#4e159c"/>
    <path id="Trazado_9055" data-name="Trazado 9055" d="M1016.113,2510.179a1.244,1.244,0,1,0,1.244-1.245A1.244,1.244,0,0,0,1016.113,2510.179Z" transform="translate(-2.128 -1694.592)" fill="#4e159c"/>
    <path id="Trazado_9056" data-name="Trazado 9056" d="M1016.113,2574.232a1.244,1.244,0,1,0,1.244-1.245A1.244,1.244,0,0,0,1016.113,2574.232Z" transform="translate(-2.128 -1745.827)" fill="#4e159c"/>
    <path id="Trazado_9057" data-name="Trazado 9057" d="M1016.113,2638.285a1.244,1.244,0,1,0,1.244-1.243A1.244,1.244,0,0,0,1016.113,2638.285Z" transform="translate(-2.128 -1797.064)" fill="#4e159c"/>
    <path id="Trazado_9058" data-name="Trazado 9058" d="M1016.295,2702.479a1.208,1.208,0,1,0,1.207-1.209A1.207,1.207,0,0,0,1016.295,2702.479Z" transform="translate(-2.273 -1848.44)" fill="#4e159c"/>
    <path id="Trazado_9059" data-name="Trazado 9059" d="M1016.643,2766.818a1.137,1.137,0,1,0,1.137-1.137A1.138,1.138,0,0,0,1016.643,2766.818Z" transform="translate(-2.552 -1899.961)" fill="#4e159c"/>
    <path id="Trazado_9060" data-name="Trazado 9060" d="M1017,2831.151a1.066,1.066,0,1,0,1.066-1.068A1.066,1.066,0,0,0,1017,2831.151Z" transform="translate(-2.836 -1951.476)" fill="#4e159c"/>
    <path id="Trazado_9061" data-name="Trazado 9061" d="M1017.355,2895.489a1,1,0,1,0,.995-.995A1,1,0,0,0,1017.355,2895.489Z" transform="translate(-3.121 -2002.998)" fill="#4e159c"/>
    <path id="Trazado_9062" data-name="Trazado 9062" d="M1017.712,2959.828a.924.924,0,1,0,.924-.923A.925.925,0,0,0,1017.712,2959.828Z" transform="translate(-3.407 -2054.52)" fill="#4e159c"/>
    <path id="Trazado_9063" data-name="Trazado 9063" d="M1018.068,3024.161a.853.853,0,1,0,.852-.854A.852.852,0,0,0,1018.068,3024.161Z" transform="translate(-3.691 -2106.034)" fill="#4e159c"/>
    <path id="Trazado_9064" data-name="Trazado 9064" d="M1018.424,3088.5a.782.782,0,1,0,.781-.782A.781.781,0,0,0,1018.424,3088.5Z" transform="translate(-3.976 -2157.556)" fill="#4e159c"/>
    <path id="Trazado_9065" data-name="Trazado 9065" d="M1018.78,3152.839a.71.71,0,1,0,.71-.709A.711.711,0,0,0,1018.78,3152.839Z" transform="translate(-4.261 -2209.079)" fill="#4e159c"/>
    <path id="Trazado_9066" data-name="Trazado 9066" d="M1019.137,3217.171a.639.639,0,1,0,.638-.64A.639.639,0,0,0,1019.137,3217.171Z" transform="translate(-4.547 -2260.593)" fill="#4e159c"/>
    <path id="Trazado_9067" data-name="Trazado 9067" d="M1019.485,3281.511a.569.569,0,1,0,.569-.569A.57.57,0,0,0,1019.485,3281.511Z" transform="translate(-4.825 -2312.114)" fill="#4e159c"/>
    <circle id="Elipse_390" data-name="Elipse 390" cx="0.497" cy="0.497" r="0.497" transform="translate(1014.731 981.717)" fill="#4e159c"/>
    <path id="Trazado_9068" data-name="Trazado 9068" d="M1020.2,3410.183a.427.427,0,1,0,.426-.428A.426.426,0,0,0,1020.2,3410.183Z" transform="translate(-5.394 -2415.15)" fill="#4e159c"/>
    <path id="Trazado_9069" data-name="Trazado 9069" d="M1020.554,3474.52a.356.356,0,1,0,.355-.355A.356.356,0,0,0,1020.554,3474.52Z" transform="translate(-5.68 -2466.671)" fill="#4e159c"/>
    <path id="Trazado_9070" data-name="Trazado 9070" d="M1020.91,3538.859a.284.284,0,1,0,.284-.284A.285.285,0,0,0,1020.91,3538.859Z" transform="translate(-5.965 -2518.193)" fill="#4e159c"/>
    <path id="Trazado_9071" data-name="Trazado 9071" d="M1021.266,3603.193a.213.213,0,1,0,.212-.214A.213.213,0,0,0,1021.266,3603.193Z" transform="translate(-6.25 -2569.708)" fill="#4e159c"/>
    <path id="Trazado_9072" data-name="Trazado 9072" d="M1021.622,3667.532a.142.142,0,1,0,.141-.143A.141.141,0,0,0,1021.622,3667.532Z" transform="translate(-6.534 -2621.23)" fill="#4e159c"/>
    <path id="Trazado_9073" data-name="Trazado 9073" d="M1021.979,3731.87a.07.07,0,1,0,.07-.07A.07.07,0,0,0,1021.979,3731.87Z" transform="translate(-6.82 -2672.751)" fill="#4e159c"/>
  </g>
</svg>
