<svg xmlns="http://www.w3.org/2000/svg" width="480" height="267.762" viewBox="0 0 480 267.762">
  <g id="Grupo_9638" data-name="Grupo 9638" transform="translate(-968.85 -748.578)">
    <g id="Grupo_9638-2" data-name="Grupo 9638" transform="translate(1405.628 913.697)">
      <path id="Trazado_9096" data-name="Trazado 9096" d="M1567.206,984.785l-4.063,2.748c-5.139,3.466-5.5,5.617-5.5,9.2v1.593h13.784c.4,0,.8.159.8.6v.439c0,.438-.358.6-.8.6h-14.78a.8.8,0,0,1-.8-.8v-2.43c0-3.9.8-6.932,6.175-10.558l4.063-2.749c3.585-2.429,4.581-3.744,4.581-6.294,0-3.586-2.032-5.3-7.33-5.3a33.237,33.237,0,0,0-6.095.6,1.713,1.713,0,0,0-.2.039.606.606,0,0,1-.638-.637V971.4c0-.4.358-.558.757-.638a28.985,28.985,0,0,1,6.175-.6c5.975,0,9.242,2.151,9.242,6.972C1572.584,980.123,1571.35,982,1567.206,984.785Z" transform="translate(-1555.215 -970.164)" fill="#fff"/>
      <path id="Trazado_9097" data-name="Trazado 9097" d="M1597.571,1000.2c-5.577,0-9.163-3.426-9.163-11.114v-7.848c0-7.689,3.586-11.075,9.163-11.075s9.163,3.386,9.163,11.075v7.848C1606.733,996.775,1603.148,1000.2,1597.571,1000.2Zm7.41-18.962c0-6.294-2.63-9.481-7.41-9.481s-7.41,3.186-7.41,9.481v7.848c0,6.294,2.63,9.521,7.41,9.521s7.41-3.227,7.41-9.521Z" transform="translate(-1563.511 -970.164)" fill="#fff"/>
      <path id="Trazado_9098" data-name="Trazado 9098" d="M1562.646,1050.828v-26.253l-6.852.876h-.2c-.478,0-.6-.279-.6-.518v-.2c0-.6.358-.718.8-.8l7.688-1.076h.2c.478,0,.717.319.717.8v27.169h6.812c.4,0,.8.159.8.6v.438c0,.439-.358.6-.8.6h-15.377c-.438,0-.8-.159-.8-.6v-.438c0-.437.4-.6.8-.6Z" transform="translate(-1554.997 -983.593)" fill="#fff"/>
      <path id="Trazado_9099" data-name="Trazado 9099" d="M1596.869,1052.632a25.083,25.083,0,0,1-6.335-.756c-.438-.081-.876-.28-.876-.718v-.4c0-.359.239-.558.637-.558a1,1,0,0,1,.319.04,26.475,26.475,0,0,0,6.255.718c5.417,0,8.007-2.192,8.007-8.685V1039.8a30.134,30.134,0,0,1-7.37,1.035c-4.343,0-8.884-1.792-8.884-7.808v-.2c0-6.733,2.749-10.238,9.2-10.238,5.975,0,8.8,3.347,8.8,10.318v9.362C1606.628,1049.764,1603.2,1052.632,1596.869,1052.632Zm8.007-19.719c0-6.374-2.231-8.724-7.051-8.724-4.741,0-7.45,2.311-7.45,8.645v.2c0,4.861,3.7,6.175,7.131,6.175a32.219,32.219,0,0,0,7.37-.956Z" transform="translate(-1563.566 -983.525)" fill="#fff"/>
    </g>
    <g id="Grupo_9639" data-name="Grupo 9639" transform="translate(1074.098 994.828)">
      <path id="Trazado_9100" data-name="Trazado 9100" d="M1110.091,1088.9c0-4.563,2.489-7.429,6.149-7.429a4.957,4.957,0,0,1,3.743,1.721l-.589.673a4.1,4.1,0,0,0-3.145-1.481c-3.153,0-5.1,2.511-5.1,6.5s1.93,6.585,5.022,6.585a4.629,4.629,0,0,0,3.638-1.773l.589.629a5.33,5.33,0,0,1-4.28,2.057C1112.567,1096.386,1110.091,1093.473,1110.091,1088.9Z" transform="translate(-1110.091 -1079.66)" fill="#fff"/>
      <path id="Trazado_9101" data-name="Trazado 9101" d="M1134.257,1086.974h.817l.1,1.957h.048a3.64,3.64,0,0,1,2.983-2.218,2.184,2.184,0,0,1,1.039.218l-.218.873a2.354,2.354,0,0,0-.947-.174c-.943,0-2.062.716-2.861,2.7v7.131h-.965Z" transform="translate(-1116.249 -1080.995)" fill="#fff"/>
      <path id="Trazado_9102" data-name="Trazado 9102" d="M1148.607,1092.236c0-3.42,2.223-5.524,4.572-5.524,2.485,0,4.013,1.768,4.013,4.852a4.569,4.569,0,0,1-.054.785h-7.54c.035,2.647,1.586,4.538,3.949,4.538a4.721,4.721,0,0,0,2.817-.931l.4.734a5.74,5.74,0,0,1-3.306,1.031C1150.778,1097.721,1148.607,1095.664,1148.607,1092.236Zm7.677-.681c0-2.677-1.214-4.009-3.1-4.009-1.773,0-3.376,1.5-3.594,4.009Z" transform="translate(-1119.906 -1080.995)" fill="#fff"/>
      <path id="Trazado_9103" data-name="Trazado 9103" d="M1169.287,1092.236c0-3.507,2.24-5.524,4.791-5.524a4.312,4.312,0,0,1,3.07,1.292l-.568.672a3.584,3.584,0,0,0-2.481-1.113c-2.145,0-3.8,1.913-3.8,4.673s1.507,4.634,3.786,4.634a4.179,4.179,0,0,0,2.808-1.209l.5.677a4.982,4.982,0,0,1-3.349,1.385C1171.335,1097.721,1169.287,1095.7,1169.287,1092.236Z" transform="translate(-1125.176 -1080.995)" fill="#fff"/>
      <path id="Trazado_9104" data-name="Trazado 9104" d="M1189.644,1082.223a.878.878,0,0,1,1.755,0,.878.878,0,0,1-1.755,0Zm.375,3.388h.965V1096.1h-.965Z" transform="translate(-1130.364 -1079.633)" fill="#fff"/>
      <path id="Trazado_9105" data-name="Trazado 9105" d="M1202.195,1092.236c0-3.42,2.223-5.524,4.572-5.524,2.485,0,4.014,1.768,4.014,4.852a4.569,4.569,0,0,1-.054.785h-7.54c.035,2.647,1.586,4.538,3.949,4.538a4.72,4.72,0,0,0,2.817-.931l.4.734a5.741,5.741,0,0,1-3.306,1.031C1204.366,1097.721,1202.195,1095.664,1202.195,1092.236Zm7.678-.681c0-2.677-1.214-4.009-3.1-4.009-1.773,0-3.376,1.5-3.594,4.009Z" transform="translate(-1133.562 -1080.995)" fill="#fff"/>
      <path id="Trazado_9106" data-name="Trazado 9106" d="M1224.058,1086.974h.817l.105,1.625h.048a5.143,5.143,0,0,1,3.607-1.887c2.166,0,3.171,1.314,3.171,4.022v6.725h-.965v-6.6c0-2.223-.7-3.28-2.389-3.28-1.249,0-2.153.659-3.429,1.969v7.908h-.965Z" transform="translate(-1139.133 -1080.995)" fill="#fff"/>
      <path id="Trazado_9107" data-name="Trazado 9107" d="M1244.995,1090.539c0-3.385,2.149-5.524,4.651-5.524a4.827,4.827,0,0,1,3.162,1.288l-.052-1.926v-4.323h.965v15.708h-.817l-.105-1.358h-.048a4.936,4.936,0,0,1-3.42,1.62C1246.7,1096.024,1244.995,1094.077,1244.995,1090.539Zm7.761,2.9v-6.219a4.407,4.407,0,0,0-3.057-1.349c-2.083,0-3.69,2.035-3.69,4.664,0,2.791,1.24,4.633,3.463,4.633A4.658,4.658,0,0,0,1252.756,1093.439Z" transform="translate(-1144.469 -1079.298)" fill="#fff"/>
      <path id="Trazado_9108" data-name="Trazado 9108" d="M1267.456,1092.236c0-3.507,2.188-5.524,4.708-5.524s4.707,2.017,4.707,5.524c0,3.468-2.188,5.485-4.707,5.485S1267.456,1095.7,1267.456,1092.236Zm8.4,0c0-2.76-1.577-4.673-3.695-4.673s-3.695,1.913-3.695,4.673,1.576,4.634,3.695,4.634S1275.859,1095,1275.859,1092.236Z" transform="translate(-1150.193 -1080.995)" fill="#fff"/>
      <path id="Trazado_9109" data-name="Trazado 9109" d="M1302.023,1092.236c0-3.507,2.241-5.524,4.791-5.524a4.309,4.309,0,0,1,3.07,1.292l-.567.672a3.584,3.584,0,0,0-2.481-1.113c-2.145,0-3.8,1.913-3.8,4.673s1.507,4.634,3.786,4.634a4.181,4.181,0,0,0,2.809-1.209l.5.677a4.983,4.983,0,0,1-3.35,1.385C1304.071,1097.721,1302.023,1095.7,1302.023,1092.236Z" transform="translate(-1159.001 -1080.995)" fill="#fff"/>
      <path id="Trazado_9110" data-name="Trazado 9110" d="M1321.2,1092.236c0-3.507,2.188-5.524,4.707-5.524s4.708,2.017,4.708,5.524c0,3.468-2.188,5.485-4.708,5.485S1321.2,1095.7,1321.2,1092.236Zm8.4,0c0-2.76-1.576-4.673-3.694-4.673s-3.695,1.913-3.695,4.673,1.577,4.634,3.695,4.634S1329.6,1095,1329.6,1092.236Z" transform="translate(-1163.889 -1080.995)" fill="#fff"/>
      <path id="Trazado_9111" data-name="Trazado 9111" d="M1344.589,1086.974h.817l.105,1.625h.048a5.143,5.143,0,0,1,3.607-1.887c2.166,0,3.171,1.314,3.171,4.022v6.725h-.965v-6.6c0-2.223-.7-3.28-2.389-3.28-1.249,0-2.153.659-3.428,1.969v7.908h-.965Z" transform="translate(-1169.849 -1080.995)" fill="#fff"/>
      <path id="Trazado_9112" data-name="Trazado 9112" d="M1379.092,1094.356v-14.3h.965v14.433c0,.467.192.686.454.686a1.666,1.666,0,0,0,.394-.043l.162.786a2.179,2.179,0,0,1-.695.109C1379.529,1096.024,1379.092,1095.505,1379.092,1094.356Z" transform="translate(-1178.641 -1079.298)" fill="#fff"/>
      <path id="Trazado_9113" data-name="Trazado 9113" d="M1391.555,1094.85c0-2.33,2.1-3.44,6.765-3.955.031-1.612-.41-3.336-2.472-3.336a5.746,5.746,0,0,0-3.341,1.231l-.446-.716a7.043,7.043,0,0,1,3.9-1.362c2.484,0,3.323,1.8,3.323,4.048v6.7h-.817l-.105-1.362h-.048a6.181,6.181,0,0,1-3.721,1.625A2.749,2.749,0,0,1,1391.555,1094.85Zm6.765.346v-3.567c-4.306.5-5.777,1.5-5.777,3.17a1.969,1.969,0,0,0,2.223,2.083A5.512,5.512,0,0,0,1398.32,1095.2Z" transform="translate(-1181.817 -1080.995)" fill="#fff"/>
      <path id="Trazado_9114" data-name="Trazado 9114" d="M1425.645,1093.615v-6.747h-1.638v-.751l1.66-.092.122-3.035h.821v3.035h3.04v.843h-3.04v6.819c0,1.339.336,2.243,1.782,2.243a3.8,3.8,0,0,0,1.314-.332l.253.782a6.035,6.035,0,0,1-1.712.393C1426.234,1096.773,1425.645,1095.493,1425.645,1093.615Z" transform="translate(-1190.087 -1080.047)" fill="#fff"/>
      <path id="Trazado_9115" data-name="Trazado 9115" d="M1440.04,1092.236c0-3.42,2.223-5.524,4.572-5.524,2.484,0,4.014,1.768,4.014,4.852a4.5,4.5,0,0,1-.055.785h-7.54c.035,2.647,1.585,4.538,3.948,4.538a4.718,4.718,0,0,0,2.817-.931l.4.734a5.74,5.74,0,0,1-3.306,1.031C1442.21,1097.721,1440.04,1095.664,1440.04,1092.236Zm7.677-.681c0-2.677-1.215-4.009-3.1-4.009-1.773,0-3.376,1.5-3.594,4.009Z" transform="translate(-1194.172 -1080.995)" fill="#fff"/>
      <path id="Trazado_9116" data-name="Trazado 9116" d="M1460.719,1092.236c0-3.507,2.241-5.524,4.791-5.524a4.309,4.309,0,0,1,3.07,1.292l-.568.672a3.581,3.581,0,0,0-2.481-1.113c-2.144,0-3.8,1.913-3.8,4.673s1.506,4.634,3.786,4.634a4.177,4.177,0,0,0,2.808-1.209l.5.677a4.98,4.98,0,0,1-3.35,1.385C1462.768,1097.721,1460.719,1095.7,1460.719,1092.236Z" transform="translate(-1199.442 -1080.995)" fill="#fff"/>
      <path id="Trazado_9117" data-name="Trazado 9117" d="M1481.58,1086.974h.817l.1,1.625h.048a5.142,5.142,0,0,1,3.607-1.887c2.166,0,3.171,1.314,3.171,4.022v6.725h-.965v-6.6c0-2.223-.7-3.28-2.389-3.28-1.249,0-2.153.659-3.428,1.969v7.908h-.965Z" transform="translate(-1204.758 -1080.995)" fill="#fff"/>
      <path id="Trazado_9118" data-name="Trazado 9118" d="M1502.505,1092.236c0-3.507,2.189-5.524,4.708-5.524s4.708,2.017,4.708,5.524c0,3.468-2.188,5.485-4.708,5.485S1502.505,1095.7,1502.505,1092.236Zm8.4,0c0-2.76-1.576-4.673-3.694-4.673s-3.695,1.913-3.695,4.673,1.577,4.634,3.695,4.634S1510.907,1095,1510.907,1092.236Z" transform="translate(-1210.09 -1080.995)" fill="#fff"/>
      <path id="Trazado_9119" data-name="Trazado 9119" d="M1525.863,1094.356v-14.3h.965v14.433c0,.467.192.686.455.686a1.664,1.664,0,0,0,.393-.043l.162.786a2.179,2.179,0,0,1-.694.109C1526.3,1096.024,1525.863,1095.505,1525.863,1094.356Z" transform="translate(-1216.043 -1079.298)" fill="#fff"/>
      <path id="Trazado_9120" data-name="Trazado 9120" d="M1538.151,1092.236c0-3.507,2.188-5.524,4.707-5.524s4.708,2.017,4.708,5.524c0,3.468-2.188,5.485-4.708,5.485S1538.151,1095.7,1538.151,1092.236Zm8.4,0c0-2.76-1.576-4.673-3.695-4.673s-3.695,1.913-3.695,4.673,1.577,4.634,3.695,4.634S1546.553,1095,1546.553,1092.236Z" transform="translate(-1219.174 -1080.995)" fill="#fff"/>
      <path id="Trazado_9121" data-name="Trazado 9121" d="M1560.347,1099.6a3.286,3.286,0,0,1,1.569-2.528v-.088a1.885,1.885,0,0,1-.926-1.681,2.473,2.473,0,0,1,1.145-1.934v-.087a3.85,3.85,0,0,1-1.328-2.873,3.617,3.617,0,0,1,3.69-3.7,3.743,3.743,0,0,1,1.394.262h3.55v.821H1567a3.448,3.448,0,0,1,1.157,2.629,3.647,3.647,0,0,1-5.4,3.256,1.922,1.922,0,0,0-.852,1.517c0,.756.437,1.363,2,1.363h2.247c2.356,0,3.457.751,3.457,2.406,0,1.808-1.935,3.542-4.957,3.542C1562.012,1102.507,1560.347,1101.372,1560.347,1099.6Zm8.28-.533c0-1.157-.838-1.6-2.426-1.6h-2.247a6.757,6.757,0,0,1-1.3-.17,2.717,2.717,0,0,0-1.376,2.2c0,1.328,1.266,2.224,3.476,2.224C1567.121,1101.726,1568.627,1100.39,1568.627,1099.071Zm-1.419-8.66a2.718,2.718,0,1,0-5.424,0,2.721,2.721,0,1,0,5.424,0Z" transform="translate(-1224.83 -1080.995)" fill="#fff"/>
      <path id="Trazado_9122" data-name="Trazado 9122" d="M1581.417,1082.477l2.939-3.437.724.642-3.127,3.293Zm.679,2.541h.965V1095.5h-.965Z" transform="translate(-1230.2 -1079.04)" fill="#fff"/>
      <path id="Trazado_9123" data-name="Trazado 9123" d="M1594.551,1094.85c0-2.33,2.1-3.44,6.765-3.955.03-1.612-.411-3.336-2.472-3.336a5.75,5.75,0,0,0-3.341,1.231l-.446-.716a7.044,7.044,0,0,1,3.9-1.362c2.484,0,3.323,1.8,3.323,4.048v6.7h-.816l-.105-1.362h-.048a6.181,6.181,0,0,1-3.721,1.625A2.749,2.749,0,0,1,1594.551,1094.85Zm6.765.346v-3.567c-4.306.5-5.778,1.5-5.778,3.17a1.969,1.969,0,0,0,2.223,2.083A5.513,5.513,0,0,0,1601.316,1095.2Z" transform="translate(-1233.547 -1080.995)" fill="#fff"/>
    </g>
    <g id="Grupo_9640" data-name="Grupo 9640" transform="translate(968.85 748.578)">
      <path id="Trazado_9124" data-name="Trazado 9124" d="M1055.429,842.66l-45.045-7.578-29.525-36.5a6.5,6.5,0,1,0-3.674,2.767l30.173,37.3a2.3,2.3,0,0,0,1.406.821l38.528,6.482-15.543,7.013a6.529,6.529,0,1,0,2.327,3.992l18.672-8.426V1019.38a2.3,2.3,0,0,0,4.6,0V844.926A2.3,2.3,0,0,0,1055.429,842.66Zm-81.423-46.2a1.918,1.918,0,1,1,1.356.562A1.92,1.92,0,0,1,974.006,796.455Zm55.011,62.937a1.918,1.918,0,1,1,0-2.713A1.921,1.921,0,0,1,1029.016,859.392Z" transform="translate(-968.85 -758.773)" fill="#fff"/>
      <path id="Trazado_9125" data-name="Trazado 9125" d="M1118.89,814.568l-14.566,7.075a2.3,2.3,0,1,0,2.008,4.135l15.014-7.293a2.286,2.286,0,0,0,.767-.6l29.81-36.02a6.519,6.519,0,1,0-3.392-3.11Zm34.094-40.112a1.918,1.918,0,1,1,0,2.713A1.911,1.911,0,0,1,1152.984,774.456Z" transform="translate(-1003.043 -753.858)" fill="#fff"/>
      <path id="Trazado_9126" data-name="Trazado 9126" d="M1068.789,792.445l-5.739-22.166a6.514,6.514,0,1,0-8.242-.8,6.478,6.478,0,0,0,3.765,1.844l5.91,22.825a2.3,2.3,0,0,0,.531.976l13.942,15.229a2.3,2.3,0,0,0,3.39-3.1Zm-10.731-28.926a1.918,1.918,0,1,1,0,2.713A1.912,1.912,0,0,1,1058.058,763.519Z" transform="translate(-990.27 -751.072)" fill="#fff"/>
      <path id="Trazado_9127" data-name="Trazado 9127" d="M1115.352,795.128a2.294,2.294,0,0,0,.53-.976l5.9-22.794a6.638,6.638,0,1,0-4.434-1.211l-5.774,22.3-13.555,14.807a2.3,2.3,0,0,0,3.39,3.1Zm4.456-31.609a1.918,1.918,0,1,1,0,2.713A1.912,1.912,0,0,1,1119.809,763.519Z" transform="translate(-1001.613 -751.072)" fill="#fff"/>
      <path id="Trazado_9128" data-name="Trazado 9128" d="M1016.813,782.328a6.508,6.508,0,0,0,2.252-.406l29.76,35.96a2.294,2.294,0,0,0,.766.6l15.015,7.293a2.3,2.3,0,1,0,2.008-4.135l-14.567-7.075-29.509-35.656a6.51,6.51,0,1,0-5.727,3.417Zm-1.357-7.872a1.918,1.918,0,1,1,0,2.713A1.911,1.911,0,0,1,1015.456,774.456Z" transform="translate(-979.413 -753.858)" fill="#fff"/>
      <path id="Trazado_9129" data-name="Trazado 9129" d="M1189.762,790.492a6.512,6.512,0,0,0-10.107,8.09l-29.74,36.508-45.275,8a2.3,2.3,0,0,0-1.9,2.263v64.953a2.3,2.3,0,1,0,4.6,0V848.531l17.617,7.928a6.5,6.5,0,1,0,2.683-3.832l-14.251-6.413,38.168-6.746a2.3,2.3,0,0,0,1.382-.811l30.388-37.3a6.537,6.537,0,0,0,1.828.262,6.515,6.515,0,0,0,4.607-11.122Zm-57.138,66.187a1.918,1.918,0,1,1-2.712,0A1.92,1.92,0,0,1,1132.624,856.679Zm53.888-60.224a1.918,1.918,0,1,1,0-2.713A1.906,1.906,0,0,1,1186.512,796.455Z" transform="translate(-1002.97 -758.773)" fill="#fff"/>
      <path id="Trazado_9130" data-name="Trazado 9130" d="M1095.967,796.015V761.178a6.5,6.5,0,0,0,2.308-10.7h0a6.515,6.515,0,1,0-6.9,10.7v34.837a2.3,2.3,0,1,0,4.6,0Zm-3.654-42.282a1.918,1.918,0,1,1,0,2.713A1.912,1.912,0,0,1,1092.312,753.732Z" transform="translate(-998.999 -748.578)" fill="#fff"/>
    </g>
    <path id="Trazado_9131" data-name="Trazado 9131" d="M1143.475,970.025h-42.743a2.345,2.345,0,0,0-2.483,2.3v.814a2.2,2.2,0,0,0,2.483,2.121h18.663v60.954a2.372,2.372,0,0,0,2.3,2.483h.9a2.373,2.373,0,0,0,2.3-2.483V975.262h18.572a2.2,2.2,0,0,0,2.483-2.121v-.814A2.345,2.345,0,0,0,1143.475,970.025Z" transform="translate(-32.975 -56.432)" fill="#fff"/>
    <path id="Trazado_9132" data-name="Trazado 9132" d="M1199.629,1007.6c10.828-2.152,15.673-7.906,15.673-18.529v-.452c0-13.458-7.58-19.2-25.345-19.2-3.933,0-10.937.18-14.14.363l-.041,0a2.587,2.587,0,0,0-2.218,2.478v63.8a2.372,2.372,0,0,0,2.3,2.483h.9a2.373,2.373,0,0,0,2.3-2.483v-27.872c2.119.022,8.042.083,10.891.083.534,0,.958.011,1.356.022.635.016,1.239.033,2.128,0l19.009,29.094.028.04a2.883,2.883,0,0,0,1.968,1.12h1.175a2.036,2.036,0,0,0,1.905-1,2.815,2.815,0,0,0-.269-2.8Zm10.166-18.981v.452c0,5.426-1.494,8.926-4.7,11.015-3.036,1.976-7.7,2.858-15.137,2.858-1.329,0-3.709-.024-6.01-.046-1.86-.019-3.636-.036-4.88-.042V975.043c2.763-.218,7.335-.3,10.891-.3C1204.233,974.746,1209.795,978.636,1209.795,988.619Z" transform="translate(-52.166 -56.277)" fill="#fff"/>
    <path id="Trazado_9133" data-name="Trazado 9133" d="M1281.092,970.025h-23.314c-7.983,0-11.7,3.459-11.7,10.887v46.9c0,7.428,3.718,10.888,11.7,10.888h23.314a2.345,2.345,0,0,0,2.483-2.3v-.723a2.257,2.257,0,0,0-2.483-2.212h-23.314c-4.283,0-6.192-.816-6.192-5.651v-22.367h29.506a2.345,2.345,0,0,0,2.483-2.3v-.9a2.257,2.257,0,0,0-2.483-2.212h-29.506V980.912c0-4.834,1.91-5.65,6.192-5.65h23.314a2.256,2.256,0,0,0,2.483-2.212v-.724A2.345,2.345,0,0,0,1281.092,970.025Z" transform="translate(-70.646 -56.432)" fill="#fff"/>
    <path id="Trazado_9134" data-name="Trazado 9134" d="M1358.379,969.418a5.141,5.141,0,0,0-4.848,3.238l-15.823,33.183c-.32.72-.421.72-.475.72s-.155,0-.484-.738l-15.812-33.161a5.142,5.142,0,0,0-4.85-3.241c-3.366,0-5.375,1.942-5.375,5.195v61.449a2.372,2.372,0,0,0,2.3,2.483h.9a2.372,2.372,0,0,0,2.3-2.483l0-61.069c.025.042.05.086.074.129l15.638,32.988c1.281,2.653,2.767,3.686,5.3,3.686s4.018-1.034,5.3-3.692l15.62-32.957.015-.026.076-.132v61.072a2.372,2.372,0,0,0,2.3,2.483h.9a2.372,2.372,0,0,0,2.3-2.483V974.613C1363.754,971.36,1361.744,969.418,1358.379,969.418Z" transform="translate(-87.118 -56.277)" fill="#fff"/>
    <path id="Trazado_9135" data-name="Trazado 9135" d="M1441.213,989.3h-.9a2.372,2.372,0,0,0-2.3,2.483v27.206c0,6.7-1.233,11.536-3.769,14.789-2.7,3.458-6.887,5.138-12.815,5.138-11.376,0-16.674-6.332-16.674-19.927V991.782a2.373,2.373,0,0,0-2.3-2.483h-.9a2.372,2.372,0,0,0-2.3,2.483v27.206c0,16.463,7.671,25.165,22.182,25.165,14.453,0,22.093-8.7,22.093-25.165V991.782A2.372,2.372,0,0,0,1441.213,989.3Z" transform="translate(-109.677 -61.343)" fill="#fff"/>
    <path id="Trazado_9136" data-name="Trazado 9136" d="M1519.6,969.87h-1.084a2.307,2.307,0,0,0-2.212,2.483V1033l-30.079-60.338a5.325,5.325,0,0,0-10.224,1.955v61.449a2.372,2.372,0,0,0,2.3,2.483h.9a2.372,2.372,0,0,0,2.3-2.483V975.509l30.176,60.443a7.514,7.514,0,0,0,1.841,2.341c1.021.794,2.134.794,3.543.794,2.845,0,4.832-2.21,4.832-5.376V972.353A2.319,2.319,0,0,0,1519.6,969.87Z" transform="translate(-129.239 -56.277)" fill="#fff"/>
    <g id="Grupo_9641" data-name="Grupo 9641" transform="translate(1289.564 913.052)">
      <path id="Trazado_9137" data-name="Trazado 9137" d="M1402.447,969.3h-.9a2.372,2.372,0,0,0-2.3,2.483v3.753a2.372,2.372,0,0,0,2.3,2.483h.9a2.372,2.372,0,0,0,2.3-2.483v-3.753A2.373,2.373,0,0,0,1402.447,969.3Z" transform="translate(-1399.241 -969.299)" fill="#fff"/>
      <path id="Trazado_9138" data-name="Trazado 9138" d="M1454.471,969.3h-.9a2.372,2.372,0,0,0-2.3,2.483v3.753a2.373,2.373,0,0,0,2.3,2.483h.9a2.372,2.372,0,0,0,2.3-2.483v-3.753A2.372,2.372,0,0,0,1454.471,969.3Z" transform="translate(-1412.498 -969.299)" fill="#fff"/>
    </g>
  </g>
</svg>
