<svg xmlns="http://www.w3.org/2000/svg" width="214" height="134.979" viewBox="0 0 214 134.979">
  <g id="Grupo_9653" data-name="Grupo 9653" transform="translate(-295 -1324)">
    <path id="Trazado_9141" data-name="Trazado 9141" d="M423.632,1414.522a2.2,2.2,0,0,0-2.881,1.188,63.083,63.083,0,1,1,1.226-45.248,2.2,2.2,0,0,0,4.156-1.469,67.488,67.488,0,1,0-1.313,48.411A2.2,2.2,0,0,0,423.632,1414.522Z" transform="translate(0)" fill="#2ce5c1"/>
    <g id="Grupo_9653-2" data-name="Grupo 9653" transform="translate(315.774 1376.384)">
      <path id="Trazado_9142" data-name="Trazado 9142" d="M351.832,1419.974a15.3,15.3,0,0,0-5.527-.891,15.058,15.058,0,0,0-5.472.964,12.357,12.357,0,0,0-4.291,2.745,12.6,12.6,0,0,0-2.818,4.309,14.91,14.91,0,0,0-1.018,5.618,14.291,14.291,0,0,0,1.018,5.491,12.267,12.267,0,0,0,7.109,6.963,15.053,15.053,0,0,0,5.472.964,15.309,15.309,0,0,0,5.527-1.036,12.951,12.951,0,0,0,4.327-2.782,12.593,12.593,0,0,0,2.836-4.254,14.3,14.3,0,0,0,1.018-5.491,14.782,14.782,0,0,0-1.018-5.6,12.52,12.52,0,0,0-2.836-4.291A12.087,12.087,0,0,0,351.832,1419.974Zm2.745,16.272a8.959,8.959,0,0,1-1.8,3.018,8.322,8.322,0,0,1-2.8,2,8.849,8.849,0,0,1-3.636.727,8.719,8.719,0,0,1-3.618-.727,8.365,8.365,0,0,1-2.782-2,8.95,8.95,0,0,1-1.8-3.018,11.068,11.068,0,0,1-.636-3.818,10.041,10.041,0,0,1,.636-3.6,8.916,8.916,0,0,1,1.8-2.927,8.276,8.276,0,0,1,2.782-1.963,8.917,8.917,0,0,1,3.618-.709,9.05,9.05,0,0,1,3.636.709,8.236,8.236,0,0,1,2.8,1.963,8.925,8.925,0,0,1,1.8,2.927,10.052,10.052,0,0,1,.636,3.6A11.08,11.08,0,0,1,354.578,1436.246Z" transform="translate(-332.706 -1419.082)" fill="#2ce5c1"/>
      <path id="Trazado_9143" data-name="Trazado 9143" d="M393.285,1434.965h-3.493a.326.326,0,0,0-.326.325v25.093a.326.326,0,0,0,.326.325H393.5a.326.326,0,0,0,.326-.325V1450.2h.109a6.181,6.181,0,0,0,.837.891,6.632,6.632,0,0,0,1.236.854,7.489,7.489,0,0,0,1.673.655,8.421,8.421,0,0,0,2.182.254,8.183,8.183,0,0,0,3.418-.709,7.954,7.954,0,0,0,2.672-1.945,8.939,8.939,0,0,0,1.727-2.909,10.3,10.3,0,0,0,.618-3.6,10.9,10.9,0,0,0-.581-3.6,8.337,8.337,0,0,0-1.709-2.909,8.082,8.082,0,0,0-2.727-1.945,8.8,8.8,0,0,0-3.6-.709,8.258,8.258,0,0,0-3.455.727,5.614,5.614,0,0,0-2.545,2.327h-.073v-2.292A.326.326,0,0,0,393.285,1434.965Zm.744,6.763a4.907,4.907,0,0,1,1.018-1.672,5.158,5.158,0,0,1,7.527,0,4.933,4.933,0,0,1,1.018,1.672,5.753,5.753,0,0,1,0,3.927,4.927,4.927,0,0,1-1.018,1.673,5.157,5.157,0,0,1-7.527,0,4.9,4.9,0,0,1-1.018-1.673,5.752,5.752,0,0,1,0-3.927Z" transform="translate(-358.195 -1426.018)" fill="#2ce5c1"/>
      <path id="Trazado_9144" data-name="Trazado 9144" d="M447.133,1444.893v-.874a12.569,12.569,0,0,0-.6-4.054A8.494,8.494,0,0,0,444.86,1437a7.142,7.142,0,0,0-2.582-1.836,8.488,8.488,0,0,0-3.327-.636,10.472,10.472,0,0,0-3.709.655,8.9,8.9,0,0,0-3.018,1.854,8.8,8.8,0,0,0-2.018,2.891,9.872,9.872,0,0,0,0,7.527,8.79,8.79,0,0,0,2.018,2.891,8.9,8.9,0,0,0,3.018,1.854,10.477,10.477,0,0,0,3.709.654,10.071,10.071,0,0,0,3.963-.8,8.675,8.675,0,0,0,3.2-2.424.329.329,0,0,0-.053-.474l-2.61-1.974a.323.323,0,0,0-.438.049,7.6,7.6,0,0,1-1.749,1.46,5.206,5.206,0,0,1-2.745.673,4.778,4.778,0,0,1-3.163-1.091,4.432,4.432,0,0,1-1.527-3.054h12.983A.326.326,0,0,0,447.133,1444.893Zm-13.308-2.947a5.03,5.03,0,0,1,1.4-3.018,4.24,4.24,0,0,1,3.109-1.127,4.5,4.5,0,0,1,3.236,1.109,4.111,4.111,0,0,1,1.2,3.036Z" transform="translate(-376.155 -1426.018)" fill="#2ce5c1"/>
      <path id="Trazado_9145" data-name="Trazado 9145" d="M480.817,1452.418h3.712a.326.326,0,0,0,.326-.326V1441.4a10.052,10.052,0,0,0-.327-2.582,5.779,5.779,0,0,0-1.091-2.182,5.6,5.6,0,0,0-1.982-1.527,6.847,6.847,0,0,0-2.964-.582,5.592,5.592,0,0,0-3.454.964,6.121,6.121,0,0,0-1.891,2.272h-.073v-2.474a.326.326,0,0,0-.326-.325h-3.494a.326.326,0,0,0-.326.325v16.8a.326.326,0,0,0,.326.326h3.712a.326.326,0,0,0,.326-.326v-9.2a6.336,6.336,0,0,1,.218-1.673,3.922,3.922,0,0,1,.709-1.418,3.531,3.531,0,0,1,1.236-.982,4.173,4.173,0,0,1,1.836-.364,2.764,2.764,0,0,1,1.782.527,3.132,3.132,0,0,1,.964,1.309,5.829,5.829,0,0,1,.382,1.673q.073.891.073,1.618v8.51A.326.326,0,0,0,480.817,1452.418Z" transform="translate(-393.879 -1426.018)" fill="#2ce5c1"/>
    </g>
    <path id="Trazado_9146" data-name="Trazado 9146" d="M528.044,1444.134a9.711,9.711,0,0,0-2.4-.709,22.194,22.194,0,0,1-2.4-.527,5.705,5.705,0,0,1-1.836-.854,1.935,1.935,0,0,1-.745-1.673,2.02,2.02,0,0,1,.345-1.163,2.956,2.956,0,0,1,.854-.836,4.285,4.285,0,0,1,1.145-.509,4.452,4.452,0,0,1,1.218-.182,4.384,4.384,0,0,1,2.418.6,4.466,4.466,0,0,1,1.4,1.5.3.3,0,0,0,.41.111l1.453-.861a.3.3,0,0,0,.111-.406,5.228,5.228,0,0,0-2.207-2.143,7.846,7.846,0,0,0-3.582-.763,7.528,7.528,0,0,0-2.073.291,5.759,5.759,0,0,0-1.836.891,4.685,4.685,0,0,0-1.327,1.509,4.323,4.323,0,0,0-.509,2.145,3.7,3.7,0,0,0,.745,2.473,5.166,5.166,0,0,0,1.836,1.364,10.29,10.29,0,0,0,2.4.727,21.9,21.9,0,0,1,2.4.564,5.55,5.55,0,0,1,1.836.909,2.079,2.079,0,0,1,.745,1.745,2.425,2.425,0,0,1-.345,1.291,3.364,3.364,0,0,1-.891.963,4.224,4.224,0,0,1-1.236.618,4.572,4.572,0,0,1-1.382.218,6,6,0,0,1-2.836-.709,4.683,4.683,0,0,1-1.879-1.77.3.3,0,0,0-.426-.1l-1.423.966a.3.3,0,0,0-.09.407,6.024,6.024,0,0,0,2.636,2.335,9.335,9.335,0,0,0,3.982.836,7.931,7.931,0,0,0,2.291-.327,6,6,0,0,0,1.945-.982,4.7,4.7,0,0,0,1.346-1.618,4.946,4.946,0,0,0,.491-2.273,4.117,4.117,0,0,0-.745-2.636A4.9,4.9,0,0,0,528.044,1444.134Z" transform="translate(-100.093 -50.168)" fill="#484848"/>
    <path id="Trazado_9147" data-name="Trazado 9147" d="M563.723,1438.207a8.344,8.344,0,0,0-2.8-1.836,9.374,9.374,0,0,0-3.545-.654,9.672,9.672,0,0,0-1.927.2,8.268,8.268,0,0,0-1.873.618,7.678,7.678,0,0,0-1.654,1.054,5.665,5.665,0,0,0-1.273,1.509h-.073v-2.646a.3.3,0,0,0-.3-.3H548.7a.3.3,0,0,0-.3.3v24.491a.3.3,0,0,0,.3.3h1.583a.3.3,0,0,0,.3-.3v-10.937h.073a5.651,5.651,0,0,0,1.273,1.509,7.614,7.614,0,0,0,1.654,1.055,8.274,8.274,0,0,0,1.873.618,9.672,9.672,0,0,0,1.927.2,9.376,9.376,0,0,0,3.545-.654,8.229,8.229,0,0,0,4.636-4.636,9.936,9.936,0,0,0,0-7.091A8.334,8.334,0,0,0,563.723,1438.207Zm-.145,9.018a6.254,6.254,0,0,1-1.327,2.182,6.422,6.422,0,0,1-2.109,1.473,6.78,6.78,0,0,1-2.763.545,6.941,6.941,0,0,1-2.763-.545,7.157,7.157,0,0,1-2.219-1.473,6.832,6.832,0,0,1-1.49-2.182,6.821,6.821,0,0,1,0-5.345,6.836,6.836,0,0,1,1.49-2.182,7.161,7.161,0,0,1,2.219-1.473,6.937,6.937,0,0,1,2.763-.546,6.776,6.776,0,0,1,2.763.546,6.425,6.425,0,0,1,2.109,1.473,6.258,6.258,0,0,1,1.327,2.182,8.1,8.1,0,0,1,0,5.345Z" transform="translate(-113.791 -50.168)" fill="#484848"/>
    <path id="Trazado_9148" data-name="Trazado 9148" d="M602.084,1449.933q-.036-.835-.055-1.818t-.018-2.218v-4.109q0-3.2-1.818-4.636a7.646,7.646,0,0,0-4.872-1.436,10.7,10.7,0,0,0-3.418.6,7.888,7.888,0,0,0-2.769,1.566.3.3,0,0,0-.024.419l.9,1.05a.3.3,0,0,0,.413.035,7.646,7.646,0,0,1,4.9-1.706,5.745,5.745,0,0,1,3.382.945,3.553,3.553,0,0,1,1.345,3.127v1.018H597.5q-1.236,0-2.854.164a11.484,11.484,0,0,0-3.054.727,6.12,6.12,0,0,0-2.418,1.691,4.491,4.491,0,0,0-.982,3.055,4.487,4.487,0,0,0,1.891,3.836,5.625,5.625,0,0,0,1.891.873,8.53,8.53,0,0,0,2.145.273,7.352,7.352,0,0,0,3.545-.764,6.134,6.134,0,0,0,2.345-2.4h.073a16.2,16.2,0,0,0,.176,2.477.3.3,0,0,0,.3.251H602a.3.3,0,0,0,.293-.338q-.074-.558-.116-1.116Q602.121,1450.77,602.084,1449.933Zm-2.036-4.291a8.734,8.734,0,0,1-.254,2.091,4.624,4.624,0,0,1-.927,1.854,4.888,4.888,0,0,1-1.8,1.327,7,7,0,0,1-2.873.509,4.757,4.757,0,0,1-1.363-.2,4.171,4.171,0,0,1-1.218-.582,3.018,3.018,0,0,1-.891-.982,2.678,2.678,0,0,1-.345-1.364,2.708,2.708,0,0,1,.618-1.818,4.326,4.326,0,0,1,1.654-1.164,9.331,9.331,0,0,1,2.327-.618,19.234,19.234,0,0,1,2.673-.182h2.4Z" transform="translate(-131.663 -50.168)" fill="#484848"/>
    <path id="Trazado_9149" data-name="Trazado 9149" d="M626.081,1439.7a6.413,6.413,0,0,1,2.109-1.473,6.773,6.773,0,0,1,2.763-.546,5.106,5.106,0,0,1,2.436.6,7.445,7.445,0,0,1,1.891,1.458.3.3,0,0,0,.394.037l1.264-.948a.3.3,0,0,0,.039-.449,8.96,8.96,0,0,0-2.588-1.9,7.8,7.8,0,0,0-3.436-.763,9.507,9.507,0,0,0-3.563.654,8.108,8.108,0,0,0-2.8,1.836,8.469,8.469,0,0,0-1.818,2.8,9.929,9.929,0,0,0,0,7.091,8.461,8.461,0,0,0,1.818,2.8,8.1,8.1,0,0,0,2.8,1.837,9.51,9.51,0,0,0,3.563.654,8.1,8.1,0,0,0,3.382-.709,7.723,7.723,0,0,0,2.6-1.965.3.3,0,0,0-.036-.432l-1.209-1a.3.3,0,0,0-.414.04,6.571,6.571,0,0,1-1.794,1.463,5.113,5.113,0,0,1-2.527.636,6.777,6.777,0,0,1-2.763-.545,6.41,6.41,0,0,1-2.109-1.473,6.237,6.237,0,0,1-1.327-2.182,8.085,8.085,0,0,1,0-5.345A6.241,6.241,0,0,1,626.081,1439.7Z" transform="translate(-146.897 -50.168)" fill="#484848"/>
    <path id="Trazado_9150" data-name="Trazado 9150" d="M669.644,1440.7a7.546,7.546,0,0,0-1.509-2.527,7.451,7.451,0,0,0-2.473-1.782,8.11,8.11,0,0,0-3.4-.672,8.3,8.3,0,0,0-3.382.672,8.214,8.214,0,0,0-2.654,1.854,8.325,8.325,0,0,0-1.745,2.782,9.6,9.6,0,0,0-.618,3.491,10.23,10.23,0,0,0,.6,3.582,8.061,8.061,0,0,0,1.727,2.8,7.87,7.87,0,0,0,2.691,1.837,8.959,8.959,0,0,0,3.491.654,10.009,10.009,0,0,0,4.127-.836,7.26,7.26,0,0,0,2.989-2.535.305.305,0,0,0-.055-.406l-1.133-.952a.3.3,0,0,0-.439.066,5.9,5.9,0,0,1-2.217,1.9,7.026,7.026,0,0,1-3.236.8,6.064,6.064,0,0,1-3.145-.727,6.319,6.319,0,0,1-1.945-1.745,6.223,6.223,0,0,1-1-2.091,7.458,7.458,0,0,1-.273-1.764h13.809a.3.3,0,0,0,.3-.3v-1.228A8.449,8.449,0,0,0,669.644,1440.7Zm-13.6,2.436a4.85,4.85,0,0,1,.291-1.218,6.654,6.654,0,0,1,.982-1.836,6.482,6.482,0,0,1,1.873-1.673,5.568,5.568,0,0,1,2.963-.727,5.974,5.974,0,0,1,2.273.436,5.864,5.864,0,0,1,1.854,1.182,5.64,5.64,0,0,1,1.236,1.727,4.958,4.958,0,0,1,.455,2.109Z" transform="translate(-161.153 -50.168)" fill="#484848"/>
  </g>
</svg>
