<svg xmlns="http://www.w3.org/2000/svg" width="36.57" height="29.716" viewBox="0 0 36.57 29.716">
  <path id="Trazado_9239" data-name="Trazado 9239" d="M86.5,128.166c13.8,0,21.349-11.433,21.349-21.349,0-.325,0-.648-.022-.97a15.266,15.266,0,0,0,3.743-3.884,14.977,14.977,0,0,1-4.31,1.181,7.529,7.529,0,0,0,3.3-4.15,15.037,15.037,0,0,1-4.764,1.821,7.51,7.51,0,0,0-12.787,6.843,21.3,21.3,0,0,1-15.464-7.839,7.509,7.509,0,0,0,2.323,10.016,7.448,7.448,0,0,1-3.405-.939v.1a7.506,7.506,0,0,0,6.02,7.355,7.491,7.491,0,0,1-3.388.129,7.512,7.512,0,0,0,7.01,5.211,15.056,15.056,0,0,1-9.318,3.218A15.267,15.267,0,0,1,75,124.8a21.242,21.242,0,0,0,11.5,3.365" transform="translate(-75 -98.45)" fill="#1da1f2"/>
</svg>
